<?xml version="1.0" encoding="utf-8"?><!DOCTYPE svg PUBLIC "-//W3C//DTD SVG 1.1//EN" "http://www.w3.org/Graphics/SVG/1.1/DTD/svg11.dtd"><svg viewBox="0 0 640 512" xmlns="http://www.w3.org/2000/svg" xmlns:xlink="http://www.w3.org/1999/xlink"><style>:root>svg{display:none}:root>svg:target{display:block}</style><svg aria-hidden="true" data-prefix="fad" data-icon="moon" viewBox="0 0 512 512" class="aasvg-inline--fa aafa-moon aafa-w-16 aafa-9x" id="iconcommon--moon" xmlns="http://www.w3.org/2000/svg"><g class="aafa-group"><path fill="currentColor" d="M32 256C32 114.51 144.29 0 282.64 0a246.91 246.91 0 0145.8 4.28c10.77 2 13.16 16.72 3.67 22.23-61.52 35.76-99.37 102.17-99.37 174.39 0 125.38 111.67 220.61 233.28 197 10.69-2.08 18.24 10.64 11.32 19.35C430.56 476.08 360 512 282.64 512 144.11 512 32 397.31 32 256z" class="aafa-primary"/></g></svg><svg aria-hidden="true" data-prefix="fal" data-icon="moon" viewBox="0 0 512 512" class="absvg-inline--fa abfa-moon abfa-w-16 abfa-9x" id="iconcommon--moon-outline" xmlns="http://www.w3.org/2000/svg"><path fill="currentColor" d="M448.964 365.617C348.188 384.809 255.14 307.765 255.14 205.419c0-58.893 31.561-112.832 82.574-141.862 25.83-14.7 19.333-53.859-10.015-59.28A258.114 258.114 0 00280.947 0c-141.334 0-256 114.546-256 256 0 141.334 114.547 256 256 256 78.931 0 151.079-35.924 198.85-94.783 18.846-23.22-1.706-57.149-30.833-51.6zM280.947 480c-123.712 0-224-100.288-224-224s100.288-224 224-224c13.984 0 27.665 1.294 40.94 3.745-58.972 33.56-98.747 96.969-98.747 169.674 0 122.606 111.613 214.523 231.81 191.632C413.881 447.653 351.196 480 280.947 480z"/></svg><svg aria-hidden="true" data-prefix="fad" data-icon="moon" viewBox="0 0 512 512" class="acsvg-inline--fa acfa-moon acfa-w-16 acfa-9x" id="iconcommon--moon-solid" xmlns="http://www.w3.org/2000/svg"><g class="acfa-group"><path fill="currentColor" d="M32 256C32 114.51 144.29 0 282.64 0a246.91 246.91 0 0145.8 4.28c10.77 2 13.16 16.72 3.67 22.23-61.52 35.76-99.37 102.17-99.37 174.39 0 125.38 111.67 220.61 233.28 197 10.69-2.08 18.24 10.64 11.32 19.35C430.56 476.08 360 512 282.64 512 144.11 512 32 397.31 32 256z" class="acfa-primary"/></g></svg><svg aria-hidden="true" data-prefix="far" data-icon="play" viewBox="0 0 448 512" class="adsvg-inline--fa adfa-play adfa-w-14 adfa-9x" id="iconcommon--play" xmlns="http://www.w3.org/2000/svg"><path fill="currentColor" d="M424.4 214.7L72.4 6.6C43.8-10.3 0 6.1 0 47.9V464c0 37.5 40.7 60.1 72.4 41.3l352-208c31.4-18.5 31.5-64.1 0-82.6zM48 453.5v-395c0-4.6 5.1-7.5 9.1-5.2l334.2 197.5c3.9 2.3 3.9 8 0 10.3L57.1 458.7c-4 2.3-9.1-.6-9.1-5.2z"/></svg><svg aria-hidden="true" data-prefix="fas" data-icon="power-off" viewBox="0 0 512 512" class="aesvg-inline--fa aefa-power-off aefa-w-16 aefa-9x" id="iconcommon--power" xmlns="http://www.w3.org/2000/svg"><path fill="currentColor" d="M400 54.1c63 45 104 118.6 104 201.9 0 136.8-110.8 247.7-247.5 248C120 504.3 8.2 393 8 256.4 7.9 173.1 48.9 99.3 111.8 54.2c11.7-8.3 28-4.8 35 7.7L162.6 90c5.9 10.5 3.1 23.8-6.6 31-41.5 30.8-68 79.6-68 134.9-.1 92.3 74.5 168.1 168 168.1 91.6 0 168.6-74.2 168-169.1-.3-51.8-24.7-101.8-68.1-134-9.7-7.2-12.4-20.5-6.5-30.9l15.8-28.1c7-12.4 23.2-16.1 34.8-7.8zM296 264V24c0-13.3-10.7-24-24-24h-32c-13.3 0-24 10.7-24 24v240c0 13.3 10.7 24 24 24h32c13.3 0 24-10.7 24-24z"/></svg><svg aria-hidden="true" data-prefix="far" data-icon="power-off" viewBox="0 0 512 512" class="afsvg-inline--fa affa-power-off affa-w-16 affa-9x" id="iconcommon--powerpro" xmlns="http://www.w3.org/2000/svg"><path fill="currentColor" d="M388.5 46.3C457.9 90.3 504 167.8 504 256c0 136.8-110.8 247.7-247.5 248C120 504.3 8.2 393 8 256.4 7.9 168 54 90.3 123.5 46.3c5.8-3.7 13.5-1.8 16.9 4.2l11.8 20.9c3.1 5.5 1.4 12.5-3.9 15.9C92.8 122.9 56 185.1 56 256c0 110.5 89.5 200 200 200s200-89.5 200-200c0-70.9-36.8-133.1-92.3-168.6-5.3-3.4-7-10.4-3.9-15.9l11.8-20.9c3.3-6.1 11.1-7.9 16.9-4.3zM280 276V12c0-6.6-5.4-12-12-12h-24c-6.6 0-12 5.4-12 12v264c0 6.6 5.4 12 12 12h24c6.6 0 12-5.4 12-12z"/></svg><svg aria-hidden="true" data-prefix="fal" data-icon="sun" viewBox="0 0 512 512" class="agsvg-inline--fa agfa-sun agfa-w-16 agfa-9x" id="iconcommon--sun" xmlns="http://www.w3.org/2000/svg"><path fill="currentColor" d="M256 143.7c-61.8 0-112 50.3-112 112.1s50.2 112.1 112 112.1 112-50.3 112-112.1-50.2-112.1-112-112.1zm0 192.2c-44.1 0-80-35.9-80-80.1s35.9-80.1 80-80.1 80 35.9 80 80.1-35.9 80.1-80 80.1zm256-80.1c0-5.3-2.7-10.3-7.1-13.3L422 187l19.4-97.9c1-5.2-.6-10.7-4.4-14.4-3.8-3.8-9.1-5.5-14.4-4.4l-97.8 19.4-55.5-83c-6-8.9-20.6-8.9-26.6 0l-55.5 83-97.8-19.5c-5.3-1.1-10.6.6-14.4 4.4-3.8 3.8-5.4 9.2-4.4 14.4L90 187 7.1 242.5c-4.4 3-7.1 8-7.1 13.3 0 5.3 2.7 10.3 7.1 13.3L90 324.6l-19.4 97.9c-1 5.2.6 10.7 4.4 14.4 3.8 3.8 9.1 5.5 14.4 4.4l97.8-19.4 55.5 83c3 4.5 8 7.1 13.3 7.1s10.3-2.7 13.3-7.1l55.5-83 97.8 19.4c5.4 1.2 10.7-.6 14.4-4.4 3.8-3.8 5.4-9.2 4.4-14.4L422 324.6l82.9-55.5c4.4-3 7.1-8 7.1-13.3zm-116.7 48.1c-5.4 3.6-8 10.1-6.8 16.4l16.8 84.9-84.8-16.8c-6.6-1.4-12.8 1.4-16.4 6.8l-48.1 72-48.1-71.9c-3-4.5-8-7.1-13.3-7.1-1 0-2.1.1-3.1.3l-84.8 16.8 16.8-84.9c1.2-6.3-1.4-12.8-6.8-16.4l-71.9-48.1 71.9-48.2c5.4-3.6 8-10.1 6.8-16.4l-16.8-84.9 84.8 16.8c6.5 1.3 12.8-1.4 16.4-6.8l48.1-72 48.1 72c3.6 5.4 9.9 8.1 16.4 6.8l84.8-16.8-16.8 84.9c-1.2 6.3 1.4 12.8 6.8 16.4l71.9 48.2-71.9 48z"/></svg><svg aria-hidden="true" data-prefix="far" data-icon="sun" class="ahsvg-inline--fa ahfa-sun ahfa-w-16" viewBox="0 0 512 512" id="iconcommon--sun-regular" xmlns="http://www.w3.org/2000/svg"><path fill="currentColor" d="M494.2 221.9l-59.8-40.5 13.7-71c2.6-13.2-1.6-26.8-11.1-36.4-9.6-9.5-23.2-13.7-36.2-11.1l-70.9 13.7-40.4-59.9c-15.1-22.3-51.9-22.3-67 0l-40.4 59.9-70.8-13.7C98 60.4 84.5 64.5 75 74.1c-9.5 9.6-13.7 23.1-11.1 36.3l13.7 71-59.8 40.5C6.6 229.5 0 242 0 255.5s6.7 26 17.8 33.5l59.8 40.5-13.7 71c-2.6 13.2 1.6 26.8 11.1 36.3 9.5 9.5 22.9 13.7 36.3 11.1l70.8-13.7 40.4 59.9C230 505.3 242.6 512 256 512s26-6.7 33.5-17.8l40.4-59.9 70.9 13.7c13.4 2.7 26.8-1.6 36.3-11.1 9.5-9.5 13.6-23.1 11.1-36.3l-13.7-71 59.8-40.5c11.1-7.5 17.8-20.1 17.8-33.5-.1-13.6-6.7-26.1-17.9-33.7zm-112.9 85.6l17.6 91.2-91-17.6L256 458l-51.9-77-90.9 17.6 17.6-91.2-76.8-52 76.8-52-17.6-91.2 91 17.6L256 53l51.9 76.9 91-17.6-17.6 91.1 76.8 52-76.8 52.1zM256 152c-57.3 0-104 46.7-104 104s46.7 104 104 104 104-46.7 104-104-46.7-104-104-104zm0 160c-30.9 0-56-25.1-56-56s25.1-56 56-56 56 25.1 56 56-25.1 56-56 56z"/></svg><svg aria-hidden="true" data-prefix="far" data-icon="books" viewBox="0 0 576 512" class="aisvg-inline--fa aifa-books aifa-w-18 aifa-9x" id="iconresume--book" xmlns="http://www.w3.org/2000/svg"><path fill="currentColor" d="M575.46 454.59L458.55 11.86c-2.28-8.5-11.1-13.59-19.6-11.31L423.5 4.68c-7.54 2.02-12.37 9.11-11.83 16.53-11.47 7.42-64.22 21.55-77.85 20.86-3.24-6.69-10.97-10.42-18.5-8.4L304 36.7V32c0-17.67-14.33-32-40-32H24C14.33 0 0 14.33 0 32v448c0 17.67 14.33 32 24 32h240c25.67 0 40-14.33 40-32V115.94l101.45 384.2c2.28 8.5 11.1 13.59 19.6 11.31l15.46-4.14c7.54-2.02 12.37-9.11 11.83-16.52 11.47-7.42 64.21-21.55 77.85-20.86 3.24 6.69 10.97 10.42 18.5 8.4l15.46-4.14c8.49-2.28 13.58-11.1 11.31-19.6zM128 464H48v-48h80v48zm0-96H48V144h80v224zm0-272H48V48h80v48zm128 368h-80v-48h80v48zm0-96h-80V144h80v224zm0-272h-80V48h80v48zm185.98 355.01L344.74 81.69c16.76-1.8 60.74-13.39 77.28-20.71l97.24 369.32c-16.76 1.81-60.74 13.4-77.28 20.71z"/></svg><svg aria-hidden="true" data-prefix="far" data-icon="car" viewBox="0 0 512 512" class="ajsvg-inline--fa ajfa-car ajfa-w-16 ajfa-9x" id="iconresume--cars" xmlns="http://www.w3.org/2000/svg"><path fill="currentColor" d="M499.99 192.01h-52.21l-31.36-77.88C404.24 83.84 374.86 64 342.22 64H169.78c-32.64 0-62.02 19.84-74.21 50.12L64.21 192h-52.2C4.2 192-1.53 199.34.37 206.91l6 24A12.01 12.01 0 0018.01 240h11.31C21.04 254.16 16 270.41 16 287.99V424c0 13.25 10.75 24 24 24h16c13.25 0 24-10.75 24-24v-24h352v24c0 13.25 10.75 24 24 24h16c13.25 0 24-10.75 24-24V288c0-17.59-5.04-33.84-13.31-47.99H494c5.51 0 10.31-3.75 11.64-9.09l6-24c1.89-7.58-3.84-14.91-11.65-14.91zM140.1 132.05C145 119.87 156.65 112 169.78 112h172.44c13.13 0 24.78 7.87 29.68 20.05l24.13 59.94H115.97l24.13-59.94zM448 336c0 8.82-7.18 16-16 16H80c-8.82 0-16-7.18-16-16v-48c0-26.47 21.53-48 48-48h288c26.47 0 48 21.53 48 48v48zm-320-72.01c-19.2 0-32 12.76-32 31.91s12.8 31.91 32 31.91 48 3.19 48-15.96c0-19.14-28.8-47.86-48-47.86zm256 0c-19.2 0-48 28.72-48 47.86 0 19.15 28.8 15.96 48 15.96s32-12.76 32-31.91c0-19.14-12.8-31.91-32-31.91z"/></svg><svg viewBox="0 0 50 50" id="iconresume--download" xmlns="http://www.w3.org/2000/svg"><defs><style>.akcls-1{fill:#111}.akcls-2{fill:#00c569}</style></defs><g id="akLayer_2" data-name="Layer 2"><g id="akDownload"><path class="akcls-1" d="M47.5 33a2.5 2.5 0 00-2.5 2.5v7.75A1.76 1.76 0 0143.25 45H6.75A1.76 1.76 0 015 43.25V35.5a2.5 2.5 0 00-5 0v7.75A6.75 6.75 0 006.75 50h36.5A6.75 6.75 0 0050 43.25V35.5a2.5 2.5 0 00-2.5-2.5z"/><path class="akcls-1" d="M23.11 38.2l.08.26.13.23a1.86 1.86 0 00.1.2 2.52 2.52 0 00.69.69l.2.1.23.13.26.08.2.11a2.69 2.69 0 001 0l.21-.06.26-.08.23-.13.2-.1a3.68 3.68 0 00.38-.31l9.19-9.19a2.5 2.5 0 00-3.54-3.54L28 31.46V2.5a2.5 2.5 0 00-5 0v35a2.72 2.72 0 00.05.49 1.66 1.66 0 00.06.21z"/><rect class="akcls-2" x="13.82" y="24.73" width="5" height="11.17" rx="2.5" ry="2.5" transform="rotate(-45 16.32 30.32)"/></g></g></svg><svg aria-hidden="true" data-prefix="far" data-icon="user-graduate" viewBox="0 0 448 512" class="alsvg-inline--fa alfa-user-graduate alfa-w-14 alfa-9x" id="iconresume--education" xmlns="http://www.w3.org/2000/svg"><path fill="currentColor" d="M13.2 100l6.8 2v37.6c-7 4.2-12 11.5-12 20.3 0 8.4 4.6 15.4 11.1 19.7L3.5 242c-1.7 6.9 2.1 14 7.6 14h41.8c5.5 0 9.3-7.1 7.6-14l-15.6-62.3C51.4 175.4 56 168.4 56 160c0-8.8-5-16.1-12-20.3v-30.5L90.6 123C84 139.4 80 157.2 80 176c0 79.5 64.5 144 144 144s144-64.5 144-144c0-18.8-4-36.6-10.6-53l77.4-23c17.6-5.2 17.6-34.8 0-40L240.9 2.5C235.3.8 229.7 0 224 0s-11.3.8-16.9 2.5L13.2 60c-17.6 5.2-17.6 34.8 0 40zM224 272c-52.9 0-96-43.1-96-96 0-14.1 3.3-27.3 8.8-39.3l70.4 20.9c14.8 4.4 27.2 2 33.8 0l70.4-20.9c5.5 12 8.8 25.3 8.8 39.3-.2 52.9-43.3 96-96.2 96zm-3.2-223.5c1-.3 3.3-.9 6.5 0L333.5 80l-106.3 31.5c-2.1.6-4.2.7-6.5 0L114.5 80l106.3-31.5zm98.6 272.1L224 400l-95.4-79.4C57.1 323.7 0 382.2 0 454.4v9.6c0 26.5 21.5 48 48 48h352c26.5 0 48-21.5 48-48v-9.6c0-72.2-57.1-130.7-128.6-133.8zM200 464H48v-9.6c0-40.4 27.9-74.4 66-83.5l86 71.6V464zm200 0H248v-21.5l86-71.6c38.1 9.1 66 43.1 66 83.5v9.6z"/></svg><svg aria-hidden="true" data-prefix="far" data-icon="at" viewBox="0 0 512 512" class="amsvg-inline--fa amfa-at amfa-w-16 amfa-9x" id="iconresume--email" xmlns="http://www.w3.org/2000/svg"><path fill="currentColor" d="M504 232C504 95.751 394.053 8 256 8 118.94 8 8 118.919 8 256c0 137.059 110.919 248 248 248 52.926 0 104.681-17.079 147.096-48.321 5.501-4.052 6.423-11.924 2.095-17.211l-15.224-18.597c-4.055-4.954-11.249-5.803-16.428-2.041C339.547 442.517 298.238 456 256 456c-110.28 0-200-89.72-200-200S145.72 56 256 56c109.469 0 200 65.02 200 176 0 63.106-42.478 98.29-83.02 98.29-19.505 0-20.133-12.62-16.366-31.463l28.621-148.557c1.426-7.402-4.245-14.27-11.783-14.27h-39.175a12.005 12.005 0 00-11.784 9.735c-1.102 5.723-1.661 8.336-2.28 13.993-11.923-19.548-35.878-31.068-65.202-31.068C183.412 128.66 120 191.149 120 281.53c0 61.159 32.877 102.11 93.18 102.11 29.803 0 61.344-16.833 79.749-42.239 4.145 30.846 28.497 38.01 59.372 38.01C451.467 379.41 504 315.786 504 232zm-273.9 97.35c-28.472 0-45.47-19.458-45.47-52.05 0-57.514 39.56-93.41 74.61-93.41 30.12 0 45.471 21.532 45.471 51.58 0 46.864-33.177 93.88-74.611 93.88z"/></svg><svg aria-hidden="true" data-prefix="far" data-icon="briefcase" class="ansvg-inline--fa anfa-briefcase anfa-w-16 anfa-7x" viewBox="0 0 512 512" id="iconresume--experience" xmlns="http://www.w3.org/2000/svg"><path fill="currentColor" d="M464 128h-80V80c0-26.51-21.49-48-48-48H176c-26.51 0-48 21.49-48 48v48H48c-26.51 0-48 21.49-48 48v256c0 26.51 21.49 48 48 48h416c26.51 0 48-21.49 48-48V176c0-26.51-21.49-48-48-48zM176 80h160v48H176V80zM54 176h404c3.31 0 6 2.69 6 6v74H48v-74c0-3.31 2.69-6 6-6zm404 256H54c-3.31 0-6-2.69-6-6V304h144v24c0 13.25 10.75 24 24 24h80c13.25 0 24-10.75 24-24v-24h144v122c0 3.31-2.69 6-6 6z"/></svg><svg viewBox="0 0 24 24" id="iconresume--home" xmlns="http://www.w3.org/2000/svg"><path d="M3 13h1v7c0 1.103.897 2 2 2h12c1.103 0 2-.897 2-2v-7h1a1 1 0 00.707-1.707l-9-9a.999.999 0 00-1.414 0l-9 9A1 1 0 003 13zm7 7v-5h4v5h-4zm2-15.586l6 6V15l.001 5H16v-5c0-1.103-.897-2-2-2h-4c-1.103 0-2 .897-2 2v5H6v-9.586l6-6z"/></svg><svg aria-hidden="true" data-prefix="fab" data-icon="instagram-square" viewBox="0 0 448 512" class="apsvg-inline--fa apfa-instagram-square apfa-w-14 apfa-9x" id="iconresume--insta-fill" xmlns="http://www.w3.org/2000/svg"><path fill="currentColor" d="M224 202.66A53.34 53.34 0 10277.36 256 53.38 53.38 0 00224 202.66zm124.71-41a54 54 0 00-30.41-30.41c-21-8.29-71-6.43-94.3-6.43s-73.25-1.93-94.31 6.43a54 54 0 00-30.41 30.41c-8.28 21-6.43 71.05-6.43 94.33s-1.85 73.27 6.47 94.34a54 54 0 0030.41 30.41c21 8.29 71 6.43 94.31 6.43s73.24 1.93 94.3-6.43a54 54 0 0030.41-30.41c8.35-21 6.43-71.05 6.43-94.33s1.92-73.26-6.43-94.33zM224 338a82 82 0 1182-82 81.9 81.9 0 01-82 82zm85.38-148.3a19.14 19.14 0 1119.13-19.14 19.1 19.1 0 01-19.09 19.18zM400 32H48A48 48 0 000 80v352a48 48 0 0048 48h352a48 48 0 0048-48V80a48 48 0 00-48-48zm-17.12 290c-1.29 25.63-7.14 48.34-25.85 67s-41.4 24.63-67 25.85c-26.41 1.49-105.59 1.49-132 0-25.63-1.29-48.26-7.15-67-25.85s-24.63-41.42-25.85-67c-1.49-26.42-1.49-105.61 0-132 1.29-25.63 7.07-48.34 25.85-67s41.47-24.56 67-25.78c26.41-1.49 105.59-1.49 132 0 25.63 1.29 48.33 7.15 67 25.85s24.63 41.42 25.85 67.05c1.49 26.32 1.49 105.44 0 131.88z"/></svg><svg aria-hidden="true" data-prefix="far" data-icon="external-link" viewBox="0 0 512 512" class="aqsvg-inline--fa aqfa-external-link aqfa-w-16 aqfa-9x" id="iconresume--link" xmlns="http://www.w3.org/2000/svg"><path fill="currentColor" d="M497.6 0L334.4.17a14.4 14.4 0 00-14.4 14.4v33.31a14.4 14.4 0 0014.69 14.4l73.63-2.72 2.06 2.06-278.86 278.87a12 12 0 000 17l23 23a12 12 0 0017 0l278.86-278.87 2.06 2.06-2.72 73.63a14.4 14.4 0 0014.4 14.69h33.31a14.4 14.4 0 0014.4-14.4L512 14.4A14.4 14.4 0 00497.6 0zM432 288h-16a16 16 0 00-16 16v154a6 6 0 01-6 6H54a6 6 0 01-6-6V118a6 6 0 016-6h154a16 16 0 0016-16V80a16 16 0 00-16-16H48a48 48 0 00-48 48v352a48 48 0 0048 48h352a48 48 0 0048-48V304a16 16 0 00-16-16z"/></svg><svg aria-hidden="true" data-prefix="far" data-icon="map-marker-alt" viewBox="0 0 384 512" class="arsvg-inline--fa arfa-map-marker-alt arfa-w-12 arfa-7x" id="iconresume--location" xmlns="http://www.w3.org/2000/svg"><path fill="currentColor" d="M192 0C85.903 0 0 86.014 0 192c0 71.117 23.991 93.341 151.271 297.424 18.785 30.119 62.694 30.083 81.457 0C360.075 285.234 384 263.103 384 192 384 85.903 297.986 0 192 0zm0 464C64.576 259.686 48 246.788 48 192c0-79.529 64.471-144 144-144s144 64.471 144 144c0 54.553-15.166 65.425-144 272zm-80-272c0-44.183 35.817-80 80-80s80 35.817 80 80-35.817 80-80 80-80-35.817-80-80z"/></svg><svg aria-hidden="true" data-prefix="far" data-icon="envelope" class="assvg-inline--fa asfa-envelope asfa-w-16 asfa-7x" viewBox="0 0 512 512" id="iconresume--mail" xmlns="http://www.w3.org/2000/svg"><path fill="currentColor" d="M464 64H48C21.49 64 0 85.49 0 112v288c0 26.51 21.49 48 48 48h416c26.51 0 48-21.49 48-48V112c0-26.51-21.49-48-48-48zm0 48v40.805c-22.422 18.259-58.168 46.651-134.587 106.49-16.841 13.247-50.201 45.072-73.413 44.701-23.208.375-56.579-31.459-73.413-44.701C106.18 199.465 70.425 171.067 48 152.805V112h416zM48 400V214.398c22.914 18.251 55.409 43.862 104.938 82.646 21.857 17.205 60.134 55.186 103.062 54.955 42.717.231 80.509-37.199 103.053-54.947 49.528-38.783 82.032-64.401 104.947-82.653V400H48z"/></svg><svg data-name="Layer 1" viewBox="0 0 24 24" id="iconresume--options" xmlns="http://www.w3.org/2000/svg"><path d="M8.81 0H2.19A2.19 2.19 0 000 2.19v6.62A2.19 2.19 0 002.19 11h6.62A2.19 2.19 0 0011 8.81V2.19A2.19 2.19 0 008.81 0zM9 8.81a.18.18 0 01-.19.19H2.19A.18.18 0 012 8.81V2.19A.18.18 0 012.19 2h6.62a.18.18 0 01.19.19zM21.81 0h-6.62A2.19 2.19 0 0013 2.19v6.62A2.19 2.19 0 0015.19 11h6.62A2.19 2.19 0 0024 8.81V2.19A2.19 2.19 0 0021.81 0zM22 8.81a.18.18 0 01-.19.19h-6.62a.18.18 0 01-.19-.19V2.19a.18.18 0 01.19-.19h6.62a.18.18 0 01.19.19zM8.81 13H2.19A2.19 2.19 0 000 15.19v6.62A2.19 2.19 0 002.19 24h6.62A2.19 2.19 0 0011 21.81v-6.62A2.19 2.19 0 008.81 13zM9 21.81a.18.18 0 01-.19.19H2.19a.18.18 0 01-.19-.19v-6.62a.18.18 0 01.19-.19h6.62a.18.18 0 01.19.19zM21.81 13h-6.62A2.19 2.19 0 0013 15.19v6.62A2.19 2.19 0 0015.19 24h6.62A2.19 2.19 0 0024 21.81v-6.62A2.19 2.19 0 0021.81 13zm.19 8.81a.18.18 0 01-.19.19h-6.62a.18.18 0 01-.19-.19v-6.62a.18.18 0 01.19-.19h6.62a.18.18 0 01.19.19z"/></svg><svg aria-hidden="true" data-prefix="far" data-icon="phone" viewBox="0 0 512 512" class="ausvg-inline--fa aufa-phone aufa-w-16 aufa-7x" id="iconresume--phone" xmlns="http://www.w3.org/2000/svg"><path fill="currentColor" d="M476.5 22.9L382.3 1.2c-21.6-5-43.6 6.2-52.3 26.6l-43.5 101.5c-8 18.6-2.6 40.6 13.1 53.4l40 32.7C311 267.8 267.8 311 215.4 339.5l-32.7-40c-12.8-15.7-34.8-21.1-53.4-13.1L27.7 329.9c-20.4 8.7-31.5 30.7-26.6 52.3l21.7 94.2c4.8 20.9 23.2 35.5 44.6 35.5C312.3 512 512 313.7 512 67.5c0-21.4-14.6-39.8-35.5-44.6zM69.3 464l-20.9-90.7 98.2-42.1 55.7 68.1c98.8-46.4 150.6-98 197-197l-68.1-55.7 42.1-98.2L464 69.3C463 286.9 286.9 463 69.3 464z"/></svg><svg viewBox="0 0 20 20" id="iconresume--profile" xmlns="http://www.w3.org/2000/svg"><path d="M10 10c-2.217 0-4.019-1.794-4.019-4S7.783 2 10 2s4.019 1.794 4.019 4-1.802 4-4.019 4m3.776.673a5.978 5.978 0 002.182-5.603C15.561 2.447 13.37.348 10.722.042 7.07-.381 3.972 2.449 3.972 6c0 1.89.88 3.574 2.252 4.673C2.852 11.934.39 14.895.004 18.891A1.012 1.012 0 001.009 20a.99.99 0 00.993-.891C2.404 14.646 5.837 12 10 12s7.596 2.646 7.999 7.109a.99.99 0 00.993.891c.596 0 1.06-.518 1.003-1.109-.385-3.996-2.847-6.957-6.22-8.218" fill="#000" fill-rule="evenodd"/></svg><svg aria-hidden="true" data-prefix="far" data-icon="puzzle-piece" viewBox="0 0 576 512" class="awsvg-inline--fa awfa-puzzle-piece awfa-w-18 awfa-9x" id="iconresume--puzzle" xmlns="http://www.w3.org/2000/svg"><path fill="currentColor" d="M437.983 261.352c-4.321 2.778-10.839 6.969-13.122 7.279-24.067-.092.757-103.841 5.813-124.714-29.614 5.697-134.448 26.337-159.932 7.046C271.197 132.585 304 116.55 304 73.588 304 28.222 261.986 0 216.994 0 171.147 0 112 25.756 112 75.063c0 40.881 28.702 64.642 31.994 74.559-.739 28.838-115.981 1.752-143.994-5.469v351.556C10.464 498.412 56.682 512 104 512c45.3-.001 88-15.737 88-60.854 0-31.773-32-45.657-32-73.834 0-16.521 29.235-27.063 49.361-27.063 21.125 0 46.639 11.414 46.639 25.588 0 24.02-32 36.882-32 77.924 0 66.838 81.555 58.073 134.44 51.225 37.039-4.797 33.159-3.906 73.069-3.906-2.799-8.954-28.061-81.125-13.892-100.4 10.021-13.639 39.371 31.32 84.037 31.32C548.715 432 576 380.487 576 336c0-57.793-45.975-133.814-138.017-74.648zM501.654 384c-24.507 0-37.496-32.763-79.116-32.763-35.286 0-67.12 27.143-53.431 104.031-19.03 2.234-84.249 12.922-96.329 2.29C261.633 447.771 304 419.385 304 375.837c0-46.326-49.475-73.588-94.639-73.588-46.686 0-97.361 27.417-97.361 75.063 0 50.809 41.414 70.396 29.601 79.554-16.851 13.064-71.854 5.122-93.601.935V204.584c63.934 10.948 144 9.33 144-55.435 0-31.802-32-45.775-32-74.086C160 58.488 199.338 48 216.994 48 233.19 48 256 55.938 256 73.588c0 23.524-33.264 36.842-33.264 77.924 0 60.396 86.897 58.813 146.508 51.68-6.592 53.714 1.669 113.439 55.691 113.439 31.223 0 45.141-28.631 75.22-28.631C517.407 288 528 315.957 528 336c0 21.606-12.157 48-26.346 48z"/></svg><svg aria-hidden="true" data-prefix="far" data-icon="arrow-to-top" viewBox="0 0 384 512" class="axsvg-inline--fa axfa-arrow-to-top axfa-w-12 axfa-9x" id="iconresume--scrollup" xmlns="http://www.w3.org/2000/svg"><path fill="currentColor" d="M35.5 279.9l148-148.4c4.7-4.7 12.3-4.7 17 0l148 148.4c4.7 4.7 4.7 12.3 0 17l-19.6 19.6c-4.8 4.8-12.5 4.7-17.1-.2L218 219.2V468c0 6.6-5.4 12-12 12h-28c-6.6 0-12-5.4-12-12V219.2l-93.7 97.1c-4.7 4.8-12.4 4.9-17.1.2l-19.6-19.6c-4.8-4.7-4.8-12.3-.1-17zM12 84h360c6.6 0 12-5.4 12-12V44c0-6.6-5.4-12-12-12H12C5.4 32 0 37.4 0 44v28c0 6.6 5.4 12 12 12z"/></svg><svg aria-hidden="true" data-prefix="far" data-icon="microscope" viewBox="0 0 512 512" class="aysvg-inline--fa ayfa-microscope ayfa-w-16 ayfa-9x" id="iconresume--search" xmlns="http://www.w3.org/2000/svg"><path fill="currentColor" d="M476 464h-40.5c37.06-33.68 60.5-82.1 60.5-136 0-98.75-78.26-179.36-176-183.6V97.14c0-18.39-10.16-34.45-25.16-42.88V36.58c0-20.17-16.4-36.58-36.56-36.58H157.72c-20.16 0-36.56 16.41-36.56 36.58v17.69C106.16 62.69 96 78.75 96 97.14v197.72c0 22.02 14.56 40.7 34.56 46.94v37.62c0 20.17 16.41 36.58 36.59 36.58h81.69c20.19 0 36.59-16.41 36.59-36.58V341.8c20-6.23 34.56-24.92 34.56-46.94V192.81c71.21 4.23 128 62.95 128 135.19 0 74.98-61 136-136 136H36c-19.88 0-36 16.12-36 36 0 6.63 5.37 12 12 12h488c6.63 0 12-5.37 12-12 0-19.88-16.12-36-36-36zm-297.44-96v-40h58.88v40h-58.88zm92.28-72H145.16l-1.16-1.14L145.16 96h24V48h77.69L248 96h24l-1.16 200z"/></svg><svg data-name="Layer 1" viewBox="0 0 24 24" id="iconresume--skills" xmlns="http://www.w3.org/2000/svg"><path d="M20.87 0H7.13A3.14 3.14 0 004 3.13V4H0v20h20v-4h.87A3.14 3.14 0 0024 16.87V3.13A3.14 3.14 0 0020.87 0zM18 22H2V6h2v10.87A3.14 3.14 0 007.13 20H18zm4-5.13A1.14 1.14 0 0120.87 18H7.13A1.14 1.14 0 016 16.87V3.13A1.14 1.14 0 017.13 2h13.74A1.14 1.14 0 0122 3.13z"/><path d="M9 5h10v2H9zM9 9h10v2H9zM9 13h10v2H9z"/></svg><svg aria-hidden="true" data-prefix="far" data-icon="chalkboard-teacher" viewBox="0 0 640 512" class="basvg-inline--fa bafa-chalkboard-teacher bafa-w-20 bafa-9x" id="iconresume--teach" xmlns="http://www.w3.org/2000/svg"><path fill="currentColor" d="M226.79 342.02C199 342.02 192.02 352 160 352c-31.97 0-38.95-9.98-66.79-9.98C21.12 342.02 0 403 0 434.67V472c0 22.09 17.91 40 40 40h240c22.09 0 40-17.91 40-40v-37.33c0-42.72-30.58-92.65-93.21-92.65zM272 464H48v-29.33c0-14.01 8.15-44.65 45.21-44.65 17.24 0 29.56 9.98 66.79 9.98 37.37 0 49.49-9.98 66.79-9.98 37.02 0 45.21 30.58 45.21 44.65V464zM160 320c53.02 0 96-42.98 96-96s-42.98-96-96-96-96 42.98-96 96 42.98 96 96 96zm0-144c26.47 0 48 21.53 48 48s-21.53 48-48 48-48-21.53-48-48 21.53-48 48-48zM592 0H208c-26.47 0-48 22.25-48 49.59V96c9.69 0 32.27 3.13 48 9.52V48h384v320h-48v-48c0-17.67-14.33-32-32-32H384c-17.67 0-32 14.33-32 32v96h240c26.47 0 48-22.25 48-49.59V49.59C640 22.25 618.47 0 592 0zm-96 368h-96v-32h96v32z"/></svg><svg viewBox="0 0 24 24" id="iconresume--travel" xmlns="http://www.w3.org/2000/svg"><path d="M3.414 13.778L2 15.192l4.949 2.121 2.122 4.95 1.414-1.414-.707-3.536L13.091 14l3.61 7.704 1.339-1.339-1.19-10.123 2.828-2.829a2 2 0 10-2.828-2.828l-2.903 2.903L3.824 6.297 2.559 7.563l7.644 3.67-3.253 3.253-3.536-.708z"/></svg><svg shape-rendering="geometricPrecision" text-rendering="geometricPrecision" image-rendering="optimizeQuality" fill-rule="evenodd" clip-rule="evenodd" viewBox="0 0 340 340" id="iconskills--3ds" xmlns="http://www.w3.org/2000/svg"><defs><radialGradient id="bca" gradientUnits="userSpaceOnUse" cx="170.197" cy="170.831" r="116.987" fx="170.197" fy="170.831"><stop offset="0" stop-color="#fff"/><stop offset=".722" stop-color="#E0E3E8"/><stop offset="1" stop-color="#C2C8D2"/></radialGradient></defs><circle fill="url(#bca)" cx="170.197" cy="170.831" r="116.987"/><path fill="#7688A1" fill-rule="nonzero" d="M249.326 123.091l-10.219-2.825v-13.188h-13.188l-2.969-10.363h19.782a6.595 6.595 0 016.593 6.594l.001 19.782zM101.433 120.266l-10.363 2.825v-19.782a6.594 6.594 0 016.594-6.593l19.782-.001-2.825 10.363h-13.188v13.188zM242.732 254.971H222.95l2.1-10.942h13.188V230.84l11.088-2.245v19.782a6.596 6.596 0 01-6.594 6.594zM117.446 254.971H97.664a6.595 6.595 0 01-6.594-6.594v-19.782l10.363 2.68v13.188h13.188l2.825 10.508z"/><path fill="#E6E6E6" fill-rule="nonzero" d="M174.681 161.864l-40.097-20.049a10.052 10.052 0 00-4.484-1.058c-5.535 0-10.024 4.489-10.024 10.024v50.124c0-.002 0 0 0 0 0 3.796 2.147 7.268 5.541 8.965l40.098 20.049a10.036 10.036 0 004.483 1.059c5.535 0 10.024-4.489 10.024-10.024V170.83c0 .001 0 0 0 0 0-3.796-2.147-7.268-5.541-8.965v-.001z"/><path fill="#B3B3B3" fill-rule="nonzero" d="M215.558 142.261a10.03 10.03 0 00-9.754-.438l-35.607 17.801v71.354l.002-.001c1.556 0 3.092-.362 4.482-1.057l40.098-20.049a10.029 10.029 0 005.541-8.966v-50.124a10.025 10.025 0 00-4.762-8.519v-.001z"/><path fill="#999" fill-rule="nonzero" d="M219.242 146.309a10 10 0 00-4.464-4.493l-40.097-20.049a10.039 10.039 0 00-4.483-1.059c-1.555 0-3.093.364-4.483 1.059l-40.098 20.049a10.005 10.005 0 00-4.464 4.493l49.045 24.522 49.044-24.522z"/><path fill="#fff" fill-rule="nonzero" d="M164.381 157.84c-2.052 0-3.43-.337-4.142-1.003-.713-.665-1.065-1.91-1.065-3.75v-1.965l3.852-.893v4.275h13.984c.885 0 1.472-.141 1.754-.423.282-.282.423-.861.423-1.746v-3.234c0-.908-.149-1.495-.439-1.785-.289-.282-.868-.423-1.738-.423h-8.581v-3.1h7.689c.869 0 1.448-.172 1.738-.525.29-.352.439-1.096.439-2.239v-1.425c0-1.136-.149-1.879-.439-2.232-.29-.352-.869-.532-1.738-.532h-12.951v3.758l-3.664-.736v-1.527c0-1.816.352-3.061 1.065-3.727.712-.673 2.098-1.009 4.157-1.009h12.285c2.067 0 3.453.336 4.166 1.009.713.666 1.065 1.911 1.065 3.727v2.216c0 1.386-.282 2.428-.838 3.109-.556.689-1.503 1.182-2.834 1.488 1.62.242 2.787.751 3.499 1.526.713.775 1.065 1.919 1.065 3.414v2.545c0 1.989-.407 3.351-1.229 4.095-.814.744-2.255 1.112-4.322 1.112h-13.201z"/><path fill="#999" fill-rule="nonzero" d="M146.337 183.247h-7.29V197.2h7.29c3.241 0 5.543-.548 6.914-1.645 1.37-1.088 2.051-2.889 2.051-5.402 0-2.443-.689-4.212-2.075-5.285-1.386-1.081-3.68-1.621-6.89-1.621zm.415-2.96c1.895 0 3.484.126 4.776.376 1.292.258 2.357.642 3.202 1.159 1.355.861 2.42 2.028 3.187 3.5.76 1.48 1.143 3.101 1.143 4.878 0 3.351-1.018 5.856-3.045 7.516-2.036 1.66-5.121 2.49-9.263 2.49h-11.463v-19.919h11.463z"/><path fill="#4D4D4D" fill-rule="nonzero" d="M202.926 180.549h-13.953v5.168h12.763c1.871 0 3.148.329 3.829.979.681.649 1.025 1.886 1.025 3.727v2.38c0 1.84-.336 3.077-1.002 3.727-.665.65-1.949.979-3.852.979h-12.097c-1.903 0-3.187-.329-3.868-.979-.681-.65-1.026-1.887-1.026-3.727v-.548l3.43-.713v2.96h15.033v-5.591h-12.817c-1.88 0-3.164-.329-3.837-.978-.674-.65-1.01-1.887-1.01-3.727v-1.879c0-1.825.336-3.07 1.01-3.735.673-.666 1.957-1.003 3.837-1.003h11.071c1.856 0 3.132.322 3.837.963.704.65 1.057 1.778 1.057 3.406v.486l-3.43.736v-2.631z"/><path fill="#B0FFB0" fill-opacity=".188" d="M146.228 201.823c26.17 17.636 38.46 45.176 27.451 61.511-11.009 16.334-41.148 15.278-67.317-2.359-26.17-17.637-38.46-45.176-27.451-61.511s41.148-15.279 67.317 2.359z"/><path fill="#B0FFB0" fill-opacity=".188" d="M135.713 213.522c20.242 13.642 29.748 34.943 21.233 47.579-8.516 12.635-31.828 11.818-52.07-1.825-20.242-13.642-29.748-34.943-21.233-47.578 8.516-12.635 31.828-11.819 52.07 1.824z"/><path fill="#FEFCFD" fill-opacity=".278" d="M106.601 253.163c21.487 17.787 52.248 23.286 52.857 28.962-3.292 3.975-36.58-4.219-58.067-22.006-21.488-17.787-39.44-55.63-36.148-59.606 14.391 25.424 19.87 34.863 41.358 52.65z"/><path fill="#F7DEF7" fill-opacity=".259" d="M232.026 80.236c30.721 18.951 44.088 53.016 29.856 76.086-14.231 23.071-50.671 26.411-81.393 7.46s-44.088-53.016-29.857-76.087c14.232-23.07 50.672-26.41 81.394-7.459z"/><path fill="#FFFCFF" fill-opacity=".259" d="M234.138 86.024c21.316 13.149 30.591 36.786 20.716 52.793-9.874 16.008-35.159 18.326-56.476 5.176-21.317-13.149-30.591-36.785-20.717-52.793 9.875-16.008 35.16-18.326 56.477-5.176z"/></svg><svg shape-rendering="geometricPrecision" text-rendering="geometricPrecision" image-rendering="optimizeQuality" fill-rule="evenodd" clip-rule="evenodd" viewBox="0 0 340 340" id="iconskills--CSS3" xmlns="http://www.w3.org/2000/svg"><path fill="#0078BE" d="M48.814 30.354h243.2l-21.735 248.628-99.182 28.534-101.899-28.534z"/><path fill="#0088CD" d="M171.136 58.652v220.56l78.891-22.701 17.301-197.859z"/><path fill="#0088C1" fill-rule="nonzero" d="M206.404 172.864h-35.268v45.134l31.343-5.885z"/><path fill="#F0F0F0" fill-rule="nonzero" d="M95.186 86.509l3.924 28.829 70.652-.041-69.346 30.09 3.933 27.477h66.787V86.509zM137.058 210.82l-2.615-22.248h-28.785l3.922 45.797 61.491 17.001.065-.025v-33.339z"/><path fill="#fff" fill-rule="nonzero" d="M237.809 142.945h-63.02l68.408-27.987V86.509h-72.061v86.355h35.268l-3.934 39.249-31.334 5.885v33.347l58.815-18.294z"/></svg><svg shape-rendering="geometricPrecision" text-rendering="geometricPrecision" image-rendering="optimizeQuality" fill-rule="evenodd" clip-rule="evenodd" viewBox="0 0 340 340" id="iconskills--cdr" xmlns="http://www.w3.org/2000/svg"><defs><linearGradient id="bea" gradientUnits="userSpaceOnUse" x1="73.211" y1="91.4" x2="277.392" y2="265.7"><stop offset="0" stop-color="#96EC1B"/><stop offset=".439" stop-color="#61C61B"/><stop offset="1" stop-color="#2CA01C"/></linearGradient></defs><path fill="#7688A1" d="M196.359 191.487V80.927c.317-.045.623-.096.951-.096h72.032c3.607 0 6.548 2.938 6.548 6.549v166.984c0 3.609-2.941 6.548-6.548 6.548H197.31c-.324 0-.635-.051-.951-.095v-69.33zm0 78.108c.32.021.627.046.952.046h72.031c8.423 0 15.28-6.86 15.28-15.279V87.378c0-8.425-6.857-15.28-15.28-15.28H197.31c-.32 0-.631.03-.951.046V52.21L55.77 70.974v199.912l140.589 19.247v-20.538zm-29.254-91.758v47.158h-8.509v-74.497h8.509v10.388c1.339-4.434 2.195-5.293 4.304-7.767 2.123-2.474 4.461-3.699 7.011-3.699 1.981 0 3.777.49 5.373 1.47 1.597.98 2.993 2.425 4.19 4.335l-5.544 12.936c-.755-1.593-1.71-2.793-2.85-3.602-1.14-.808-2.451-1.225-3.962-1.225-2.693 0-4.788 1.299-6.285 3.846-1.482 2.573-2.237 6.125-2.237 10.657zm-21.449-57.202v104.36h-8.522v-9.55c-.855 3.699-1.682 4.626-3.649 7.1-1.966 2.499-4.375 3.749-7.24 3.749-3.177 0-5.885-1.201-8.123-3.553-2.237-2.376-3.948-5.83-5.116-10.387-1.168-4.532-1.753-9.995-1.753-16.364v-16.413c0-6.419.57-11.907 1.71-16.439 1.14-4.556 2.808-8.01 4.988-10.387 2.181-2.351 4.803-3.552 7.867-3.552 2.566 0 4.917 1.152 7.04 3.454 2.124 2.303 2.965 3.007 4.276 7.172v-39.19h8.522zM99.111 220.733c-1.596 1.739-3.378 3.061-5.373 3.968a15.08 15.08 0 01-6.328 1.372c-3.947 0-7.325-1.274-10.119-3.797-2.793-2.548-4.931-6.223-6.413-11.073-1.468-4.826-2.209-10.656-2.209-17.491v-12.274c0-6.761.741-12.518 2.209-17.295 1.482-4.802 3.62-8.452 6.413-10.951 2.794-2.523 6.172-3.772 10.119-3.772 2.252 0 4.376.465 6.37 1.396 1.996.931 3.777 2.278 5.373 4.067 1.582 1.764 2.908 3.919 3.962 6.443l-6.142 9.48c-1.226-2.401-2.651-4.238-4.304-5.536-1.639-1.274-3.349-1.936-5.13-1.936-3.278 0-5.83 1.593-7.639 4.753-1.81 3.16-2.708 7.594-2.708 13.351v12.274c0 5.879.898 10.411 2.679 13.62 1.796 3.21 4.361 4.826 7.668 4.826 1.81 0 3.534-.71 5.173-2.082 1.653-1.396 3.064-3.356 4.261-5.904l6.142 10.191c-1.083 2.499-2.422 4.606-4.004 6.37z"/><path fill="url(#bea)" fill-rule="nonzero" d="M195.511 267.899c.32.021.627.046.951.046h72.032c8.423 0 15.28-6.86 15.28-15.279V85.681c0-8.424-6.857-15.279-15.28-15.279h-72.032c-.32 0-.631.03-.951.046V50.514L54.922 69.278V269.19l140.589 19.247v-20.538zM86.562 224.377c-3.948 0-7.325-1.274-10.119-3.797-2.793-2.548-4.931-6.223-6.413-11.073-1.468-4.826-2.209-10.657-2.209-17.492v-12.273c0-6.761.741-12.518 2.209-17.295 1.482-4.802 3.62-8.452 6.413-10.951 2.794-2.523 6.171-3.773 10.119-3.773 2.252 0 4.375.466 6.37 1.397 1.996.931 3.777 2.278 5.373 4.066 1.582 1.764 2.907 3.92 3.962 6.443l-6.142 9.481c-1.226-2.401-2.651-4.238-4.304-5.537-1.639-1.273-3.349-1.935-5.131-1.935-3.278 0-5.829 1.592-7.638 4.753-1.81 3.16-2.708 7.594-2.708 13.351v12.273c0 5.879.898 10.412 2.679 13.621 1.796 3.209 4.361 4.826 7.667 4.826 1.81 0 3.535-.71 5.174-2.082 1.653-1.397 3.064-3.356 4.261-5.904l6.142 10.191c-1.083 2.498-2.422 4.606-4.004 6.369-1.597 1.739-3.378 3.062-5.373 3.969a15.098 15.098 0 01-6.328 1.372zm49.724-66.249v-39.189h8.522v104.36h-8.522v-9.55m0-17.863v-20.039m0 0c0-3.136-.328-5.855-.998-8.109-.67-2.229-1.639-3.944-2.907-5.12-1.269-1.176-2.793-1.764-4.604-1.764-2.821 0-4.988 1.519-6.541 4.532-1.539 3.013-2.308 7.251-2.308 12.69v16.218c0 5.414.769 9.603 2.308 12.542 1.553 2.94 3.72 4.41 6.541 4.41 1.811 0 3.335-.613 4.604-1.838 1.268-1.224 2.237-2.964 2.907-5.266.67-2.303.998-5.047.998-8.256m0 17.863c-.855 3.699-1.682 4.626-3.649 7.1-1.966 2.499-4.375 3.748-7.24 3.748-3.177 0-5.886-1.2-8.123-3.552-2.237-2.376-3.948-5.83-5.116-10.387-1.169-4.532-1.753-9.995-1.753-16.364V177.88c0-6.418.57-11.906 1.71-16.438 1.14-4.556 2.808-8.01 4.988-10.387 2.181-2.352 4.803-3.552 7.867-3.552 2.565 0 4.917 1.151 7.04 3.454 2.124 2.303 2.965 3.007 4.276 7.171m29.971 18.013v47.158h-8.509v-74.498h8.509v10.389m0 0c1.339-4.434 2.195-5.293 4.304-7.767 2.123-2.475 4.46-3.7 7.011-3.7 1.981 0 3.777.491 5.373 1.47 1.596.98 2.993 2.426 4.19 4.336l-5.544 12.935c-.755-1.592-1.71-2.792-2.85-3.601-1.14-.808-2.451-1.225-3.962-1.225-2.693 0-4.788 1.298-6.285 3.846-1.482 2.572-2.237 6.125-2.237 10.657m30.205-97.006h72.032c3.607 0 6.548 2.938 6.548 6.549v166.984c0 3.609-2.941 6.548-6.548 6.548h-72.032c-.324 0-.635-.051-.951-.096v-61.868a2.95 2.95 0 002.539.609l23.599-5.444a2.995 2.995 0 001.439-.793c.024-.025.045-.052.07-.068l41.427-41.412-2.724-2.72-38.696 38.692-16.949-16.951 38.696-38.696-2.724-2.716-41.414 41.412.026.03c-.429.405-.75.927-.88 1.497l-4.409 19.099V79.231c.316-.046.622-.096.951-.096zm2.863 107.096l3.434-14.883s.008-.026.019-.038l.03-.017c.023-.005.044.002.064.017l18.151 18.152c.017.017.027.048.017.06l.134.042.053.056-.237-.047-14.88 3.436-6.785-6.778z"/><path fill="#2CA01C" fill-rule="nonzero" d="M253.389 138.948l-34.741 34.745-5.593-5.594 34.741-34.741z"/></svg><svg shape-rendering="geometricPrecision" text-rendering="geometricPrecision" image-rendering="optimizeQuality" fill-rule="evenodd" clip-rule="evenodd" viewBox="0 0 300 299.999" id="iconskills--favicon" xmlns="http://www.w3.org/2000/svg"><path fill="none" stroke="#FEFEFE" stroke-width="16" stroke-miterlimit="22.926" d="M152.273 22.586h0c68.623 0 124.769 56.146 124.769 124.769v1.119c0 68.623-56.146 124.768-124.769 124.768h0c-68.622 0-124.768-56.145-124.768-124.768v-1.119c0-68.623 56.146-124.769 124.768-124.769z"/><rect fill="none" stroke="#2E3843" stroke-width="16" stroke-miterlimit="22.926" x="37.105" y="32.186" width="230.337" height="231.456" rx="103.359" ry="156.82"/><path fill="none" stroke="#E73845" stroke-width="20" stroke-miterlimit="22.926" d="M-172.452 54.622c15.009-10.983 33.475-17.489 53.39-17.489s38.381 6.506 53.39 17.489m3.292 144.902c-15.56 12.506-35.285 20.014-56.682 20.014-21.397 0-41.122-7.508-56.681-20.014"/><path fill="#1C3557" stroke="#1C3557" stroke-width=".756" stroke-miterlimit="22.926" d="M156.851 440.248h-9.935v-16.767h12.435c17.427 0 22.409 1.536 24.312 2.276 6.164 2.397 11.916 3.952 16.402 7.305 6.814 5.23 12.155 12.416 16.093 21.518 3.904 9.142 5.856 19.122 5.856 29.941 0 11.537-1.918 21.916-5.753 31.179-3.869 9.221-9.245 16.487-16.196 21.796-4.349 3.274-9.76 5.669-16.265 7.226-6.472 1.557-14.622 2.356-24.449 2.356h-58.348v-17.214h17.787v-.032h38.061c17.19 0 29.346-3.514 36.434-10.54 7.088-6.986 10.649-18.603 10.649-34.851 0-15.649-4.257-26.346-10.855-33.853-5.595-6.367-13.135-10.34-36.228-10.34z"/><path fill="#1C3557" fill-rule="nonzero" d="M118.896 423.011v106.821h-17.804v-45.786l-66.659 45.786H8.349l77.459-51.134-85.947-55.687h29.845l71.386 47.993v-47.993z"/><path fill="none" stroke="#1C3557" stroke-width=".288" stroke-miterlimit="22.926" d="M118.896 423.011v106.821h-17.804v-45.786l-66.659 45.786H8.349l77.459-51.134-85.947-55.687h29.845l71.386 47.993v-47.993z"/><path fill="#2E3843" d="M476.515-78.944c-6.368 9.685-11.296 22.442-15.521 35.6 38.067 5.261 74.791 20.037 84.895 60.146 3.644 14.469 1.918 26.588-4.836 34.637l-17.686 21.077c-5.672 6.76-14.889 10.649-27.448 10.649-23.551 0-45.477-35.559-62.126-35.671-6.88 15.129-12.65 22.83-14.989 25.618L401.118 94.19l-1.005 1.136c9.965-19.848 22.906-50.301 27.324-66.674 3.038-11.261 8.479-26.528 13.275-42.532.838-2.796 1.701-5.6 2.596-8.386-16.38-2.265-33.008-2.769-47.871-2.769l17.686-21.078c12.029 0 25.215.332 38.488 1.658 2.194-4.87 4.583-9.404 7.217-13.411l17.687-21.078zm-22.624 58.411c-3.4 10.568-6.662 20.3-8.768 28.108-2.428 8.998-7.431 22.251-13.1 35.658l10.035-11.959c17.272-20.583 43.236 30.813 71.547 30.813 6.032 0 11.292-.898 15.759-2.578 1.228-6.29.862-13.598-1.161-21.63-9.162-36.372-40.218-51.909-74.312-58.412z"/><path fill="none" d="M467.672-68.405c-7.716 11.736-13.32 27.982-18.117 43.987-4.797 16.004-10.237 31.27-13.275 42.531-4.418 16.373-17.359 46.826-27.324 66.675 1.052-1.104 9.347-10.283 19.064-33.849 16.985-41.191 45.427 21.687 76.743 21.687 27.512 0 38.988-18.664 32.283-45.286-14.451-57.367-83.361-62.914-132.766-62.914"/><path fill="#E73845" d="M527.352-34.044c-11.004-7.847-20.941-7.822-31.461.673a205.28 205.28 0 00-2.048 3.197c-8.309 13.235-10.351 17.664-12.979 20.795L463.18 11.696c-1.857 2.213-4.005 3.777-8.866 7.343-.629.461-1.398.931-2.275 1.405 2.982.594 6.592 1.168 10.918 1.719 28.421 3.622 2.637 60.099 16.771 74.257 7.7 7.712 23.237 9.044 48.894-5.62 20.28-11.59 24.796-15.119 42.432-30.274L553.37 81.6c-17.636 15.156-22.152 18.684-42.432 30.275-25.657 14.664-41.194 13.332-48.894 5.619-14.133-14.158 11.65-70.635-16.771-74.256-20.586-2.624-25.024-5.76-22.241-9.077l17.684-21.074c4.131-4.924 24.173-10.245 30.933-14.876 1.265-2.088 2.746-4.5 4.51-7.31 3.878-6.177 7.587-11.399 11.186-15.688l17.684-21.075c13.856-16.513 26.077-19.19 40.006-9.257l-17.683 21.075z"/><path fill="none" d="M536.194-44.581c-17.548-12.514-32.383-5.015-51.193 24.944C470.819 2.953 474.893-.11 463.156 8.502c-10.619 7.791-60.727 17.612-9.041 24.198 28.421 3.622 2.638 60.099 16.771 74.257 7.7 7.712 23.237 9.044 48.894-5.62 20.279-11.59 24.796-15.119 42.432-30.274"/><path fill="#2E3843" d="M170.582 157.004l44.311-48.908a12.973 12.973 0 012.249-2.203 13.815 13.815 0 012.833-1.439c1.079-.405 2.383-.675 3.867-.81 1.484-.134 3.283-.179 5.397-.179 2.203 0 4.047.045 5.531.179 1.484.135 2.698.36 3.597.675.899.315 1.574.719 1.979 1.169.405.495.585 1.125.585 1.934 0 1.034-.27 2.113-.855 3.148-.585 1.079-1.484 2.293-2.833 3.687l-42.721 42.99 48.117 62.596c1.124 1.529 1.934 2.698 2.429 3.643.494.944.719 1.798.719 2.563 0 .72-.18 1.349-.54 1.844-.359.539-.944.989-1.754 1.349-.854.314-2.023.584-3.507.764-1.484.18-3.373.27-5.666.27-2.339 0-4.317-.045-5.846-.18s-2.833-.36-3.867-.675c-1.08-.314-1.934-.764-2.564-1.303a10.11 10.11 0 01-1.798-2.069l-49.663-65.205v-3.84z"/><path fill="#E73845" fill-rule="nonzero" d="M168.732 224.968c0 .72-.135 1.304-.45 1.844-.315.539-.854.944-1.574 1.259-.764.315-1.754.54-2.968.72-1.259.18-2.743.27-4.496.27-1.844 0-3.373-.09-4.587-.27-1.259-.18-2.249-.405-3.058-.72-.764-.315-1.349-.72-1.709-1.259a3.644 3.644 0 01-.495-1.844v-15.784c-6.25 6.791-12.726 12.052-19.426 15.829-6.745 3.778-14.075 5.666-22.08 5.666-8.679 0-16.098-1.708-22.214-5.081-6.161-3.373-11.153-7.96-14.975-13.716-3.777-5.756-6.565-12.501-8.319-20.28-1.754-7.78-2.653-15.964-2.653-24.553 0-10.208 1.079-19.427 3.283-27.611 2.203-8.229 5.441-15.245 9.758-21.045 4.272-5.801 9.623-10.253 16.009-13.356 6.34-3.103 13.67-4.677 22.034-4.677 6.926 0 13.266 1.529 19.022 4.542 5.756 3.058 11.422 7.51 17.043 13.401V49.545c0-.629.135-1.214.45-1.798.315-.585.899-.989 1.798-1.304.855-.315 1.979-.585 3.328-.81 1.394-.225 3.103-.315 5.217-.315 2.203 0 4.002.09 5.396.315 1.394.225 2.518.495 3.283.81.809.315 1.394.719 1.798 1.304.405.584.585 1.169.585 1.798v175.423zm-21.855-83.506c-5.846-7.33-11.512-12.907-16.998-16.729-5.486-3.822-11.197-5.756-17.133-5.756-5.531 0-10.208 1.304-14.075 3.957-3.868 2.654-6.97 6.116-9.399 10.433-2.383 4.272-4.137 9.174-5.216 14.615-1.124 5.441-1.664 10.972-1.664 16.593 0 5.981.45 11.827 1.394 17.538.9 5.711 2.518 10.793 4.767 15.244 2.293 4.452 5.306 8.005 9.084 10.703 3.732 2.653 8.499 4.002 14.164 4.002 2.879 0 5.667-.404 8.365-1.169 2.653-.809 5.396-2.113 8.184-3.957 2.788-1.844 5.756-4.227 8.814-7.195 3.058-2.923 6.296-6.521 9.713-10.838v-47.441z"/><path fill="none" d="M99.067 115.734l27 8.208v12.856M126.067 136.798v12.855l55.167-60.889a15.967 15.967 0 012.778-2.722 17.18 17.18 0 013.499-1.777c1.334-.5 2.945-.834 4.778-1 1.834-.167 4.056-.223 6.667-.223 2.722 0 5 .056 6.833.223 1.834.166 3.333.444 4.445.833 1.111.389 1.944.889 2.444 1.444.5.612.722 1.389.722 2.389 0 1.278-.333 2.611-1.055 3.889-.722 1.333-1.834 2.833-3.5 4.556l-52.778 53.111 59.444 77.333c1.389 1.889 2.389 3.333 3 4.5.612 1.167.889 2.222.889 3.167 0 .889-.222 1.666-.666 2.277-.445.667-1.167 1.223-2.167 1.667-1.056.389-2.5.722-4.333.945-1.834.222-4.167.333-7 .333-2.889 0-5.334-.056-7.223-.222-1.889-.167-3.5-.445-4.777-.834-1.334-.389-2.389-.944-3.167-1.611a12.442 12.442 0 01-2.222-2.555l-61.778-81.112v9.537M126.067 162.912v3.399l-27 8.883"/></svg><svg shape-rendering="geometricPrecision" text-rendering="geometricPrecision" image-rendering="optimizeQuality" fill-rule="evenodd" clip-rule="evenodd" viewBox="0 0 340 340" id="iconskills--figma" xmlns="http://www.w3.org/2000/svg"><path fill="#CCC" fill-rule="nonzero" d="M84.619 97.156c0-24.377 19.761-44.139 44.138-44.139h75.737c24.376 0 44.138 19.762 44.138 44.139 0 15.436-7.923 29.021-19.925 36.91 12.002 7.889 19.925 21.474 19.925 36.91 0 24.377-19.762 44.138-44.138 44.138h-.959c-11.428 0-21.842-4.343-29.681-11.469v40.669c0 24.702-20.278 44.618-44.859 44.618-24.316 0-44.376-19.701-44.376-44.138 0-15.435 7.922-29.02 19.923-36.909-12.001-7.889-19.923-21.475-19.923-36.909 0-15.436 7.923-29.021 19.925-36.91-12.002-7.889-19.925-21.474-19.925-36.91zm74.778 44.139h-30.64c-16.392 0-29.68 13.289-29.68 29.681 0 16.329 13.186 29.578 29.491 29.68l.189-.001h30.64v-59.36zm14.457 29.681c0 16.392 13.289 29.68 29.681 29.68h.959c16.392 0 29.68-13.288 29.68-29.68s-13.288-29.681-29.68-29.681h-.959c-16.392 0-29.681 13.289-29.681 29.681zm-45.097 44.138h-.189c-16.305.102-29.491 13.351-29.491 29.68 0 16.332 13.466 29.68 29.918 29.68 16.718 0 30.402-13.563 30.402-30.16v-29.2h-30.64zm0-147.639c-16.392 0-29.68 13.289-29.68 29.681 0 16.392 13.288 29.68 29.68 29.68h30.64V67.475h-30.64zm45.097 59.361h30.64c16.392 0 29.68-13.288 29.68-29.68s-13.288-29.681-29.68-29.681h-30.64v59.361z"/><path fill="#E33500" d="M128.648 60.719c-20.123 0-36.437 16.313-36.437 36.437 0 20.123 16.314 36.437 36.437 36.437h37.614V60.719h-37.614z"/><path fill="#F3501E" d="M128.757 67.475c-16.392 0-29.681 13.289-29.681 29.681 0 16.392 13.289 29.681 29.681 29.681h30.64V67.475h-30.64z"/><path fill="#FC5441" d="M166.989 60.719v72.874h37.613c20.124 0 36.437-16.314 36.437-36.437 0-20.124-16.313-36.437-36.437-36.437h-37.613z"/><path fill="#FF6F5E" d="M173.854 67.475v59.362h30.639c16.393 0 29.681-13.289 29.681-29.681 0-16.392-13.288-29.681-29.681-29.681h-30.639z"/><path fill="#37ADDB" d="M203.43 134.812c-19.973 0-36.163 16.191-36.163 36.164 0 19.972 16.19 36.163 36.163 36.163h1.168c19.973 0 36.164-16.191 36.164-36.163 0-19.973-16.191-36.164-36.164-36.164h-1.168z"/><path fill="#54CBFA" d="M203.535 141.295c-16.393 0-29.681 13.289-29.681 29.681 0 16.392 13.288 29.68 29.681 29.68h.958c16.393 0 29.681-13.288 29.681-29.68s-13.288-29.681-29.681-29.681h-.958z"/><path fill="#8855CF" d="M166.488 207.634v-73.318h-37.843c-20.247 0-36.66 16.414-36.66 36.66 0 20.168 16.287 36.532 36.426 36.658H166.488z"/><path fill="#A569F9" d="M159.397 200.655v-59.36h-30.64c-16.392 0-29.681 13.289-29.681 29.681 0 16.329 13.187 29.578 29.492 29.68l.189-.001h30.64z"/><path fill="#13BF7D" d="M166.488 208.135H128.411c-20.139.126-36.426 16.49-36.426 36.659 0 20.172 16.633 36.659 36.953 36.659 20.649 0 37.55-16.752 37.55-37.251v-36.067z"/><path fill="#14D088" d="M159.397 215.114h-30.829c-16.305.101-29.492 13.351-29.492 29.68 0 16.332 13.467 29.681 29.919 29.681 16.718 0 30.402-13.564 30.402-30.161v-29.2z"/></svg><svg shape-rendering="geometricPrecision" text-rendering="geometricPrecision" image-rendering="optimizeQuality" fill-rule="evenodd" clip-rule="evenodd" viewBox="0 0 340 340" id="iconskills--git" xmlns="http://www.w3.org/2000/svg"><defs><linearGradient id="bha" gradientUnits="userSpaceOnUse" x1="104.123" y1="230.767" x2="233.198" y2="101.683"><stop offset="0" stop-color="#F34C28"/><stop offset="1" stop-color="#FB4F28"/></linearGradient></defs><path fill="url(#bha)" fill-rule="nonzero" d="M288.435 156.915L181.221 49.709c-6.17-6.175-16.185-6.175-22.363 0l-22.263 22.263 28.242 28.242c6.563-2.218 14.088-.731 19.321 4.502 5.256 5.265 6.733 12.854 4.461 19.439l27.218 27.218c6.585-2.269 14.183-.8 19.442 4.467 7.35 7.347 7.35 19.256 0 26.609-7.352 7.353-19.261 7.353-26.617 0-5.528-5.534-6.895-13.655-4.095-20.466L179.184 136.6l-.003 66.797a19.018 19.018 0 014.977 3.559c7.35 7.347 7.35 19.256 0 26.614-7.353 7.351-19.267 7.351-26.609 0-7.35-7.358-7.35-19.267 0-26.614a18.872 18.872 0 016.159-4.106v-67.42a18.578 18.578 0 01-6.159-4.105c-5.569-5.561-6.908-13.733-4.055-20.571l-27.837-27.843-73.514 73.508c-6.178 6.181-6.178 16.196 0 22.371l107.213 107.209c6.173 6.175 16.185 6.175 22.366 0l106.713-106.71c6.175-6.178 6.175-16.198 0-22.374z"/></svg><svg shape-rendering="geometricPrecision" text-rendering="geometricPrecision" image-rendering="optimizeQuality" fill-rule="evenodd" clip-rule="evenodd" viewBox="0 0 340 340" id="iconskills--gulp" xmlns="http://www.w3.org/2000/svg"><g fill-rule="nonzero"><path fill="#D34A47" d="M202.643 302.148l2.71-45.164 7.484-12.775s-17.033 6.968-45.55 6.968c-28.517 0-45.292-6.839-45.292-6.839l8.387 13.936 2.967 43.874c0 4.703 15.512 8.516 34.647 8.516 19.135 0 34.647-3.813 34.647-8.516zM194.093 91.243l5.689-22.486 31.505-33.15-8.304-7.073-33.354 35.313-6.605 26.866c-4.786-.162-9.78-.248-14.919-.248-35.127 0-63.604 4.003-63.604 8.94 0 4.938 28.477 8.941 63.604 8.941 35.127 0 63.603-4.003 63.603-8.941 0-3.635-15.444-6.765-37.615-8.162z"/><path fill="#fff" d="M190.784 103.836s-1.232.276-4.856.292c-3.626.015-6.199-.024-7.225-.958-.275-.25-.426-.748-.425-1.086.003-.641.459-1.019 1.039-1.256l.549.861c-.239.082-.375.18-.376.284-.002.487 3.707.821 6.544.785 2.837-.035 6.265-.269 6.268-.749 0-.146-.259-.282-.71-.39l.546-.856c.735.229 1.377.67 1.376 1.433-.008 1.297-1.658 1.495-2.73 1.64z"/><path fill="#D34A47" d="M231.225 35.672c.792-.915-.41-3.255-2.685-5.226-2.276-1.971-4.763-2.827-5.557-1.912-.793.915.41 3.256 2.686 5.226 2.275 1.971 4.763 2.827 5.556 1.912zM201.128 191.832c-.747-7.183 15.713-17.587 11.489-17.92-9.094.52-13.62 10.657-18.195 21.273-1.677 3.891-7.413 20.483-11.176 18.441-3.762-2.042 4.877-15.686 7.298-23.789-2.794 2.049-13.039 10.009-15.68 2.554-4.245 3.606-13.316 5.559-12.293-3.911-2.258 4-7.327 9.585-13.411 7.264-7.99-3.047 4.63-28.498 7.768-27.214 3.138 1.284-.634 7.081-1.621 9.333-2.173 4.955-4.682 11.183-3.006 12.458 2.872 2.185 10.688-8.264 10.862-8.493 1.462-1.932 5.627-14.567 8.983-13.116 3.357 1.451-8.372 18.133-3.987 21.444.885.668 4.504-.412 6.705-2.794 1.424-1.54.935-4.953 5.682-16.276 4.749-11.322 8.98-25.423 12.236-24.349 3.257 1.074.573 8.311-.595 11.009-5.482 12.662-14.961 33.582-10.491 31.998 4.471-1.583 6.798-1.676 11.176-6.799 4.377-5.122 4.175-13.56 7.093-13.381 2.919.18 2.429 2.886 1.721 4.946 2.872-3.287 13.612-10.208 16.206-3.353 3.071 8.115-15.367 19.837-10.77 19.239 4.482-.583 11.744-5.181 14.844-9.364l8.534-76.724s-8.587 7.107-63.221 7.107c-54.635 0-62.334-6.959-62.334-6.959l7.266 70.031c3.856-10.961 13.014-33.131 27.45-32.387 6.566.339 15.332 12.983 7.823 13.411-3.178.181-3.501-6.311-7.264-7.265-2.716-.688-6.497 1.52-8.941 3.912-4.874 4.77-15.355 23.588-13.97 32.969 1.764 11.961 16.505-4.156 18.999-8.941 1.756-3.371 2.943-13.357 6.785-12.309s-.335 11.354-3.12 20.466c-3.129 10.232-4.773 21.024-8.694 19.783-3.922-1.241 2.466-14.449 2.235-16.764-3.686 3.401-10.476 12.01-19.163 7.749l4.512 43.489s11.993 9.475 48.12 9.475c36.126 0 48.563-9.327 48.563-9.327l5.603-50.371c-4.584 4.464-19.092 12.391-20.021 3.455z"/></g></svg><svg shape-rendering="geometricPrecision" text-rendering="geometricPrecision" image-rendering="optimizeQuality" fill-rule="evenodd" clip-rule="evenodd" viewBox="0 0 340 340" id="iconskills--html5" xmlns="http://www.w3.org/2000/svg"><g fill-rule="nonzero"><path fill="#E34E26" d="M70.673 278.467L48.527 30.056h243.237l-22.173 248.431-99.504 27.583z"/><path fill="#EF662A" d="M170.146 54.818v225.725l77.414-21.459 18.239-204.266z"/><path fill="#fff" d="M96.728 84.135l7.902 88.644h101.601l-3.41 38.022-32.713 8.844-32.651-8.831-2.183-24.414h-29.425l4.208 47.062 60.044 16.676 60.119-16.676 8.06-89.992H131.44l-2.683-30.019H240.937l2.626-29.316z"/><path fill="#EBEBEB" d="M170.146 84.135H96.728l7.902 88.644h65.516V143.47H131.44l-2.683-30.019h41.389zM170.146 219.632l-.038.013-32.651-8.831-2.183-24.414h-29.425l4.208 47.062 60.044 16.676.045-.013z"/></g></svg><svg shape-rendering="geometricPrecision" text-rendering="geometricPrecision" image-rendering="optimizeQuality" fill-rule="evenodd" clip-rule="evenodd" viewBox="0 0 340 340" id="iconskills--js3" xmlns="http://www.w3.org/2000/svg"><g fill-rule="nonzero"><path fill="#D99A26" d="M169.829 308.612L69.634 280.791 47.299 30.337h245.357l-22.335 250.419z"/><path fill="#E7B623" d="M245.902 258.609l17.861-200.081h-93.779v221.13z"/><path fill="#FEFEFE" d="M175.181 87.252v28.715l64.2-1.403 2.444-27.312zM228.904 145.385h-53.723V174.1l36.629-2.387-3.311 38.464-33.318 8.384v29.851l53.573-14.863.434-4.845 6.754-75.613.693-7.706z"/><path fill="#FEFEFE" d="M198.897 160.112h-23.716V101.61h26.356z"/><path fill="#F0F0F0" d="M163.853 218.349l-37.156-10.544-1.186-16.069L107 188.458l4.019 45.091 52.834 14.666z"/><path fill="#F0F0F0" d="M163.853 87.252h-24.398l5.071 147.172h19.327z"/></g></svg><svg shape-rendering="geometricPrecision" text-rendering="geometricPrecision" image-rendering="optimizeQuality" fill-rule="evenodd" clip-rule="evenodd" viewBox="0 0 340 340" id="iconskills--sass" xmlns="http://www.w3.org/2000/svg"><circle fill="#F2F2F2" cx="169.653" cy="169.772" r="132.248"/><path fill="#CD6699" fill-rule="nonzero" d="M253.785 182.381c-7.835.041-14.644 1.928-20.346 4.717-2.092-4.143-4.185-7.835-4.553-10.542-.411-3.159-.903-5.087-.411-8.861.492-3.774 2.708-9.147 2.667-9.557-.041-.411-.493-2.339-5.005-2.38-4.512-.041-8.409.862-8.861 2.051-.451 1.19-1.312 3.897-1.886 6.687-.78 4.102-9.025 18.746-13.742 26.417-1.518-2.995-2.831-5.62-3.118-7.712-.41-3.158-.902-5.086-.41-8.86.492-3.774 2.707-9.148 2.666-9.558-.041-.41-.492-2.338-5.004-2.379-4.513-.041-8.41.861-8.861 2.051-.451 1.189-.943 3.979-1.887 6.686-.943 2.708-11.895 27.156-14.767 33.473a189.701 189.701 0 01-3.651 7.589s-.041.123-.164.328c-.78 1.518-1.231 2.338-1.231 2.338v.041c-.615 1.108-1.271 2.133-1.599 2.133-.247 0-.698-2.954.081-6.974 1.641-8.491 5.538-21.699 5.497-22.151 0-.246.739-2.543-2.543-3.732-3.2-1.19-4.348.779-4.635.779-.287 0-.492.697-.492.697s3.568-14.849-6.81-14.849c-6.481 0-15.424 7.096-19.854 13.496a5395.547 5395.547 0 00-15.096 8.245c-2.42 1.353-4.922 2.707-7.26 3.979-.164-.164-.329-.369-.492-.533-12.553-13.414-35.77-22.89-34.786-40.898.369-6.563 2.625-23.792 44.59-44.712 34.539-17.024 62.023-12.307 66.781-1.846 6.809 14.931-14.726 42.661-50.414 46.681-13.619 1.518-20.757-3.733-22.562-5.702-1.886-2.051-2.174-2.174-2.871-1.764-1.149.616-.41 2.462 0 3.528 1.067 2.789 5.456 7.712 12.881 10.132 6.563 2.133 22.52 3.323 41.841-4.143 21.617-8.368 38.518-31.627 33.554-51.112-4.963-19.772-37.78-26.294-68.832-15.259-18.459 6.563-38.478 16.9-52.876 30.355-17.105 15.998-19.813 29.904-18.705 35.729 3.979 20.674 32.488 34.129 43.892 44.097-.574.328-1.108.616-1.559.862-5.702 2.83-27.443 14.193-32.858 26.212-6.153 13.619.985 23.382 5.702 24.694 14.645 4.061 29.699-3.24 37.78-15.301 8.082-12.06 7.097-27.73 3.364-34.908a.858.858 0 00-.164-.246c1.477-.862 2.994-1.764 4.471-2.626a220.382 220.382 0 018.245-4.635c-1.395 3.815-2.42 8.368-2.912 14.931-.615 7.713 2.543 17.722 6.686 21.659 1.846 1.724 4.02 1.764 5.415 1.764 4.841 0 7.014-4.02 9.435-8.778 2.953-5.825 5.62-12.593 5.62-12.593s-3.323 18.295 5.701 18.295c3.282 0 6.605-4.266 8.081-6.44v.041s.082-.124.247-.411c.328-.533.533-.861.533-.861v-.082c1.313-2.297 4.266-7.507 8.655-16.162 5.661-11.158 11.117-25.105 11.117-25.105s.492 3.405 2.174 9.066c.985 3.322 3.035 6.973 4.676 10.501-1.313 1.846-2.133 2.871-2.133 2.871l.041.042c-1.066 1.394-2.215 2.912-3.487 4.389-4.471 5.333-9.803 11.445-10.542 13.208-.861 2.092-.656 3.61.985 4.841 1.189.902 3.322 1.025 5.496.902 4.021-.287 6.851-1.271 8.246-1.887 2.174-.779 4.717-1.969 7.096-3.733 4.389-3.24 7.056-7.875 6.81-13.987-.123-3.364-1.231-6.728-2.585-9.887.41-.574.78-1.148 1.19-1.722 6.933-10.132 12.306-21.249 12.306-21.249s.492 3.404 2.174 9.065c.82 2.872 2.502 5.99 3.979 9.025-6.522 5.292-10.542 11.445-11.978 15.465-2.584 7.466-.574 10.829 3.241 11.609 1.723.369 4.184-.452 5.989-1.231 2.297-.738 5.004-2.01 7.589-3.897 4.389-3.24 8.614-7.753 8.368-13.865-.123-2.789-.861-5.538-1.887-8.204 5.538-2.298 12.675-3.569 21.782-2.502 19.526 2.297 23.381 14.48 22.643 19.607-.738 5.128-4.84 7.917-6.194 8.779-1.353.861-1.805 1.148-1.682 1.764.165.902.821.861 1.969.697 1.6-.287 10.255-4.143 10.625-13.578.615-12.06-10.871-25.227-31.176-25.104zm-150.628 50.783c-6.481 7.056-15.505 9.722-19.403 7.466-4.183-2.42-2.543-12.839 5.415-20.306 4.84-4.552 11.076-8.777 15.219-11.362.943-.574 2.338-1.395 4.02-2.42.287-.164.451-.246.451-.246l.984-.616c2.913 10.666.124 20.059-6.686 27.484zm47.174-32.078c-2.256 5.497-6.974 19.567-9.845 18.788-2.461-.657-3.979-11.322-.492-21.864 1.763-5.292 5.496-11.609 7.67-14.07 3.528-3.939 7.425-5.251 8.369-3.651 1.189 2.092-4.307 17.351-5.702 20.797zm38.929 18.624c-.944.492-1.846.82-2.257.574-.287-.164.411-.821.411-.821s4.881-5.25 6.809-7.629c1.107-1.395 2.42-3.036 3.815-4.882v.533c0 6.276-6.071 10.501-8.778 12.225zm30.027-6.851c-.698-.492-.575-2.133 1.764-7.261.902-2.01 3.035-5.373 6.686-8.614.41 1.313.697 2.584.656 3.774-.041 7.917-5.702 10.871-9.106 12.101z"/></svg><svg shape-rendering="geometricPrecision" text-rendering="geometricPrecision" image-rendering="optimizeQuality" fill-rule="evenodd" clip-rule="evenodd" viewBox="0 0 340 340" id="iconskills--svg" xmlns="http://www.w3.org/2000/svg"><defs><linearGradient id="bma" gradientUnits="userSpaceOnUse" x1="260.735" y1="67.72" x2="149.043" y2="169.471"><stop offset="0" stop-color="#666"/><stop offset=".702" stop-color="#333"/><stop offset="1"/></linearGradient><linearGradient id="bmb" gradientUnits="userSpaceOnUse" x1="168.817" y1="153.798" x2="251.828" y2="66.88"><stop offset="0" stop-color="#CFCFCF"/><stop offset=".369" stop-color="#9B9B9B"/><stop offset="1" stop-color="#666"/></linearGradient></defs><g fill-rule="nonzero"><path fill="url(#bma)" d="M278.313 190.636c12.762-12.762 12.762-33.528 0-46.29-6.182-6.182-14.402-9.586-23.145-9.586-2.075 0-4.119.189-6.113.562 8.688-5.943 14.317-15.934 14.317-27.046 0-18.048-14.683-32.731-32.731-32.731-11.133 0-21.143 5.652-27.081 14.369 1.965-10.363-1.117-21.438-8.989-29.31-6.182-6.182-14.401-9.587-23.145-9.587-8.742 0-16.963 3.405-23.144 9.587-7.873 7.872-10.954 18.948-8.989 29.31-5.938-8.717-15.948-14.369-27.081-14.369-18.049 0-32.732 14.683-32.732 32.731 0 11.112 5.629 21.103 14.317 27.046a33.219 33.219 0 00-6.113-.562c-8.743 0-16.962 3.405-23.144 9.586-6.182 6.183-9.587 14.403-9.587 23.145 0 8.743 3.405 16.963 9.587 23.145 6.182 6.182 14.402 9.587 23.144 9.587 2.076 0 4.119-.19 6.113-.563-8.688 5.943-14.317 15.935-14.317 27.046 0 18.048 14.683 32.731 32.732 32.731 11.133 0 21.143-5.652 27.081-14.369-1.965 10.363 1.117 21.438 8.989 29.311 6.182 6.181 14.402 9.586 23.144 9.586 8.744 0 16.963-3.405 23.145-9.587 7.872-7.872 10.954-18.948 8.989-29.31 5.938 8.717 15.948 14.369 27.081 14.369 18.048 0 32.731-14.683 32.731-32.731 0-11.111-5.629-21.103-14.316-27.046 1.993.373 4.037.563 6.112.563 8.743 0 16.963-3.405 23.145-9.587z"/><path fill="url(#bmb)" d="M268.437 154.217c-7.331-7.331-19.218-7.331-26.549 0h-38.421l27.168-27.168c10.368 0 18.773-8.405 18.773-18.773s-8.405-18.772-18.773-18.772-18.773 8.404-18.773 18.772l-27.167 27.168V97.023c7.33-7.331 7.33-19.217-.001-26.548-7.331-7.331-19.217-7.331-26.548 0-7.331 7.331-7.331 19.217 0 26.548v38.421l-27.168-27.168c0-10.368-8.405-18.772-18.773-18.772-10.367 0-18.772 8.404-18.772 18.772 0 10.368 8.405 18.773 18.772 18.773l27.168 27.168h-38.421c-7.331-7.331-19.217-7.331-26.548 0-7.332 7.331-7.332 19.217 0 26.549 7.331 7.331 19.217 7.331 26.548 0h38.421l-27.168 27.168c-10.367 0-18.772 8.404-18.772 18.772 0 10.368 8.405 18.773 18.772 18.773 10.368 0 18.773-8.405 18.773-18.773l27.168-27.168v38.421c-7.331 7.332-7.331 19.218 0 26.549 7.331 7.331 19.218 7.331 26.549 0 7.33-7.331 7.33-19.217 0-26.549v-38.421l27.167 27.168c0 10.368 8.405 18.773 18.773 18.773s18.773-8.405 18.773-18.773-8.405-18.772-18.773-18.772l-27.168-27.168h38.421c7.331 7.331 19.218 7.331 26.549 0 7.331-7.332 7.331-19.218 0-26.549z"/></g><rect fill="#FFB13B" stroke="#1A1A1A" stroke-width="10" stroke-miterlimit="22.926" x="59.291" y="167.007" width="224.039" height="117.442" rx="10.751" ry="13.908"/><g fill="#1A1A1A"><path d="M119.725 213.819c3.675.716 6.938 2.541 9.013 5.992 2.752 4.578 3.052 12.042 3.052 17.257v8.772c0 5.191-.287 12.717-2.984 17.293-2.791 4.737-7.816 6.424-13.087 6.424H88.473c-5.292 0-10.33-1.693-13.132-6.448-2.714-4.604-3.014-12.047-3.014-17.269v-5.718l13.692-5.293c-3.664-.741-6.902-2.587-8.932-6.083-2.66-4.582-2.951-12.031-2.951-17.213v-6.781c0-5.178.294-12.611 2.951-17.189 2.778-4.784 7.821-6.478 13.12-6.478h24.848c5.221 0 10.159 1.66 13.033 6.257 2.749 4.4 3.16 11.014 3.16 16.074v4.936l-11.523 5.467zm-5.603-11.716h-22.59v11.348h22.59v-11.348zm-24.128 33.121v13.013h24.309v-13.012H90.207l-.213-.001zm79.95-1.504l15.938-52.635h18.701l-27.69 88.472h-14.16l-28.887-88.472h19.404l16.694 52.635zm81.739-18.302h17.603v30.447c0 5.217-.304 12.645-3.014 17.244-2.808 4.762-7.867 6.448-13.163 6.448h-30.186c-5.314 0-10.406-1.701-13.194-6.502-2.677-4.609-2.983-11.977-2.983-17.19v-41.113c0-5.213.305-12.555 2.983-17.164 2.788-4.801 7.88-6.503 13.194-6.503h30.186c5.233 0 10.207 1.648 13.065 6.286 2.745 4.457 3.112 11.392 3.112 16.499v5.673l-17.603 5.875zm-.608-13.315h-26.118v46.134h26.118V235.83h-18.908v-20.412h18.908v-13.315z"/><path d="M119.727 213.819c1.92.374 3.728 1.052 5.311 2.104 1.448.962 2.71 2.24 3.7 3.888 1.375 2.288 2.139 5.3 2.558 8.39.419 3.089.495 6.26.495 8.867v8.772c0 2.596-.072 5.775-.481 8.877-.409 3.103-1.155 6.129-2.503 8.417-1.306 2.215-3.1 3.763-5.18 4.784-2.366 1.161-5.102 1.64-7.908 1.64H88.473c-2.817 0-5.561-.48-7.935-1.645-2.087-1.025-3.887-2.58-5.198-4.804-1.356-2.301-2.11-5.314-2.524-8.402-.414-3.089-.49-6.256-.49-8.867v-5.718h.001l13.691-5.293c-1.916-.388-3.717-1.078-5.288-2.148a11.965 11.965 0 01-3.643-3.934c-1.33-2.291-2.069-5.3-2.474-8.382-.405-3.083-.477-6.241-.477-8.832v-6.781c0-2.589.073-5.742.478-8.819.406-3.078 1.144-6.082 2.473-8.37 1.298-2.236 3.092-3.798 5.175-4.826 2.373-1.172 5.123-1.653 7.945-1.653h24.848c2.771 0 5.462.468 7.807 1.594 2.074.996 3.878 2.507 5.226 4.664 1.374 2.2 2.165 4.954 2.611 7.79.446 2.835.549 5.754.549 8.284v4.937l-11.521 5.466zm-5.605-11.716h-22.59v11.348h22.59v-11.348zm-24.128 33.121v13.013h24.309v-13.012H90.207l-.213-.001zm161.081-33.121h-26.118v46.134h26.118V235.83h-18.908v-20.412h18.908v-13.315zm-120.397-7.099l-.001-.01-.041-.244a2.285 2.285 0 01-.006-.034l-.038-.222-.009-.051-.038-.207-.011-.062-.038-.198-.014-.069-.038-.192-.015-.071a62.367 62.367 0 00-.039-.19l-.015-.071-.042-.191c-.005-.023-.011-.045-.015-.068l-.045-.194-.014-.062-.048-.2-.014-.054-.051-.207-.012-.046a16.86 16.86 0 00-.056-.214l-.01-.037-.06-.222-.008-.026-.065-.231-.005-.017-.071-.238-.003-.008c-.403-1.33-.919-2.586-1.578-3.71l-.003-.004a13.171 13.171 0 00-.119-.2l-.009-.015-.059-.097-.055-.085-.022-.034-.11-.169-.022-.034-.113-.166-.021-.031c-.098-.141-.198-.28-.301-.416l-.023-.032-.114-.147-.032-.041-.113-.141-.036-.043-.113-.136-.038-.045-.114-.132-.04-.045a14.534 14.534 0 00-.114-.127l-.045-.049a4.286 4.286 0 00-.112-.12l-.057-.06c-.034-.035-.068-.071-.103-.105a6.576 6.576 0 00-.083-.085l-.097-.095-.068-.066-.106-.1-.062-.058-.108-.098-.063-.057-.107-.095-.069-.059-.104-.088-.078-.064a3.708 3.708 0 00-.097-.079l-.099-.08a7.696 7.696 0 00-.185-.142l-.071-.054-.112-.082a4.861 4.861 0 00-.185-.133l-.076-.053-.113-.077-.083-.055a7.042 7.042 0 00-.111-.073l-.082-.052-.118-.075-.075-.046-.133-.081a4.593 4.593 0 00-.194-.113l-.062-.035-.135-.075a9.102 9.102 0 00-.26-.14l-.14-.071a5.722 5.722 0 00-.204-.101l-.088-.042-.11-.053-.101-.046-.108-.048-.1-.045-.112-.048-.095-.04-.12-.049-.104-.042-.056-.022-.169-.066-.039-.014a10.644 10.644 0 00-.19-.07l-.03-.011a11.974 11.974 0 00-.202-.07l-.022-.008a13.529 13.529 0 00-.215-.071l-.011-.004c-1.875-.605-3.906-.868-5.983-.868H90.207c-2.425 0-4.796.355-6.922 1.198l-.007.004c-.071.027-.142.057-.213.086l-.051.022a8.259 8.259 0 00-.166.07l-.067.03-.146.066-.079.036-.127.06-.094.045-.098.048-.117.059-.096.049-.11.058-.096.052-.112.061-.09.05-.122.07-.077.045-.117.07-.079.048a4.306 4.306 0 00-.113.071c-.031.018-.061.038-.091.057l-.099.064-.109.073-.079.053-.116.08-.07.049-.119.086-.066.048-.119.089-.064.049c-.04.03-.079.06-.117.091l-.076.06a8.39 8.39 0 00-.119.096l-.072.06a12.02 12.02 0 00-.127.107l-.045.04c-.044.037-.087.076-.13.114l-.041.036-.129.12a.63.63 0 00-.038.035l-.13.123a1.107 1.107 0 01-.035.034l-.129.128-.032.032-.13.134-.02.022c-.116.122-.23.246-.342.374l-.024.028-.124.146-.029.034-.12.146-.029.036-.117.149-.03.038-.114.152a.923.923 0 00-.028.038c-.039.051-.076.103-.114.156a12.093 12.093 0 00-.312.458l-.026.04-.104.163a.492.492 0 01-.028.045l-.1.166-.028.047-.05.084-.05.089-.022.039a10.49 10.49 0 00-.236.438 8.94 8.94 0 00-.099.195l-.015.031a9.381 9.381 0 00-.097.201l-.013.027-.096.209-.011.024-.094.214a14.61 14.61 0 00-.102.243l-.009.019-.09.226-.008.018-.088.229-.007.018-.086.233-.006.017-.083.237-.006.017-.081.239-.005.018c-.027.079-.052.16-.078.24l-.006.02c-.026.08-.05.16-.075.241l-.006.021-.071.241-.007.025-.068.24-.008.028-.065.239-.008.032-.061.237-.009.037-.058.233-.01.042c-.018.077-.037.153-.054.23l-.011.048c-.018.075-.035.15-.051.226l-.012.053-.048.222-.012.06c-.016.072-.03.144-.045.217l-.013.066-.042.212-.013.072a7.595 7.595 0 00-.039.208l-.014.078-.037.203-.014.083-.034.2-.014.087-.033.197-.014.09-.03.196-.013.091-.029.197-.013.09-.028.199-.012.087-.028.214a1.108 1.108 0 01-.007.057l-.033.262v.001c-.357 2.939-.424 5.918-.424 8.386v6.781c0 2.544.07 5.636.456 8.665l.007.047.029.227.01.074.03.211.011.08.03.208.012.08.032.208.012.078.035.211.011.072.037.216.011.066.04.223.011.057.043.231.009.048.046.238.008.039.05.246.007.03.054.254.005.02.059.261.002.012.063.267.001.005c.286 1.187.644 2.32 1.09 3.357l.002.005.102.231.004.009.102.222.008.016c.033.071.067.141.102.211l.011.023.101.201.015.028c.033.065.067.129.101.192l.019.034.101.183.022.039.05.088c2.03 3.496 5.268 5.342 8.932 6.083l-13.692 5.293v5.718c0 2.976.098 6.673.684 10.155l.002.016.046.264.005.028a18.957 18.957 0 00.052.288l.047.246.008.04.048.242.008.04.051.242.008.038.053.244.008.033a17.872 17.872 0 00.063.275l.06.251.006.022c.02.085.042.17.064.255l.004.016.068.259.002.01.073.262.001.005c.276.983.608 1.921 1.005 2.789l.002.005.106.227.006.011.106.217.009.017c.035.07.07.139.106.207l.013.025.105.195.017.032.104.185.022.039.052.089.051.084.026.044a9.453 9.453 0 00.237.376 11.262 11.262 0 00.328.478l.009.013c.04.056.081.111.122.165l.02.028.121.158.024.03.122.154.025.031.125.149.025.03.127.148.023.026.132.147.003.004c.066.072.134.144.202.215l.029.031.123.125.041.041.121.119.046.043c.039.039.079.076.119.113l.051.048.117.106.06.053.111.097.076.066.097.081a7.267 7.267 0 00.176.143 4.304 4.304 0 00.178.139l.112.085.082.061.106.078.085.06.109.076.081.056a8.679 8.679 0 01.191.127l.135.087.057.036.138.085.056.034.141.084.054.031c.049.028.097.056.147.083l.051.029.152.083.052.028a7.75 7.75 0 00.216.112c.051.027.103.052.155.078l.063.031.129.062.085.039.12.055.095.043.117.051.091.039.125.052.089.037.13.052.097.037c.041.017.083.033.125.048l.104.039.073.026a7.337 7.337 0 00.215.076l.177.06a.9.9 0 01.048.016l.19.06a.594.594 0 01.039.013l.204.061.028.008.228.066.007.001c1.701.472 3.518.678 5.366.678h27.246c1.927 0 3.822-.226 5.587-.744l.011-.003a14.127 14.127 0 00.449-.14l.037-.012a6.91 6.91 0 00.188-.063l.047-.016.167-.059.066-.024.104-.039.125-.047.096-.038.13-.052.087-.036.131-.054.082-.036.128-.055.081-.037.133-.061.067-.031.147-.071.044-.021.001-.001a5.31 5.31 0 00.169-.084l.049-.025a8.033 8.033 0 00.363-.194l.056-.031.139-.079.063-.036.13-.078.067-.04.124-.077.072-.045.118-.076.096-.064.091-.06.107-.074.079-.055.112-.079.073-.053.112-.084.073-.055.109-.084.092-.073.106-.085.069-.057.126-.105.047-.041.129-.112a.72.72 0 01.041-.037l.13-.117.038-.036.129-.122.036-.034.128-.126.033-.033c.043-.044.087-.087.129-.132l.024-.024c.067-.07.133-.14.198-.212l.011-.012.126-.139.03-.035.12-.139.032-.038a7.27 7.27 0 00.117-.141l.034-.042.114-.143.033-.043.112-.145.033-.044.109-.148.033-.046a9.46 9.46 0 00.144-.205l.029-.042.104-.156.031-.047.102-.159.03-.048.101-.163.027-.046.05-.084.051-.087.023-.041c.035-.06.069-.121.103-.183l.017-.031.106-.197.01-.02c.037-.07.073-.141.109-.213l.004-.008c2.304-4.616 2.561-11.607 2.561-16.513v-8.772c0-2.891-.092-6.473-.643-9.871l-.002-.013-.045-.266-.005-.029a22.144 22.144 0 00-.095-.534l-.009-.044-.046-.239-.008-.045-.048-.237-.01-.044a16.648 16.648 0 00-.059-.279l-.053-.241a.465.465 0 01-.008-.036l-.057-.245a18.265 18.265 0 00-.068-.279l-.006-.023-.064-.254-.005-.016a12.392 12.392 0 00-.069-.259l-.002-.009-.074-.264v-.002a18.44 18.44 0 00-1.131-3.019l-.002-.003c-.036-.076-.074-.15-.111-.224l-.006-.011a13.99 13.99 0 00-.11-.211l-.011-.02c-.035-.067-.072-.133-.108-.198l-.017-.03c-.034-.062-.07-.123-.105-.184l-.024-.04-.051-.088c-2.075-3.451-5.338-5.276-9.013-5.992l11.523-5.467v-4.936c0-2.568-.106-5.537-.57-8.412zm-16.556 7.099H91.533v11.348h22.589v-11.348zm-24.127 33.121v13.013h24.308v-13.012H90.207l-.212-.001zm79.949-1.505l15.937-52.634.001-.001h18.701l.001.001-27.691 88.472v.001h-14.16v-.001l-28.888-88.472.001-.001h19.404l.001.001 16.693 52.634zm81.742-18.302h17.6v30.448c0 2.609-.076 5.771-.491 8.854-.415 3.084-1.168 6.091-2.523 8.39-1.312 2.225-3.116 3.779-5.206 4.803-2.382 1.167-5.136 1.646-7.957 1.646h-30.186c-2.832 0-5.602-.484-7.992-1.662-2.095-1.032-3.901-2.599-5.203-4.841-1.338-2.303-2.084-5.299-2.495-8.369-.411-3.069-.487-6.214-.487-8.821v-41.113c0-2.607.076-5.746.487-8.809.411-3.063 1.157-6.051 2.495-8.356 1.302-2.242 3.108-3.808 5.203-4.841 2.39-1.178 5.16-1.662 7.992-1.662h30.186c2.783 0 5.493.467 7.85 1.6 2.075.999 3.878 2.516 5.215 4.687 1.373 2.228 2.151 5.077 2.586 8.006.434 2.928.526 5.939.526 8.493v5.673l-17.6 5.874zm16.46-23.14l-.001-.003-.067-.259-.001-.003-.07-.257-.001-.003c-.023-.085-.048-.17-.073-.256v-.002l-.076-.254v-.002a18.587 18.587 0 00-.813-2.204v-.001l-.105-.23-.002-.003a9.157 9.157 0 00-.106-.224l-.003-.006c-.035-.074-.071-.146-.107-.218l-.006-.01a10.316 10.316 0 00-.109-.21l-.007-.015-.11-.203-.01-.018a9.014 9.014 0 00-.11-.195l-.013-.024a11.406 11.406 0 00-.111-.186l-.017-.029-.054-.091a6.304 6.304 0 00-.054-.085l-.023-.036-.109-.17-.021-.032c-.038-.057-.075-.114-.114-.17l-.014-.022a14.936 14.936 0 00-.32-.447l-.007-.009-.125-.163-.019-.025-.123-.155-.023-.029-.124-.151-.025-.028-.126-.148-.024-.027a9.023 9.023 0 00-.15-.168 11.02 11.02 0 00-.364-.383l-.005-.005-.133-.132-.03-.029-.13-.124-.037-.034-.128-.118-.041-.037-.127-.112-.047-.041-.124-.105-.055-.046a5.526 5.526 0 00-.118-.097l-.082-.066a3.365 3.365 0 00-.094-.073l-.097-.075-.084-.064a6.266 6.266 0 01-.099-.073 5.97 5.97 0 01-.097-.071l-.089-.062-.1-.07-.091-.062a5.47 5.47 0 00-.097-.065l-.1-.066-.089-.057-.12-.076-.071-.044-.128-.077-.064-.038-.132-.077-.062-.035-.138-.077a1.67 1.67 0 01-.058-.032l-.144-.077-.055-.028-.152-.079a1.79 1.79 0 01-.062-.031l-.151-.074-.065-.031a7.508 7.508 0 01-.129-.061l-.082-.037-.124-.056a3.069 3.069 0 01-.084-.037c-.042-.018-.084-.037-.127-.054l-.078-.034-.136-.056-.086-.034a7.211 7.211 0 00-.132-.052l-.093-.036a6.518 6.518 0 01-.127-.047l-.1-.036-.079-.028-.15-.053-.063-.021a11.13 11.13 0 00-.222-.074l-.183-.057-.044-.013-.197-.059-.032-.009a9.45 9.45 0 00-.225-.063l-.006-.002c-1.684-.458-3.479-.659-5.305-.659h-30.186c-2.522 0-4.994.383-7.193 1.299l-.006.003-.217.092-.024.011-.197.088-.033.015c-.061.029-.123.057-.184.087l-.04.019a7.925 7.925 0 00-.16.079l-.054.027-.148.076-.055.028-.145.078-.056.03-.143.08-.056.032-.141.082-.058.034-.175.107-.056.034-.147.094-.043.027-.147.099-.04.026-.148.102-.037.026-.148.106-.033.024-.15.112-.026.019c-.052.04-.104.079-.155.12l-.002.002a11.384 11.384 0 00-.578.485l-.018.016-.148.135-.02.019a9.384 9.384 0 00-.145.137l-.02.019-.143.142-.016.016c-.177.178-.349.363-.517.556l-.013.014-.129.152-.024.028-.123.15-.027.034-.119.151a6.129 6.129 0 00-.145.19l-.029.039a8.779 8.779 0 00-.113.155l-.028.039c-.096.135-.189.273-.281.414l-.031.048-.101.159-.031.051a5.44 5.44 0 00-.099.163l-.03.05-.049.083a4.396 4.396 0 00-.053.093l-.018.03-.109.198-.008.015c-2.504 4.624-2.795 11.739-2.795 16.828v41.113c0 2.646.079 5.847.507 8.96l.001.01.038.273.003.019a24.39 24.39 0 00.084.55.234.234 0 00.004.026l.042.259.005.026.044.259.005.023.047.262.004.02.05.265.003.015.053.268.002.01.056.272.002.005c.316 1.484.735 2.904 1.288 4.183l.001.001.104.234.002.007.105.225.006.012a10.832 10.832 0 00.218.441l.013.024a7.4 7.4 0 00.104.197l.016.03.104.187a.647.647 0 00.02.036l.052.091.049.083.03.049a5.488 5.488 0 00.13.214c.033.054.066.107.1.159l.032.049a10.978 10.978 0 00.309.453c.037.051.074.103.112.153l.031.042c.037.05.075.101.114.15l.03.039.117.149.03.037c.04.049.08.099.121.147l.027.033.126.147.02.023c.116.132.234.261.353.386l.014.015.137.14.025.026.136.133.029.029a17.02 17.02 0 00.304.283l.033.03a14.933 14.933 0 00.173.151l.138.117a6.245 6.245 0 00.212.172l.053.042.127.098.056.043.126.094.06.043.124.089.066.047.12.082.078.053.11.073.108.069.083.053.114.071.079.047a4.668 4.668 0 00.197.117l.123.07.091.051.113.062.095.05c.038.02.076.041.115.06l.091.047.128.064.088.043.099.048.124.058.082.037.145.065c.022.01.045.021.068.03l.165.071.053.022c.067.028.133.055.2.081l.022.009c2.14.848 4.526 1.204 6.959 1.204h30.186c1.85 0 3.671-.206 5.377-.676l.016-.005.22-.062.03-.009.204-.062a.421.421 0 01.038-.011l.194-.062.043-.014.187-.063.046-.016.181-.065.051-.018.11-.041c.04-.015.079-.029.118-.045l.107-.041.075-.03.148-.06.073-.03.147-.063.074-.032.144-.064.075-.035a8.665 8.665 0 00.339-.162l.093-.046.114-.058.093-.048.11-.059.1-.054.1-.056zm.198-.113l.117-.069.079-.048.115-.071.084-.053.107-.068.104-.068.086-.058.11-.075.079-.055a7.76 7.76 0 00.112-.08l.075-.054.111-.082.078-.059.104-.081.097-.076.083-.067c.032-.025.063-.05.093-.076.039-.031.076-.063.113-.095l.062-.052.121-.106.05-.044.124-.112.045-.042.125-.118.041-.039.125-.123a.646.646 0 00.037-.037l.127-.128.027-.029c.115-.12.228-.242.339-.367l.023-.027.127-.146.026-.032a5.67 5.67 0 00.123-.148l.027-.033.121-.152.026-.033.119-.155.023-.031c.041-.054.08-.108.12-.163a14.47 14.47 0 00.338-.492c.037-.055.073-.112.109-.168l.025-.04.103-.168.027-.044.051-.084.05-.088.024-.042.1-.177.024-.043.097-.181.022-.043.095-.185.021-.041.093-.191.019-.04.092-.196.018-.038c.03-.066.06-.133.089-.201l.017-.036.088-.207.015-.034.086-.211.013-.033.085-.216.012-.031.083-.221.01-.03a10.13 10.13 0 00.091-.253l.079-.229.009-.028.076-.232.009-.028.074-.234.009-.028.071-.236a13.395 13.395 0 00.076-.267l.009-.031.065-.237.009-.033.063-.237.009-.036.059-.236.01-.039.056-.235.01-.042.054-.234a.696.696 0 01.01-.044l.051-.233.01-.048c.016-.077.033-.153.048-.231l.011-.051.046-.229.01-.054.044-.228.01-.056.042-.228.009-.057.04-.229.009-.055.039-.233a.934.934 0 00.008-.052l.037-.237.008-.048.036-.243.006-.041.036-.254.004-.029c.43-3.125.509-6.339.509-8.984v-30.447h-17.603l17.603-5.875v-5.673c0-3.471-.17-7.786-1.14-11.593zm-17.071 9.826h-26.118v46.134h26.118v-12.407h-18.908v-20.412-.001h18.908V201.99z"/></g><path fill="#90C" fill-rule="nonzero" d="M119.337 196.887h-33.02v21.779h29.402c4.161 0 7.011 1.286 8.549 3.832 1.538 2.571 2.307 7.436 2.307 14.57v8.772c0 7.209-.754 12.1-2.262 14.645-1.508 2.572-4.373 3.857-8.594 3.857H88.473c-4.222 0-7.102-1.285-8.639-3.882-1.524-2.596-2.292-7.461-2.292-14.62v-2.143l7.237-2.798v12.553h34.739V230.01H90.207c-4.237 0-7.101-1.286-8.61-3.882-1.492-2.571-2.246-7.436-2.246-14.595v-6.781c0-7.134.754-11.999 2.246-14.57 1.509-2.596 4.373-3.882 8.61-3.882h24.848c4.162 0 7.027 1.26 8.61 3.806 1.583 2.521 2.367 6.958 2.367 13.31v1.638l-6.695 3.176v-11.343zM166.516 264.342L141.034 186.3h8.399l20.626 65.035 19.692-65.035h7.735l-24.426 78.042zM256.289 196.887h-36.548v56.565h36.548v-22.837h-18.907v-9.982h26.688v25.232c0 7.134-.77 11.999-2.292 14.595-1.538 2.597-4.433 3.882-8.67 3.882h-30.186c-4.282 0-7.177-1.311-8.685-3.907-1.523-2.622-2.277-7.487-2.277-14.57v-41.113c0-7.084.754-11.923 2.277-14.545 1.508-2.596 4.403-3.907 8.685-3.907h30.186c4.192 0 7.057 1.26 8.624 3.806 1.554 2.521 2.338 7.109 2.338 13.764v1.915l-7.781 2.597v-11.495z"/><path fill="#1A1A1A" d="M119.337 196.888h-33.02v21.778h29.402c2.078 0 3.83.321 5.253.959 1.427.639 2.527 1.598 3.296 2.872.768 1.285 1.346 3.145 1.73 5.573.384 2.429.577 5.43.577 8.998v8.772c0 3.606-.189 6.632-.566 9.074-.377 2.441-.942 4.3-1.696 5.572-.753 1.285-1.847 2.25-3.279 2.892-1.433.643-3.204.964-5.315.964H88.473c-2.111 0-3.887-.321-5.326-.967-1.44-.646-2.545-1.617-3.314-2.915-.762-1.299-1.336-3.168-1.718-5.609-.382-2.433-.574-5.437-.574-9.011v-2.143h.001l7.237-2.798v12.553h34.739V230.01H90.207c-2.119 0-3.894-.322-5.328-.967-1.434-.646-2.528-1.617-3.282-2.915-.746-1.285-1.308-3.145-1.683-5.577-.374-2.432-.563-5.439-.563-9.018v-6.781c0-3.564.188-6.562.562-8.99.375-2.432.938-4.294 1.684-5.58.754-1.298 1.848-2.269 3.282-2.915 1.434-.645 3.209-.967 5.328-.967h24.848c2.081 0 3.838.315 5.272.948 1.434.633 2.547 1.586 3.338 2.858.791 1.26 1.384 3 1.777 5.218.394 2.218.59 4.916.59 8.092V205.055l-6.695 3.176v-11.343zm-39.293-1.904l-.001.002-.037.211-.002.011-.035.208-.002.015-.034.209-.003.016c-.385 2.447-.579 5.48-.579 9.096v6.781c0 3.965.231 7.226.691 9.784l.005.024.033.18.008.045.031.159.012.059.028.145.014.067.029.135.015.071.028.13.016.071a4.8 4.8 0 00.045.196l.031.13.014.06.034.135.013.053.036.139.011.043.039.147.009.032.043.156a.505.505 0 01.006.02l.047.163.003.009c.286.966.621 1.78 1.005 2.442a6.877 6.877 0 001.437 1.746l.001.001c.033.029.067.058.102.086l.005.005.099.081a.07.07 0 01.01.008l.096.075c.005.005.01.008.016.012l.092.07.021.015.089.065.026.019a2.608 2.608 0 00.117.081l.083.055a2.04 2.04 0 00.117.075l.039.025.079.049.043.025.079.046.044.026a5.567 5.567 0 01.125.07l.081.044.045.023.085.044.042.021.09.045.038.018a4.316 4.316 0 00.238.109.39.39 0 01.02.009l.122.053.01.004c1.396.585 3.102.877 5.119.877h29.311v23.442H84.779v-12.553l-7.237 2.798v2.143c0 7.159.768 12.024 2.292 14.62.684 1.156 1.636 2.052 2.853 2.691l.128.066.002.001.129.063.002.001.131.062h.002c1.451.667 3.249.998 5.392.998h27.246c4.221 0 7.086-1.285 8.594-3.857 1.508-2.545 2.262-7.436 2.262-14.645v-8.772c0-7.134-.769-11.999-2.307-14.57-1.538-2.546-4.388-3.832-8.549-3.832H86.317v-21.779h33.02v11.343l6.695-3.176v-1.638c0-6.352-.784-10.789-2.367-13.31-1.583-2.546-4.448-3.806-8.61-3.806H90.207c-4.237 0-7.101 1.286-8.61 3.882-.665 1.146-1.183 2.748-1.553 4.802zM166.516 264.342L141.034 186.3h8.399l20.626 65.034L189.75 186.3H197.486l-24.426 78.042h-6.544zM256.289 196.888h-36.548v56.564h36.548v-22.837h-18.907v-9.982-.001h26.688v25.233c0 3.567-.193 6.567-.575 8.999-.382 2.432-.956 4.299-1.717 5.596-.768 1.298-1.878 2.269-3.323 2.915-1.445.646-3.228.967-5.347.967h-30.186c-2.139 0-3.932-.327-5.378-.977-1.45-.653-2.553-1.63-3.307-2.93-.761-1.31-1.331-3.183-1.71-5.612-.378-2.429-.567-5.416-.567-8.958v-41.113c0-3.542.189-6.523.567-8.946.379-2.423.949-4.289 1.71-5.599.754-1.3 1.857-2.277 3.307-2.93 1.446-.65 3.239-.977 5.378-.977h30.186c2.096 0 3.861.315 5.296.948 1.436.633 2.545 1.586 3.329 2.858.777 1.262 1.362 3.042 1.752 5.339.389 2.292.585 5.101.585 8.425v1.916l-7.781 2.596v-11.494zm1.532 66.741l.009-.003.129-.048.02-.007.116-.045.031-.012.103-.042.042-.018.091-.038.052-.023.08-.036.057-.026.078-.036a.868.868 0 01.053-.026l.08-.039.049-.025.084-.043.043-.022.088-.047a.647.647 0 00.036-.02l.093-.052a4.829 4.829 0 00.127-.073l.023-.014.103-.062.015-.01.108-.068.008-.006.113-.074.002-.001a6.976 6.976 0 002.124-2.253c.559-.953 1.016-2.212 1.371-3.777l.001-.002.044-.2v-.001c.583-2.674.876-6.212.876-10.615v-25.232h-26.688v9.982h18.907v22.837h-36.548v-56.565h36.548v11.495l7.781-2.597v-1.915c0-6.655-.784-11.243-2.338-13.764-1.567-2.546-4.432-3.806-8.624-3.806h-30.186c-4.282 0-7.177 1.311-8.685 3.907-1.523 2.622-2.277 7.461-2.277 14.545v41.113c0 7.083.754 11.948 2.277 14.57 1.508 2.596 4.403 3.907 8.685 3.907h30.186c1.819 0 3.39-.237 4.713-.713z"/></svg><svg shape-rendering="geometricPrecision" text-rendering="geometricPrecision" image-rendering="optimizeQuality" fill-rule="evenodd" clip-rule="evenodd" viewBox="0 0 340 340" id="iconskills--vscode" xmlns="http://www.w3.org/2000/svg"><path fill="#016EC5" fill-rule="nonzero" d="M231.07 46.933v210.452L47.313 230.093l183.757 61.876 61.259-25.484V76.215l.021-.009-.021-.04v-3.747L231.07 46.933zm-64.306 35.854l-56.283 55.636-33.886-25.52-13.965 4.665 34.475 34.079-34.475 34.077 13.965 4.666 33.886-25.521h.002l56.279 55.632 33.71-14.323V97.11l-33.708-14.323zm-.002 39.697v58.318l-38.721-29.159 38.721-29.159z"/></svg><svg aria-hidden="true" data-prefix="fab" data-icon="facebook" viewBox="0 0 512 512" class="bosvg-inline--fa bofa-facebook bofa-w-16 bofa-9x" id="iconsocials--facebook-round" xmlns="http://www.w3.org/2000/svg"><path fill="currentColor" d="M504 256C504 119 393 8 256 8S8 119 8 256c0 123.78 90.69 226.38 209.25 245V327.69h-63V256h63v-54.64c0-62.15 37-96.48 93.67-96.48 27.14 0 55.52 4.84 55.52 4.84v61h-31.28c-30.8 0-40.41 19.12-40.41 38.73V256h68.78l-11 71.69h-57.78V501C413.31 482.38 504 379.78 504 256z"/></svg><svg fill="none" viewBox="0 0 30 30" id="iconsocials--fb" xmlns="http://www.w3.org/2000/svg"><path d="M25.605 0H4.395A4.4 4.4 0 000 4.395v21.21A4.4 4.4 0 004.395 30h8.847V19.395H9.727V14.12h3.515v-3.574a5.28 5.28 0 015.274-5.274h5.332v5.274h-5.332v3.574h5.332l-.88 5.274h-4.452V30h7.09A4.4 4.4 0 0030 25.605V4.395A4.4 4.4 0 0025.605 0z" fill="#21243D"/></svg><svg fill="none" viewBox="0 0 30 30" id="iconsocials--insta" xmlns="http://www.w3.org/2000/svg"><path d="M21.72 0H8.28C3.714 0 0 3.714 0 8.279V21.72C0 26.286 3.714 30 8.279 30H21.72C26.286 30 30 26.286 30 21.721V8.28C30 3.714 26.286 0 21.72 0zm5.618 21.721a5.624 5.624 0 01-5.617 5.617H8.28a5.623 5.623 0 01-5.617-5.617V8.28a5.624 5.624 0 015.617-5.617H21.72a5.624 5.624 0 015.617 5.617V21.72z" fill="#21243D"/><path d="M15 7.27c-4.262 0-7.73 3.468-7.73 7.73 0 4.263 3.468 7.73 7.73 7.73 4.262 0 7.73-3.467 7.73-7.73 0-4.262-3.468-7.73-7.73-7.73zm0 12.798A5.074 5.074 0 019.932 15 5.074 5.074 0 0115 9.932 5.074 5.074 0 0120.069 15 5.074 5.074 0 0115 20.068zM23.055 5.013a1.96 1.96 0 00-1.38.572 1.962 1.962 0 00-.573 1.38c0 .513.21 1.017.574 1.38.362.363.866.572 1.379.572a1.97 1.97 0 001.38-.571c.364-.364.571-.868.571-1.38a1.96 1.96 0 00-.571-1.381 1.96 1.96 0 00-1.38-.572z" fill="#21243D"/></svg><svg aria-hidden="true" data-prefix="fab" data-icon="instagram-square" viewBox="0 0 448 512" class="brsvg-inline--fa brfa-instagram-square brfa-w-14 brfa-9x" id="iconsocials--instag" xmlns="http://www.w3.org/2000/svg"><path fill="currentColor" d="M224 202.66A53.34 53.34 0 10277.36 256 53.38 53.38 0 00224 202.66zm124.71-41a54 54 0 00-30.41-30.41c-21-8.29-71-6.43-94.3-6.43s-73.25-1.93-94.31 6.43a54 54 0 00-30.41 30.41c-8.28 21-6.43 71.05-6.43 94.33s-1.85 73.27 6.47 94.34a54 54 0 0030.41 30.41c21 8.29 71 6.43 94.31 6.43s73.24 1.93 94.3-6.43a54 54 0 0030.41-30.41c8.35-21 6.43-71.05 6.43-94.33s1.92-73.26-6.43-94.33zM224 338a82 82 0 1182-82 81.9 81.9 0 01-82 82zm85.38-148.3a19.14 19.14 0 1119.13-19.14 19.1 19.1 0 01-19.09 19.18zM400 32H48A48 48 0 000 80v352a48 48 0 0048 48h352a48 48 0 0048-48V80a48 48 0 00-48-48zm-17.12 290c-1.29 25.63-7.14 48.34-25.85 67s-41.4 24.63-67 25.85c-26.41 1.49-105.59 1.49-132 0-25.63-1.29-48.26-7.15-67-25.85s-24.63-41.42-25.85-67c-1.49-26.42-1.49-105.61 0-132 1.29-25.63 7.07-48.34 25.85-67s41.47-24.56 67-25.78c26.41-1.49 105.59-1.49 132 0 25.63 1.29 48.33 7.15 67 25.85s24.63 41.42 25.85 67.05c1.49 26.32 1.49 105.44 0 131.88z"/></svg><svg aria-hidden="true" data-prefix="fab" data-icon="instagram-square" viewBox="0 0 448 512" class="bssvg-inline--fa bsfa-instagram-square bsfa-w-14 bsfa-7x" id="iconsocials--instagram" xmlns="http://www.w3.org/2000/svg"><path fill="currentColor" d="M224 202.66A53.34 53.34 0 10277.36 256 53.38 53.38 0 00224 202.66zm124.71-41a54 54 0 00-30.41-30.41c-21-8.29-71-6.43-94.3-6.43s-73.25-1.93-94.31 6.43a54 54 0 00-30.41 30.41c-8.28 21-6.43 71.05-6.43 94.33s-1.85 73.27 6.47 94.34a54 54 0 0030.41 30.41c21 8.29 71 6.43 94.31 6.43s73.24 1.93 94.3-6.43a54 54 0 0030.41-30.41c8.35-21 6.43-71.05 6.43-94.33s1.92-73.26-6.43-94.33zM224 338a82 82 0 1182-82 81.9 81.9 0 01-82 82zm85.38-148.3a19.14 19.14 0 1119.13-19.14 19.1 19.1 0 01-19.09 19.18zM400 32H48A48 48 0 000 80v352a48 48 0 0048 48h352a48 48 0 0048-48V80a48 48 0 00-48-48zm-17.12 290c-1.29 25.63-7.14 48.34-25.85 67s-41.4 24.63-67 25.85c-26.41 1.49-105.59 1.49-132 0-25.63-1.29-48.26-7.15-67-25.85s-24.63-41.42-25.85-67c-1.49-26.42-1.49-105.61 0-132 1.29-25.63 7.07-48.34 25.85-67s41.47-24.56 67-25.78c26.41-1.49 105.59-1.49 132 0 25.63 1.29 48.33 7.15 67 25.85s24.63 41.42 25.85 67.05c1.49 26.32 1.49 105.44 0 131.88z"/></svg><svg fill="none" viewBox="0 0 30 30" id="iconsocials--linkedin" xmlns="http://www.w3.org/2000/svg"><path d="M25.605 0H4.395A4.4 4.4 0 000 4.395v21.21A4.4 4.4 0 004.395 30h21.21A4.4 4.4 0 0030 25.605V4.395A4.4 4.4 0 0025.605 0zm-15 23.79H7.09V11.483h3.515V23.79zm0-14.063H7.09V6.21h3.515v3.516zM22.91 23.789h-3.515v-7.031A1.76 1.76 0 0017.637 15a1.76 1.76 0 00-1.758 1.758v7.031h-3.516V11.484h3.516v.663c.92-.286 1.52-.663 2.637-.663 2.384.003 4.394 2.142 4.394 4.67v7.635z" fill="#21243D"/></svg><svg fill="none" viewBox="0 0 37 30" id="iconsocials--twitter" xmlns="http://www.w3.org/2000/svg"><path d="M36.923 3.552a15.782 15.782 0 01-4.361 1.195 7.526 7.526 0 003.33-4.184 15.126 15.126 0 01-4.8 1.832A7.585 7.585 0 0025.561 0c-4.19 0-7.564 3.402-7.564 7.572 0 .6.05 1.176.175 1.726C11.88 8.99 6.312 5.975 2.571 1.38a7.62 7.62 0 00-1.036 3.826 7.58 7.58 0 003.362 6.29 7.475 7.475 0 01-3.42-.931v.083c0 3.678 2.624 6.733 6.065 7.437a7.558 7.558 0 01-1.985.25c-.485 0-.974-.028-1.433-.13.98 2.998 3.764 5.202 7.073 5.274a15.21 15.21 0 01-9.385 3.228c-.621 0-1.217-.028-1.812-.104C3.353 28.765 7.327 30 11.612 30c13.93 0 21.545-11.538 21.545-21.54 0-.335-.012-.658-.028-.978 1.503-1.067 2.765-2.398 3.794-3.93z" fill="#21243D"/></svg><svg aria-hidden="true" data-prefix="fab" data-icon="twitter-square" viewBox="0 0 448 512" class="bvsvg-inline--fa bvfa-twitter-square bvfa-w-14 bvfa-7x" id="iconsocials--twitter-fill" xmlns="http://www.w3.org/2000/svg"><path fill="currentColor" d="M400 32H48C21.5 32 0 53.5 0 80v352c0 26.5 21.5 48 48 48h352c26.5 0 48-21.5 48-48V80c0-26.5-21.5-48-48-48zm-48.9 158.8c.2 2.8.2 5.7.2 8.5 0 86.7-66 186.6-186.6 186.6-37.2 0-71.7-10.8-100.7-29.4 5.3.6 10.4.8 15.8.8 30.7 0 58.9-10.4 81.4-28-28.8-.6-53-19.5-61.3-45.5 10.1 1.5 19.2 1.5 29.6-1.2-30-6.1-52.5-32.5-52.5-64.4v-.8c8.7 4.9 18.9 7.9 29.6 8.3a65.447 65.447 0 01-29.2-54.6c0-12.2 3.2-23.4 8.9-33.1 32.3 39.8 80.8 65.8 135.2 68.6-9.3-44.5 24-80.6 64-80.6 18.9 0 35.9 7.9 47.9 20.7 14.8-2.8 29-8.3 41.6-15.8-4.9 15.2-15.2 28-28.8 36.1 13.2-1.4 26-5.1 37.8-10.2-8.9 13.1-20.1 24.7-32.9 34z"/></svg></svg>