<?xml version="1.0" encoding="utf-8"?><svg viewBox="0 0 512 512" xmlns="http://www.w3.org/2000/svg" xmlns:xlink="http://www.w3.org/1999/xlink"><style>:root>svg{display:none}:root>svg:target{display:block}</style><svg aria-hidden="true" data-prefix="fab" data-icon="facebook" viewBox="0 0 512 512" class="asvg-inline--fa afa-facebook afa-w-16 afa-9x" id="facebook-round" xmlns="http://www.w3.org/2000/svg"><path fill="currentColor" d="M504 256C504 119 393 8 256 8S8 119 8 256c0 123.78 90.69 226.38 209.25 245V327.69h-63V256h63v-54.64c0-62.15 37-96.48 93.67-96.48 27.14 0 55.52 4.84 55.52 4.84v61h-31.28c-30.8 0-40.41 19.12-40.41 38.73V256h68.78l-11 71.69h-57.78V501C413.31 482.38 504 379.78 504 256z"/></svg><svg fill="none" viewBox="0 0 30 30" id="fb" xmlns="http://www.w3.org/2000/svg"><path d="M25.605 0H4.395A4.4 4.4 0 000 4.395v21.21A4.4 4.4 0 004.395 30h8.847V19.395H9.727V14.12h3.515v-3.574a5.28 5.28 0 015.274-5.274h5.332v5.274h-5.332v3.574h5.332l-.88 5.274h-4.452V30h7.09A4.4 4.4 0 0030 25.605V4.395A4.4 4.4 0 0025.605 0z" fill="#21243D"/></svg><svg fill="none" viewBox="0 0 30 30" id="insta" xmlns="http://www.w3.org/2000/svg"><path d="M21.72 0H8.28C3.714 0 0 3.714 0 8.279V21.72C0 26.286 3.714 30 8.279 30H21.72C26.286 30 30 26.286 30 21.721V8.28C30 3.714 26.286 0 21.72 0zm5.618 21.721a5.624 5.624 0 01-5.617 5.617H8.28a5.623 5.623 0 01-5.617-5.617V8.28a5.624 5.624 0 015.617-5.617H21.72a5.624 5.624 0 015.617 5.617V21.72z" fill="#21243D"/><path d="M15 7.27c-4.262 0-7.73 3.468-7.73 7.73 0 4.263 3.468 7.73 7.73 7.73 4.262 0 7.73-3.467 7.73-7.73 0-4.262-3.468-7.73-7.73-7.73zm0 12.798A5.074 5.074 0 019.932 15 5.074 5.074 0 0115 9.932 5.074 5.074 0 0120.069 15 5.074 5.074 0 0115 20.068zM23.055 5.013a1.96 1.96 0 00-1.38.572 1.962 1.962 0 00-.573 1.38c0 .513.21 1.017.574 1.38.362.363.866.572 1.379.572a1.97 1.97 0 001.38-.571c.364-.364.571-.868.571-1.38a1.96 1.96 0 00-.571-1.381 1.96 1.96 0 00-1.38-.572z" fill="#21243D"/></svg><svg aria-hidden="true" data-prefix="fab" data-icon="instagram-square" viewBox="0 0 448 512" class="dsvg-inline--fa dfa-instagram-square dfa-w-14 dfa-9x" id="instag" xmlns="http://www.w3.org/2000/svg"><path fill="currentColor" d="M224 202.66A53.34 53.34 0 10277.36 256 53.38 53.38 0 00224 202.66zm124.71-41a54 54 0 00-30.41-30.41c-21-8.29-71-6.43-94.3-6.43s-73.25-1.93-94.31 6.43a54 54 0 00-30.41 30.41c-8.28 21-6.43 71.05-6.43 94.33s-1.85 73.27 6.47 94.34a54 54 0 0030.41 30.41c21 8.29 71 6.43 94.31 6.43s73.24 1.93 94.3-6.43a54 54 0 0030.41-30.41c8.35-21 6.43-71.05 6.43-94.33s1.92-73.26-6.43-94.33zM224 338a82 82 0 1182-82 81.9 81.9 0 01-82 82zm85.38-148.3a19.14 19.14 0 1119.13-19.14 19.1 19.1 0 01-19.09 19.18zM400 32H48A48 48 0 000 80v352a48 48 0 0048 48h352a48 48 0 0048-48V80a48 48 0 00-48-48zm-17.12 290c-1.29 25.63-7.14 48.34-25.85 67s-41.4 24.63-67 25.85c-26.41 1.49-105.59 1.49-132 0-25.63-1.29-48.26-7.15-67-25.85s-24.63-41.42-25.85-67c-1.49-26.42-1.49-105.61 0-132 1.29-25.63 7.07-48.34 25.85-67s41.47-24.56 67-25.78c26.41-1.49 105.59-1.49 132 0 25.63 1.29 48.33 7.15 67 25.85s24.63 41.42 25.85 67.05c1.49 26.32 1.49 105.44 0 131.88z"/></svg><svg aria-hidden="true" data-prefix="fab" data-icon="instagram-square" viewBox="0 0 448 512" class="esvg-inline--fa efa-instagram-square efa-w-14 efa-7x" id="instagram" xmlns="http://www.w3.org/2000/svg"><path fill="currentColor" d="M224 202.66A53.34 53.34 0 10277.36 256 53.38 53.38 0 00224 202.66zm124.71-41a54 54 0 00-30.41-30.41c-21-8.29-71-6.43-94.3-6.43s-73.25-1.93-94.31 6.43a54 54 0 00-30.41 30.41c-8.28 21-6.43 71.05-6.43 94.33s-1.85 73.27 6.47 94.34a54 54 0 0030.41 30.41c21 8.29 71 6.43 94.31 6.43s73.24 1.93 94.3-6.43a54 54 0 0030.41-30.41c8.35-21 6.43-71.05 6.43-94.33s1.92-73.26-6.43-94.33zM224 338a82 82 0 1182-82 81.9 81.9 0 01-82 82zm85.38-148.3a19.14 19.14 0 1119.13-19.14 19.1 19.1 0 01-19.09 19.18zM400 32H48A48 48 0 000 80v352a48 48 0 0048 48h352a48 48 0 0048-48V80a48 48 0 00-48-48zm-17.12 290c-1.29 25.63-7.14 48.34-25.85 67s-41.4 24.63-67 25.85c-26.41 1.49-105.59 1.49-132 0-25.63-1.29-48.26-7.15-67-25.85s-24.63-41.42-25.85-67c-1.49-26.42-1.49-105.61 0-132 1.29-25.63 7.07-48.34 25.85-67s41.47-24.56 67-25.78c26.41-1.49 105.59-1.49 132 0 25.63 1.29 48.33 7.15 67 25.85s24.63 41.42 25.85 67.05c1.49 26.32 1.49 105.44 0 131.88z"/></svg><svg fill="none" viewBox="0 0 30 30" id="linkedin" xmlns="http://www.w3.org/2000/svg"><path d="M25.605 0H4.395A4.4 4.4 0 000 4.395v21.21A4.4 4.4 0 004.395 30h21.21A4.4 4.4 0 0030 25.605V4.395A4.4 4.4 0 0025.605 0zm-15 23.79H7.09V11.483h3.515V23.79zm0-14.063H7.09V6.21h3.515v3.516zM22.91 23.789h-3.515v-7.031A1.76 1.76 0 0017.637 15a1.76 1.76 0 00-1.758 1.758v7.031h-3.516V11.484h3.516v.663c.92-.286 1.52-.663 2.637-.663 2.384.003 4.394 2.142 4.394 4.67v7.635z" fill="#21243D"/></svg><svg aria-hidden="true" data-prefix="fad" data-icon="moon" viewBox="0 0 512 512" class="gsvg-inline--fa gfa-moon gfa-w-16 gfa-9x" id="moon" xmlns="http://www.w3.org/2000/svg"><g class="gfa-group"><path fill="currentColor" d="M32 256C32 114.51 144.29 0 282.64 0a246.91 246.91 0 0145.8 4.28c10.77 2 13.16 16.72 3.67 22.23-61.52 35.76-99.37 102.17-99.37 174.39 0 125.38 111.67 220.61 233.28 197 10.69-2.08 18.24 10.64 11.32 19.35C430.56 476.08 360 512 282.64 512 144.11 512 32 397.31 32 256z" class="gfa-primary"/></g></svg><svg aria-hidden="true" data-prefix="fal" data-icon="moon" viewBox="0 0 512 512" class="hsvg-inline--fa hfa-moon hfa-w-16 hfa-9x" id="moon-outline" xmlns="http://www.w3.org/2000/svg"><path fill="currentColor" d="M448.964 365.617C348.188 384.809 255.14 307.765 255.14 205.419c0-58.893 31.561-112.832 82.574-141.862 25.83-14.7 19.333-53.859-10.015-59.28A258.114 258.114 0 00280.947 0c-141.334 0-256 114.546-256 256 0 141.334 114.547 256 256 256 78.931 0 151.079-35.924 198.85-94.783 18.846-23.22-1.706-57.149-30.833-51.6zM280.947 480c-123.712 0-224-100.288-224-224s100.288-224 224-224c13.984 0 27.665 1.294 40.94 3.745-58.972 33.56-98.747 96.969-98.747 169.674 0 122.606 111.613 214.523 231.81 191.632C413.881 447.653 351.196 480 280.947 480z"/></svg><svg aria-hidden="true" data-prefix="fad" data-icon="moon" viewBox="0 0 512 512" class="isvg-inline--fa ifa-moon ifa-w-16 ifa-9x" id="moon-solid" xmlns="http://www.w3.org/2000/svg"><g class="ifa-group"><path fill="currentColor" d="M32 256C32 114.51 144.29 0 282.64 0a246.91 246.91 0 0145.8 4.28c10.77 2 13.16 16.72 3.67 22.23-61.52 35.76-99.37 102.17-99.37 174.39 0 125.38 111.67 220.61 233.28 197 10.69-2.08 18.24 10.64 11.32 19.35C430.56 476.08 360 512 282.64 512 144.11 512 32 397.31 32 256z" class="ifa-primary"/></g></svg><svg aria-hidden="true" data-prefix="far" data-icon="play" viewBox="0 0 448 512" class="jsvg-inline--fa jfa-play jfa-w-14 jfa-9x" id="play" xmlns="http://www.w3.org/2000/svg"><path fill="currentColor" d="M424.4 214.7L72.4 6.6C43.8-10.3 0 6.1 0 47.9V464c0 37.5 40.7 60.1 72.4 41.3l352-208c31.4-18.5 31.5-64.1 0-82.6zM48 453.5v-395c0-4.6 5.1-7.5 9.1-5.2l334.2 197.5c3.9 2.3 3.9 8 0 10.3L57.1 458.7c-4 2.3-9.1-.6-9.1-5.2z"/></svg><svg aria-hidden="true" data-prefix="fas" data-icon="power-off" viewBox="0 0 512 512" class="ksvg-inline--fa kfa-power-off kfa-w-16 kfa-9x" id="power" xmlns="http://www.w3.org/2000/svg"><path fill="currentColor" d="M400 54.1c63 45 104 118.6 104 201.9 0 136.8-110.8 247.7-247.5 248C120 504.3 8.2 393 8 256.4 7.9 173.1 48.9 99.3 111.8 54.2c11.7-8.3 28-4.8 35 7.7L162.6 90c5.9 10.5 3.1 23.8-6.6 31-41.5 30.8-68 79.6-68 134.9-.1 92.3 74.5 168.1 168 168.1 91.6 0 168.6-74.2 168-169.1-.3-51.8-24.7-101.8-68.1-134-9.7-7.2-12.4-20.5-6.5-30.9l15.8-28.1c7-12.4 23.2-16.1 34.8-7.8zM296 264V24c0-13.3-10.7-24-24-24h-32c-13.3 0-24 10.7-24 24v240c0 13.3 10.7 24 24 24h32c13.3 0 24-10.7 24-24z"/></svg><svg aria-hidden="true" data-prefix="far" data-icon="power-off" viewBox="0 0 512 512" class="lsvg-inline--fa lfa-power-off lfa-w-16 lfa-9x" id="powerpro" xmlns="http://www.w3.org/2000/svg"><path fill="currentColor" d="M388.5 46.3C457.9 90.3 504 167.8 504 256c0 136.8-110.8 247.7-247.5 248C120 504.3 8.2 393 8 256.4 7.9 168 54 90.3 123.5 46.3c5.8-3.7 13.5-1.8 16.9 4.2l11.8 20.9c3.1 5.5 1.4 12.5-3.9 15.9C92.8 122.9 56 185.1 56 256c0 110.5 89.5 200 200 200s200-89.5 200-200c0-70.9-36.8-133.1-92.3-168.6-5.3-3.4-7-10.4-3.9-15.9l11.8-20.9c3.3-6.1 11.1-7.9 16.9-4.3zM280 276V12c0-6.6-5.4-12-12-12h-24c-6.6 0-12 5.4-12 12v264c0 6.6 5.4 12 12 12h24c6.6 0 12-5.4 12-12z"/></svg><svg aria-hidden="true" data-prefix="fal" data-icon="sun" viewBox="0 0 512 512" class="msvg-inline--fa mfa-sun mfa-w-16 mfa-9x" id="sun" xmlns="http://www.w3.org/2000/svg"><path fill="currentColor" d="M256 143.7c-61.8 0-112 50.3-112 112.1s50.2 112.1 112 112.1 112-50.3 112-112.1-50.2-112.1-112-112.1zm0 192.2c-44.1 0-80-35.9-80-80.1s35.9-80.1 80-80.1 80 35.9 80 80.1-35.9 80.1-80 80.1zm256-80.1c0-5.3-2.7-10.3-7.1-13.3L422 187l19.4-97.9c1-5.2-.6-10.7-4.4-14.4-3.8-3.8-9.1-5.5-14.4-4.4l-97.8 19.4-55.5-83c-6-8.9-20.6-8.9-26.6 0l-55.5 83-97.8-19.5c-5.3-1.1-10.6.6-14.4 4.4-3.8 3.8-5.4 9.2-4.4 14.4L90 187 7.1 242.5c-4.4 3-7.1 8-7.1 13.3 0 5.3 2.7 10.3 7.1 13.3L90 324.6l-19.4 97.9c-1 5.2.6 10.7 4.4 14.4 3.8 3.8 9.1 5.5 14.4 4.4l97.8-19.4 55.5 83c3 4.5 8 7.1 13.3 7.1s10.3-2.7 13.3-7.1l55.5-83 97.8 19.4c5.4 1.2 10.7-.6 14.4-4.4 3.8-3.8 5.4-9.2 4.4-14.4L422 324.6l82.9-55.5c4.4-3 7.1-8 7.1-13.3zm-116.7 48.1c-5.4 3.6-8 10.1-6.8 16.4l16.8 84.9-84.8-16.8c-6.6-1.4-12.8 1.4-16.4 6.8l-48.1 72-48.1-71.9c-3-4.5-8-7.1-13.3-7.1-1 0-2.1.1-3.1.3l-84.8 16.8 16.8-84.9c1.2-6.3-1.4-12.8-6.8-16.4l-71.9-48.1 71.9-48.2c5.4-3.6 8-10.1 6.8-16.4l-16.8-84.9 84.8 16.8c6.5 1.3 12.8-1.4 16.4-6.8l48.1-72 48.1 72c3.6 5.4 9.9 8.1 16.4 6.8l84.8-16.8-16.8 84.9c-1.2 6.3 1.4 12.8 6.8 16.4l71.9 48.2-71.9 48z"/></svg><svg aria-hidden="true" data-prefix="far" data-icon="sun" class="nsvg-inline--fa nfa-sun nfa-w-16" viewBox="0 0 512 512" id="sun-regular" xmlns="http://www.w3.org/2000/svg"><path fill="currentColor" d="M494.2 221.9l-59.8-40.5 13.7-71c2.6-13.2-1.6-26.8-11.1-36.4-9.6-9.5-23.2-13.7-36.2-11.1l-70.9 13.7-40.4-59.9c-15.1-22.3-51.9-22.3-67 0l-40.4 59.9-70.8-13.7C98 60.4 84.5 64.5 75 74.1c-9.5 9.6-13.7 23.1-11.1 36.3l13.7 71-59.8 40.5C6.6 229.5 0 242 0 255.5s6.7 26 17.8 33.5l59.8 40.5-13.7 71c-2.6 13.2 1.6 26.8 11.1 36.3 9.5 9.5 22.9 13.7 36.3 11.1l70.8-13.7 40.4 59.9C230 505.3 242.6 512 256 512s26-6.7 33.5-17.8l40.4-59.9 70.9 13.7c13.4 2.7 26.8-1.6 36.3-11.1 9.5-9.5 13.6-23.1 11.1-36.3l-13.7-71 59.8-40.5c11.1-7.5 17.8-20.1 17.8-33.5-.1-13.6-6.7-26.1-17.9-33.7zm-112.9 85.6l17.6 91.2-91-17.6L256 458l-51.9-77-90.9 17.6 17.6-91.2-76.8-52 76.8-52-17.6-91.2 91 17.6L256 53l51.9 76.9 91-17.6-17.6 91.1 76.8 52-76.8 52.1zM256 152c-57.3 0-104 46.7-104 104s46.7 104 104 104 104-46.7 104-104-46.7-104-104-104zm0 160c-30.9 0-56-25.1-56-56s25.1-56 56-56 56 25.1 56 56-25.1 56-56 56z"/></svg><svg fill="none" viewBox="0 0 37 30" id="twitter" xmlns="http://www.w3.org/2000/svg"><path d="M36.923 3.552a15.782 15.782 0 01-4.361 1.195 7.526 7.526 0 003.33-4.184 15.126 15.126 0 01-4.8 1.832A7.585 7.585 0 0025.561 0c-4.19 0-7.564 3.402-7.564 7.572 0 .6.05 1.176.175 1.726C11.88 8.99 6.312 5.975 2.571 1.38a7.62 7.62 0 00-1.036 3.826 7.58 7.58 0 003.362 6.29 7.475 7.475 0 01-3.42-.931v.083c0 3.678 2.624 6.733 6.065 7.437a7.558 7.558 0 01-1.985.25c-.485 0-.974-.028-1.433-.13.98 2.998 3.764 5.202 7.073 5.274a15.21 15.21 0 01-9.385 3.228c-.621 0-1.217-.028-1.812-.104C3.353 28.765 7.327 30 11.612 30c13.93 0 21.545-11.538 21.545-21.54 0-.335-.012-.658-.028-.978 1.503-1.067 2.765-2.398 3.794-3.93z" fill="#21243D"/></svg><svg aria-hidden="true" data-prefix="fab" data-icon="twitter-square" viewBox="0 0 448 512" class="psvg-inline--fa pfa-twitter-square pfa-w-14 pfa-7x" id="twitter-fill" xmlns="http://www.w3.org/2000/svg"><path fill="currentColor" d="M400 32H48C21.5 32 0 53.5 0 80v352c0 26.5 21.5 48 48 48h352c26.5 0 48-21.5 48-48V80c0-26.5-21.5-48-48-48zm-48.9 158.8c.2 2.8.2 5.7.2 8.5 0 86.7-66 186.6-186.6 186.6-37.2 0-71.7-10.8-100.7-29.4 5.3.6 10.4.8 15.8.8 30.7 0 58.9-10.4 81.4-28-28.8-.6-53-19.5-61.3-45.5 10.1 1.5 19.2 1.5 29.6-1.2-30-6.1-52.5-32.5-52.5-64.4v-.8c8.7 4.9 18.9 7.9 29.6 8.3a65.447 65.447 0 01-29.2-54.6c0-12.2 3.2-23.4 8.9-33.1 32.3 39.8 80.8 65.8 135.2 68.6-9.3-44.5 24-80.6 64-80.6 18.9 0 35.9 7.9 47.9 20.7 14.8-2.8 29-8.3 41.6-15.8-4.9 15.2-15.2 28-28.8 36.1 13.2-1.4 26-5.1 37.8-10.2-8.9 13.1-20.1 24.7-32.9 34z"/></svg></svg>