<?xml version="1.0" encoding="utf-8"?><!DOCTYPE svg PUBLIC "-//W3C//DTD SVG 1.1//EN" "http://www.w3.org/Graphics/SVG/1.1/DTD/svg11.dtd"><svg viewBox="0 0 640 512" xmlns="http://www.w3.org/2000/svg" xmlns:xlink="http://www.w3.org/1999/xlink"><style>:root>svg{display:none}:root>svg:target{display:block}</style><svg aria-hidden="true" data-prefix="fad" data-icon="moon" viewBox="0 0 512 512" class="aasvg-inline--fa aafa-moon aafa-w-16 aafa-9x" id="iconcommon--moon" xmlns="http://www.w3.org/2000/svg"><g class="aafa-group"><path fill="currentColor" d="M32 256C32 114.51 144.29 0 282.64 0a246.91 246.91 0 0145.8 4.28c10.77 2 13.16 16.72 3.67 22.23-61.52 35.76-99.37 102.17-99.37 174.39 0 125.38 111.67 220.61 233.28 197 10.69-2.08 18.24 10.64 11.32 19.35C430.56 476.08 360 512 282.64 512 144.11 512 32 397.31 32 256z" class="aafa-primary"/></g></svg><svg aria-hidden="true" data-prefix="fal" data-icon="moon" viewBox="0 0 512 512" class="absvg-inline--fa abfa-moon abfa-w-16 abfa-9x" id="iconcommon--moon-outline" xmlns="http://www.w3.org/2000/svg"><path fill="currentColor" d="M448.964 365.617C348.188 384.809 255.14 307.765 255.14 205.419c0-58.893 31.561-112.832 82.574-141.862 25.83-14.7 19.333-53.859-10.015-59.28A258.114 258.114 0 00280.947 0c-141.334 0-256 114.546-256 256 0 141.334 114.547 256 256 256 78.931 0 151.079-35.924 198.85-94.783 18.846-23.22-1.706-57.149-30.833-51.6zM280.947 480c-123.712 0-224-100.288-224-224s100.288-224 224-224c13.984 0 27.665 1.294 40.94 3.745-58.972 33.56-98.747 96.969-98.747 169.674 0 122.606 111.613 214.523 231.81 191.632C413.881 447.653 351.196 480 280.947 480z"/></svg><svg aria-hidden="true" data-prefix="fad" data-icon="moon" viewBox="0 0 512 512" class="acsvg-inline--fa acfa-moon acfa-w-16 acfa-9x" id="iconcommon--moon-solid" xmlns="http://www.w3.org/2000/svg"><g class="acfa-group"><path fill="currentColor" d="M32 256C32 114.51 144.29 0 282.64 0a246.91 246.91 0 0145.8 4.28c10.77 2 13.16 16.72 3.67 22.23-61.52 35.76-99.37 102.17-99.37 174.39 0 125.38 111.67 220.61 233.28 197 10.69-2.08 18.24 10.64 11.32 19.35C430.56 476.08 360 512 282.64 512 144.11 512 32 397.31 32 256z" class="acfa-primary"/></g></svg><svg aria-hidden="true" data-prefix="far" data-icon="play" viewBox="0 0 448 512" class="adsvg-inline--fa adfa-play adfa-w-14 adfa-9x" id="iconcommon--play" xmlns="http://www.w3.org/2000/svg"><path fill="currentColor" d="M424.4 214.7L72.4 6.6C43.8-10.3 0 6.1 0 47.9V464c0 37.5 40.7 60.1 72.4 41.3l352-208c31.4-18.5 31.5-64.1 0-82.6zM48 453.5v-395c0-4.6 5.1-7.5 9.1-5.2l334.2 197.5c3.9 2.3 3.9 8 0 10.3L57.1 458.7c-4 2.3-9.1-.6-9.1-5.2z"/></svg><svg aria-hidden="true" data-prefix="fas" data-icon="power-off" viewBox="0 0 512 512" class="aesvg-inline--fa aefa-power-off aefa-w-16 aefa-9x" id="iconcommon--power" xmlns="http://www.w3.org/2000/svg"><path fill="currentColor" d="M400 54.1c63 45 104 118.6 104 201.9 0 136.8-110.8 247.7-247.5 248C120 504.3 8.2 393 8 256.4 7.9 173.1 48.9 99.3 111.8 54.2c11.7-8.3 28-4.8 35 7.7L162.6 90c5.9 10.5 3.1 23.8-6.6 31-41.5 30.8-68 79.6-68 134.9-.1 92.3 74.5 168.1 168 168.1 91.6 0 168.6-74.2 168-169.1-.3-51.8-24.7-101.8-68.1-134-9.7-7.2-12.4-20.5-6.5-30.9l15.8-28.1c7-12.4 23.2-16.1 34.8-7.8zM296 264V24c0-13.3-10.7-24-24-24h-32c-13.3 0-24 10.7-24 24v240c0 13.3 10.7 24 24 24h32c13.3 0 24-10.7 24-24z"/></svg><svg aria-hidden="true" data-prefix="far" data-icon="power-off" viewBox="0 0 512 512" class="afsvg-inline--fa affa-power-off affa-w-16 affa-9x" id="iconcommon--powerpro" xmlns="http://www.w3.org/2000/svg"><path fill="currentColor" d="M388.5 46.3C457.9 90.3 504 167.8 504 256c0 136.8-110.8 247.7-247.5 248C120 504.3 8.2 393 8 256.4 7.9 168 54 90.3 123.5 46.3c5.8-3.7 13.5-1.8 16.9 4.2l11.8 20.9c3.1 5.5 1.4 12.5-3.9 15.9C92.8 122.9 56 185.1 56 256c0 110.5 89.5 200 200 200s200-89.5 200-200c0-70.9-36.8-133.1-92.3-168.6-5.3-3.4-7-10.4-3.9-15.9l11.8-20.9c3.3-6.1 11.1-7.9 16.9-4.3zM280 276V12c0-6.6-5.4-12-12-12h-24c-6.6 0-12 5.4-12 12v264c0 6.6 5.4 12 12 12h24c6.6 0 12-5.4 12-12z"/></svg><svg aria-hidden="true" data-prefix="fal" data-icon="sun" viewBox="0 0 512 512" class="agsvg-inline--fa agfa-sun agfa-w-16 agfa-9x" id="iconcommon--sun" xmlns="http://www.w3.org/2000/svg"><path fill="currentColor" d="M256 143.7c-61.8 0-112 50.3-112 112.1s50.2 112.1 112 112.1 112-50.3 112-112.1-50.2-112.1-112-112.1zm0 192.2c-44.1 0-80-35.9-80-80.1s35.9-80.1 80-80.1 80 35.9 80 80.1-35.9 80.1-80 80.1zm256-80.1c0-5.3-2.7-10.3-7.1-13.3L422 187l19.4-97.9c1-5.2-.6-10.7-4.4-14.4-3.8-3.8-9.1-5.5-14.4-4.4l-97.8 19.4-55.5-83c-6-8.9-20.6-8.9-26.6 0l-55.5 83-97.8-19.5c-5.3-1.1-10.6.6-14.4 4.4-3.8 3.8-5.4 9.2-4.4 14.4L90 187 7.1 242.5c-4.4 3-7.1 8-7.1 13.3 0 5.3 2.7 10.3 7.1 13.3L90 324.6l-19.4 97.9c-1 5.2.6 10.7 4.4 14.4 3.8 3.8 9.1 5.5 14.4 4.4l97.8-19.4 55.5 83c3 4.5 8 7.1 13.3 7.1s10.3-2.7 13.3-7.1l55.5-83 97.8 19.4c5.4 1.2 10.7-.6 14.4-4.4 3.8-3.8 5.4-9.2 4.4-14.4L422 324.6l82.9-55.5c4.4-3 7.1-8 7.1-13.3zm-116.7 48.1c-5.4 3.6-8 10.1-6.8 16.4l16.8 84.9-84.8-16.8c-6.6-1.4-12.8 1.4-16.4 6.8l-48.1 72-48.1-71.9c-3-4.5-8-7.1-13.3-7.1-1 0-2.1.1-3.1.3l-84.8 16.8 16.8-84.9c1.2-6.3-1.4-12.8-6.8-16.4l-71.9-48.1 71.9-48.2c5.4-3.6 8-10.1 6.8-16.4l-16.8-84.9 84.8 16.8c6.5 1.3 12.8-1.4 16.4-6.8l48.1-72 48.1 72c3.6 5.4 9.9 8.1 16.4 6.8l84.8-16.8-16.8 84.9c-1.2 6.3 1.4 12.8 6.8 16.4l71.9 48.2-71.9 48z"/></svg><svg aria-hidden="true" data-prefix="far" data-icon="sun" class="ahsvg-inline--fa ahfa-sun ahfa-w-16" viewBox="0 0 512 512" id="iconcommon--sun-regular" xmlns="http://www.w3.org/2000/svg"><path fill="currentColor" d="M494.2 221.9l-59.8-40.5 13.7-71c2.6-13.2-1.6-26.8-11.1-36.4-9.6-9.5-23.2-13.7-36.2-11.1l-70.9 13.7-40.4-59.9c-15.1-22.3-51.9-22.3-67 0l-40.4 59.9-70.8-13.7C98 60.4 84.5 64.5 75 74.1c-9.5 9.6-13.7 23.1-11.1 36.3l13.7 71-59.8 40.5C6.6 229.5 0 242 0 255.5s6.7 26 17.8 33.5l59.8 40.5-13.7 71c-2.6 13.2 1.6 26.8 11.1 36.3 9.5 9.5 22.9 13.7 36.3 11.1l70.8-13.7 40.4 59.9C230 505.3 242.6 512 256 512s26-6.7 33.5-17.8l40.4-59.9 70.9 13.7c13.4 2.7 26.8-1.6 36.3-11.1 9.5-9.5 13.6-23.1 11.1-36.3l-13.7-71 59.8-40.5c11.1-7.5 17.8-20.1 17.8-33.5-.1-13.6-6.7-26.1-17.9-33.7zm-112.9 85.6l17.6 91.2-91-17.6L256 458l-51.9-77-90.9 17.6 17.6-91.2-76.8-52 76.8-52-17.6-91.2 91 17.6L256 53l51.9 76.9 91-17.6-17.6 91.1 76.8 52-76.8 52.1zM256 152c-57.3 0-104 46.7-104 104s46.7 104 104 104 104-46.7 104-104-46.7-104-104-104zm0 160c-30.9 0-56-25.1-56-56s25.1-56 56-56 56 25.1 56 56-25.1 56-56 56z"/></svg><svg aria-hidden="true" data-prefix="far" data-icon="books" viewBox="0 0 576 512" class="aisvg-inline--fa aifa-books aifa-w-18 aifa-9x" id="iconresume--book" xmlns="http://www.w3.org/2000/svg"><path fill="currentColor" d="M575.46 454.59L458.55 11.86c-2.28-8.5-11.1-13.59-19.6-11.31L423.5 4.68c-7.54 2.02-12.37 9.11-11.83 16.53-11.47 7.42-64.22 21.55-77.85 20.86-3.24-6.69-10.97-10.42-18.5-8.4L304 36.7V32c0-17.67-14.33-32-40-32H24C14.33 0 0 14.33 0 32v448c0 17.67 14.33 32 24 32h240c25.67 0 40-14.33 40-32V115.94l101.45 384.2c2.28 8.5 11.1 13.59 19.6 11.31l15.46-4.14c7.54-2.02 12.37-9.11 11.83-16.52 11.47-7.42 64.21-21.55 77.85-20.86 3.24 6.69 10.97 10.42 18.5 8.4l15.46-4.14c8.49-2.28 13.58-11.1 11.31-19.6zM128 464H48v-48h80v48zm0-96H48V144h80v224zm0-272H48V48h80v48zm128 368h-80v-48h80v48zm0-96h-80V144h80v224zm0-272h-80V48h80v48zm185.98 355.01L344.74 81.69c16.76-1.8 60.74-13.39 77.28-20.71l97.24 369.32c-16.76 1.81-60.74 13.4-77.28 20.71z"/></svg><svg aria-hidden="true" data-prefix="far" data-icon="car" viewBox="0 0 512 512" class="ajsvg-inline--fa ajfa-car ajfa-w-16 ajfa-9x" id="iconresume--cars" xmlns="http://www.w3.org/2000/svg"><path fill="currentColor" d="M499.99 192.01h-52.21l-31.36-77.88C404.24 83.84 374.86 64 342.22 64H169.78c-32.64 0-62.02 19.84-74.21 50.12L64.21 192h-52.2C4.2 192-1.53 199.34.37 206.91l6 24A12.01 12.01 0 0018.01 240h11.31C21.04 254.16 16 270.41 16 287.99V424c0 13.25 10.75 24 24 24h16c13.25 0 24-10.75 24-24v-24h352v24c0 13.25 10.75 24 24 24h16c13.25 0 24-10.75 24-24V288c0-17.59-5.04-33.84-13.31-47.99H494c5.51 0 10.31-3.75 11.64-9.09l6-24c1.89-7.58-3.84-14.91-11.65-14.91zM140.1 132.05C145 119.87 156.65 112 169.78 112h172.44c13.13 0 24.78 7.87 29.68 20.05l24.13 59.94H115.97l24.13-59.94zM448 336c0 8.82-7.18 16-16 16H80c-8.82 0-16-7.18-16-16v-48c0-26.47 21.53-48 48-48h288c26.47 0 48 21.53 48 48v48zm-320-72.01c-19.2 0-32 12.76-32 31.91s12.8 31.91 32 31.91 48 3.19 48-15.96c0-19.14-28.8-47.86-48-47.86zm256 0c-19.2 0-48 28.72-48 47.86 0 19.15 28.8 15.96 48 15.96s32-12.76 32-31.91c0-19.14-12.8-31.91-32-31.91z"/></svg><svg viewBox="0 0 50 50" id="iconresume--download" xmlns="http://www.w3.org/2000/svg"><defs><style>.akcls-1{fill:#111}.akcls-2{fill:#00c569}</style></defs><g id="akLayer_2" data-name="Layer 2"><g id="akDownload"><path class="akcls-1" d="M47.5 33a2.5 2.5 0 00-2.5 2.5v7.75A1.76 1.76 0 0143.25 45H6.75A1.76 1.76 0 015 43.25V35.5a2.5 2.5 0 00-5 0v7.75A6.75 6.75 0 006.75 50h36.5A6.75 6.75 0 0050 43.25V35.5a2.5 2.5 0 00-2.5-2.5z"/><path class="akcls-1" d="M23.11 38.2l.08.26.13.23a1.86 1.86 0 00.1.2 2.52 2.52 0 00.69.69l.2.1.23.13.26.08.2.11a2.69 2.69 0 001 0l.21-.06.26-.08.23-.13.2-.1a3.68 3.68 0 00.38-.31l9.19-9.19a2.5 2.5 0 00-3.54-3.54L28 31.46V2.5a2.5 2.5 0 00-5 0v35a2.72 2.72 0 00.05.49 1.66 1.66 0 00.06.21z"/><rect class="akcls-2" x="13.82" y="24.73" width="5" height="11.17" rx="2.5" ry="2.5" transform="rotate(-45 16.32 30.32)"/></g></g></svg><svg aria-hidden="true" data-prefix="far" data-icon="user-graduate" viewBox="0 0 448 512" class="alsvg-inline--fa alfa-user-graduate alfa-w-14 alfa-9x" id="iconresume--education" xmlns="http://www.w3.org/2000/svg"><path fill="currentColor" d="M13.2 100l6.8 2v37.6c-7 4.2-12 11.5-12 20.3 0 8.4 4.6 15.4 11.1 19.7L3.5 242c-1.7 6.9 2.1 14 7.6 14h41.8c5.5 0 9.3-7.1 7.6-14l-15.6-62.3C51.4 175.4 56 168.4 56 160c0-8.8-5-16.1-12-20.3v-30.5L90.6 123C84 139.4 80 157.2 80 176c0 79.5 64.5 144 144 144s144-64.5 144-144c0-18.8-4-36.6-10.6-53l77.4-23c17.6-5.2 17.6-34.8 0-40L240.9 2.5C235.3.8 229.7 0 224 0s-11.3.8-16.9 2.5L13.2 60c-17.6 5.2-17.6 34.8 0 40zM224 272c-52.9 0-96-43.1-96-96 0-14.1 3.3-27.3 8.8-39.3l70.4 20.9c14.8 4.4 27.2 2 33.8 0l70.4-20.9c5.5 12 8.8 25.3 8.8 39.3-.2 52.9-43.3 96-96.2 96zm-3.2-223.5c1-.3 3.3-.9 6.5 0L333.5 80l-106.3 31.5c-2.1.6-4.2.7-6.5 0L114.5 80l106.3-31.5zm98.6 272.1L224 400l-95.4-79.4C57.1 323.7 0 382.2 0 454.4v9.6c0 26.5 21.5 48 48 48h352c26.5 0 48-21.5 48-48v-9.6c0-72.2-57.1-130.7-128.6-133.8zM200 464H48v-9.6c0-40.4 27.9-74.4 66-83.5l86 71.6V464zm200 0H248v-21.5l86-71.6c38.1 9.1 66 43.1 66 83.5v9.6z"/></svg><svg aria-hidden="true" data-prefix="far" data-icon="at" viewBox="0 0 512 512" class="amsvg-inline--fa amfa-at amfa-w-16 amfa-9x" id="iconresume--email" xmlns="http://www.w3.org/2000/svg"><path fill="currentColor" d="M504 232C504 95.751 394.053 8 256 8 118.94 8 8 118.919 8 256c0 137.059 110.919 248 248 248 52.926 0 104.681-17.079 147.096-48.321 5.501-4.052 6.423-11.924 2.095-17.211l-15.224-18.597c-4.055-4.954-11.249-5.803-16.428-2.041C339.547 442.517 298.238 456 256 456c-110.28 0-200-89.72-200-200S145.72 56 256 56c109.469 0 200 65.02 200 176 0 63.106-42.478 98.29-83.02 98.29-19.505 0-20.133-12.62-16.366-31.463l28.621-148.557c1.426-7.402-4.245-14.27-11.783-14.27h-39.175a12.005 12.005 0 00-11.784 9.735c-1.102 5.723-1.661 8.336-2.28 13.993-11.923-19.548-35.878-31.068-65.202-31.068C183.412 128.66 120 191.149 120 281.53c0 61.159 32.877 102.11 93.18 102.11 29.803 0 61.344-16.833 79.749-42.239 4.145 30.846 28.497 38.01 59.372 38.01C451.467 379.41 504 315.786 504 232zm-273.9 97.35c-28.472 0-45.47-19.458-45.47-52.05 0-57.514 39.56-93.41 74.61-93.41 30.12 0 45.471 21.532 45.471 51.58 0 46.864-33.177 93.88-74.611 93.88z"/></svg><svg aria-hidden="true" data-prefix="far" data-icon="briefcase" class="ansvg-inline--fa anfa-briefcase anfa-w-16 anfa-7x" viewBox="0 0 512 512" id="iconresume--experience" xmlns="http://www.w3.org/2000/svg"><path fill="currentColor" d="M464 128h-80V80c0-26.51-21.49-48-48-48H176c-26.51 0-48 21.49-48 48v48H48c-26.51 0-48 21.49-48 48v256c0 26.51 21.49 48 48 48h416c26.51 0 48-21.49 48-48V176c0-26.51-21.49-48-48-48zM176 80h160v48H176V80zM54 176h404c3.31 0 6 2.69 6 6v74H48v-74c0-3.31 2.69-6 6-6zm404 256H54c-3.31 0-6-2.69-6-6V304h144v24c0 13.25 10.75 24 24 24h80c13.25 0 24-10.75 24-24v-24h144v122c0 3.31-2.69 6-6 6z"/></svg><svg viewBox="0 0 24 24" id="iconresume--home" xmlns="http://www.w3.org/2000/svg"><path d="M3 13h1v7c0 1.103.897 2 2 2h12c1.103 0 2-.897 2-2v-7h1a1 1 0 00.707-1.707l-9-9a.999.999 0 00-1.414 0l-9 9A1 1 0 003 13zm7 7v-5h4v5h-4zm2-15.586l6 6V15l.001 5H16v-5c0-1.103-.897-2-2-2h-4c-1.103 0-2 .897-2 2v5H6v-9.586l6-6z"/></svg><svg aria-hidden="true" data-prefix="fab" data-icon="instagram-square" viewBox="0 0 448 512" class="apsvg-inline--fa apfa-instagram-square apfa-w-14 apfa-9x" id="iconresume--insta-fill" xmlns="http://www.w3.org/2000/svg"><path fill="currentColor" d="M224 202.66A53.34 53.34 0 10277.36 256 53.38 53.38 0 00224 202.66zm124.71-41a54 54 0 00-30.41-30.41c-21-8.29-71-6.43-94.3-6.43s-73.25-1.93-94.31 6.43a54 54 0 00-30.41 30.41c-8.28 21-6.43 71.05-6.43 94.33s-1.85 73.27 6.47 94.34a54 54 0 0030.41 30.41c21 8.29 71 6.43 94.31 6.43s73.24 1.93 94.3-6.43a54 54 0 0030.41-30.41c8.35-21 6.43-71.05 6.43-94.33s1.92-73.26-6.43-94.33zM224 338a82 82 0 1182-82 81.9 81.9 0 01-82 82zm85.38-148.3a19.14 19.14 0 1119.13-19.14 19.1 19.1 0 01-19.09 19.18zM400 32H48A48 48 0 000 80v352a48 48 0 0048 48h352a48 48 0 0048-48V80a48 48 0 00-48-48zm-17.12 290c-1.29 25.63-7.14 48.34-25.85 67s-41.4 24.63-67 25.85c-26.41 1.49-105.59 1.49-132 0-25.63-1.29-48.26-7.15-67-25.85s-24.63-41.42-25.85-67c-1.49-26.42-1.49-105.61 0-132 1.29-25.63 7.07-48.34 25.85-67s41.47-24.56 67-25.78c26.41-1.49 105.59-1.49 132 0 25.63 1.29 48.33 7.15 67 25.85s24.63 41.42 25.85 67.05c1.49 26.32 1.49 105.44 0 131.88z"/></svg><svg aria-hidden="true" data-prefix="far" data-icon="external-link" viewBox="0 0 512 512" class="aqsvg-inline--fa aqfa-external-link aqfa-w-16 aqfa-9x" id="iconresume--link" xmlns="http://www.w3.org/2000/svg"><path fill="currentColor" d="M497.6 0L334.4.17a14.4 14.4 0 00-14.4 14.4v33.31a14.4 14.4 0 0014.69 14.4l73.63-2.72 2.06 2.06-278.86 278.87a12 12 0 000 17l23 23a12 12 0 0017 0l278.86-278.87 2.06 2.06-2.72 73.63a14.4 14.4 0 0014.4 14.69h33.31a14.4 14.4 0 0014.4-14.4L512 14.4A14.4 14.4 0 00497.6 0zM432 288h-16a16 16 0 00-16 16v154a6 6 0 01-6 6H54a6 6 0 01-6-6V118a6 6 0 016-6h154a16 16 0 0016-16V80a16 16 0 00-16-16H48a48 48 0 00-48 48v352a48 48 0 0048 48h352a48 48 0 0048-48V304a16 16 0 00-16-16z"/></svg><svg aria-hidden="true" data-prefix="far" data-icon="map-marker-alt" viewBox="0 0 384 512" class="arsvg-inline--fa arfa-map-marker-alt arfa-w-12 arfa-7x" id="iconresume--location" xmlns="http://www.w3.org/2000/svg"><path fill="currentColor" d="M192 0C85.903 0 0 86.014 0 192c0 71.117 23.991 93.341 151.271 297.424 18.785 30.119 62.694 30.083 81.457 0C360.075 285.234 384 263.103 384 192 384 85.903 297.986 0 192 0zm0 464C64.576 259.686 48 246.788 48 192c0-79.529 64.471-144 144-144s144 64.471 144 144c0 54.553-15.166 65.425-144 272zm-80-272c0-44.183 35.817-80 80-80s80 35.817 80 80-35.817 80-80 80-80-35.817-80-80z"/></svg><svg aria-hidden="true" data-prefix="far" data-icon="envelope" class="assvg-inline--fa asfa-envelope asfa-w-16 asfa-7x" viewBox="0 0 512 512" id="iconresume--mail" xmlns="http://www.w3.org/2000/svg"><path fill="currentColor" d="M464 64H48C21.49 64 0 85.49 0 112v288c0 26.51 21.49 48 48 48h416c26.51 0 48-21.49 48-48V112c0-26.51-21.49-48-48-48zm0 48v40.805c-22.422 18.259-58.168 46.651-134.587 106.49-16.841 13.247-50.201 45.072-73.413 44.701-23.208.375-56.579-31.459-73.413-44.701C106.18 199.465 70.425 171.067 48 152.805V112h416zM48 400V214.398c22.914 18.251 55.409 43.862 104.938 82.646 21.857 17.205 60.134 55.186 103.062 54.955 42.717.231 80.509-37.199 103.053-54.947 49.528-38.783 82.032-64.401 104.947-82.653V400H48z"/></svg><svg data-name="Layer 1" viewBox="0 0 24 24" id="iconresume--options" xmlns="http://www.w3.org/2000/svg"><path d="M8.81 0H2.19A2.19 2.19 0 000 2.19v6.62A2.19 2.19 0 002.19 11h6.62A2.19 2.19 0 0011 8.81V2.19A2.19 2.19 0 008.81 0zM9 8.81a.18.18 0 01-.19.19H2.19A.18.18 0 012 8.81V2.19A.18.18 0 012.19 2h6.62a.18.18 0 01.19.19zM21.81 0h-6.62A2.19 2.19 0 0013 2.19v6.62A2.19 2.19 0 0015.19 11h6.62A2.19 2.19 0 0024 8.81V2.19A2.19 2.19 0 0021.81 0zM22 8.81a.18.18 0 01-.19.19h-6.62a.18.18 0 01-.19-.19V2.19a.18.18 0 01.19-.19h6.62a.18.18 0 01.19.19zM8.81 13H2.19A2.19 2.19 0 000 15.19v6.62A2.19 2.19 0 002.19 24h6.62A2.19 2.19 0 0011 21.81v-6.62A2.19 2.19 0 008.81 13zM9 21.81a.18.18 0 01-.19.19H2.19a.18.18 0 01-.19-.19v-6.62a.18.18 0 01.19-.19h6.62a.18.18 0 01.19.19zM21.81 13h-6.62A2.19 2.19 0 0013 15.19v6.62A2.19 2.19 0 0015.19 24h6.62A2.19 2.19 0 0024 21.81v-6.62A2.19 2.19 0 0021.81 13zm.19 8.81a.18.18 0 01-.19.19h-6.62a.18.18 0 01-.19-.19v-6.62a.18.18 0 01.19-.19h6.62a.18.18 0 01.19.19z"/></svg><svg aria-hidden="true" data-prefix="far" data-icon="phone" viewBox="0 0 512 512" class="ausvg-inline--fa aufa-phone aufa-w-16 aufa-7x" id="iconresume--phone" xmlns="http://www.w3.org/2000/svg"><path fill="currentColor" d="M476.5 22.9L382.3 1.2c-21.6-5-43.6 6.2-52.3 26.6l-43.5 101.5c-8 18.6-2.6 40.6 13.1 53.4l40 32.7C311 267.8 267.8 311 215.4 339.5l-32.7-40c-12.8-15.7-34.8-21.1-53.4-13.1L27.7 329.9c-20.4 8.7-31.5 30.7-26.6 52.3l21.7 94.2c4.8 20.9 23.2 35.5 44.6 35.5C312.3 512 512 313.7 512 67.5c0-21.4-14.6-39.8-35.5-44.6zM69.3 464l-20.9-90.7 98.2-42.1 55.7 68.1c98.8-46.4 150.6-98 197-197l-68.1-55.7 42.1-98.2L464 69.3C463 286.9 286.9 463 69.3 464z"/></svg><svg viewBox="0 0 20 20" id="iconresume--profile" xmlns="http://www.w3.org/2000/svg"><path d="M10 10c-2.217 0-4.019-1.794-4.019-4S7.783 2 10 2s4.019 1.794 4.019 4-1.802 4-4.019 4m3.776.673a5.978 5.978 0 002.182-5.603C15.561 2.447 13.37.348 10.722.042 7.07-.381 3.972 2.449 3.972 6c0 1.89.88 3.574 2.252 4.673C2.852 11.934.39 14.895.004 18.891A1.012 1.012 0 001.009 20a.99.99 0 00.993-.891C2.404 14.646 5.837 12 10 12s7.596 2.646 7.999 7.109a.99.99 0 00.993.891c.596 0 1.06-.518 1.003-1.109-.385-3.996-2.847-6.957-6.22-8.218" fill="#000" fill-rule="evenodd"/></svg><svg aria-hidden="true" data-prefix="far" data-icon="puzzle-piece" viewBox="0 0 576 512" class="awsvg-inline--fa awfa-puzzle-piece awfa-w-18 awfa-9x" id="iconresume--puzzle" xmlns="http://www.w3.org/2000/svg"><path fill="currentColor" d="M437.983 261.352c-4.321 2.778-10.839 6.969-13.122 7.279-24.067-.092.757-103.841 5.813-124.714-29.614 5.697-134.448 26.337-159.932 7.046C271.197 132.585 304 116.55 304 73.588 304 28.222 261.986 0 216.994 0 171.147 0 112 25.756 112 75.063c0 40.881 28.702 64.642 31.994 74.559-.739 28.838-115.981 1.752-143.994-5.469v351.556C10.464 498.412 56.682 512 104 512c45.3-.001 88-15.737 88-60.854 0-31.773-32-45.657-32-73.834 0-16.521 29.235-27.063 49.361-27.063 21.125 0 46.639 11.414 46.639 25.588 0 24.02-32 36.882-32 77.924 0 66.838 81.555 58.073 134.44 51.225 37.039-4.797 33.159-3.906 73.069-3.906-2.799-8.954-28.061-81.125-13.892-100.4 10.021-13.639 39.371 31.32 84.037 31.32C548.715 432 576 380.487 576 336c0-57.793-45.975-133.814-138.017-74.648zM501.654 384c-24.507 0-37.496-32.763-79.116-32.763-35.286 0-67.12 27.143-53.431 104.031-19.03 2.234-84.249 12.922-96.329 2.29C261.633 447.771 304 419.385 304 375.837c0-46.326-49.475-73.588-94.639-73.588-46.686 0-97.361 27.417-97.361 75.063 0 50.809 41.414 70.396 29.601 79.554-16.851 13.064-71.854 5.122-93.601.935V204.584c63.934 10.948 144 9.33 144-55.435 0-31.802-32-45.775-32-74.086C160 58.488 199.338 48 216.994 48 233.19 48 256 55.938 256 73.588c0 23.524-33.264 36.842-33.264 77.924 0 60.396 86.897 58.813 146.508 51.68-6.592 53.714 1.669 113.439 55.691 113.439 31.223 0 45.141-28.631 75.22-28.631C517.407 288 528 315.957 528 336c0 21.606-12.157 48-26.346 48z"/></svg><svg aria-hidden="true" data-prefix="far" data-icon="arrow-to-top" viewBox="0 0 384 512" class="axsvg-inline--fa axfa-arrow-to-top axfa-w-12 axfa-9x" id="iconresume--scrollup" xmlns="http://www.w3.org/2000/svg"><path fill="currentColor" d="M35.5 279.9l148-148.4c4.7-4.7 12.3-4.7 17 0l148 148.4c4.7 4.7 4.7 12.3 0 17l-19.6 19.6c-4.8 4.8-12.5 4.7-17.1-.2L218 219.2V468c0 6.6-5.4 12-12 12h-28c-6.6 0-12-5.4-12-12V219.2l-93.7 97.1c-4.7 4.8-12.4 4.9-17.1.2l-19.6-19.6c-4.8-4.7-4.8-12.3-.1-17zM12 84h360c6.6 0 12-5.4 12-12V44c0-6.6-5.4-12-12-12H12C5.4 32 0 37.4 0 44v28c0 6.6 5.4 12 12 12z"/></svg><svg aria-hidden="true" data-prefix="far" data-icon="microscope" viewBox="0 0 512 512" class="aysvg-inline--fa ayfa-microscope ayfa-w-16 ayfa-9x" id="iconresume--search" xmlns="http://www.w3.org/2000/svg"><path fill="currentColor" d="M476 464h-40.5c37.06-33.68 60.5-82.1 60.5-136 0-98.75-78.26-179.36-176-183.6V97.14c0-18.39-10.16-34.45-25.16-42.88V36.58c0-20.17-16.4-36.58-36.56-36.58H157.72c-20.16 0-36.56 16.41-36.56 36.58v17.69C106.16 62.69 96 78.75 96 97.14v197.72c0 22.02 14.56 40.7 34.56 46.94v37.62c0 20.17 16.41 36.58 36.59 36.58h81.69c20.19 0 36.59-16.41 36.59-36.58V341.8c20-6.23 34.56-24.92 34.56-46.94V192.81c71.21 4.23 128 62.95 128 135.19 0 74.98-61 136-136 136H36c-19.88 0-36 16.12-36 36 0 6.63 5.37 12 12 12h488c6.63 0 12-5.37 12-12 0-19.88-16.12-36-36-36zm-297.44-96v-40h58.88v40h-58.88zm92.28-72H145.16l-1.16-1.14L145.16 96h24V48h77.69L248 96h24l-1.16 200z"/></svg><svg data-name="Layer 1" viewBox="0 0 24 24" id="iconresume--skills" xmlns="http://www.w3.org/2000/svg"><path d="M20.87 0H7.13A3.14 3.14 0 004 3.13V4H0v20h20v-4h.87A3.14 3.14 0 0024 16.87V3.13A3.14 3.14 0 0020.87 0zM18 22H2V6h2v10.87A3.14 3.14 0 007.13 20H18zm4-5.13A1.14 1.14 0 0120.87 18H7.13A1.14 1.14 0 016 16.87V3.13A1.14 1.14 0 017.13 2h13.74A1.14 1.14 0 0122 3.13z"/><path d="M9 5h10v2H9zM9 9h10v2H9zM9 13h10v2H9z"/></svg><svg aria-hidden="true" data-prefix="far" data-icon="chalkboard-teacher" viewBox="0 0 640 512" class="basvg-inline--fa bafa-chalkboard-teacher bafa-w-20 bafa-9x" id="iconresume--teach" xmlns="http://www.w3.org/2000/svg"><path fill="currentColor" d="M226.79 342.02C199 342.02 192.02 352 160 352c-31.97 0-38.95-9.98-66.79-9.98C21.12 342.02 0 403 0 434.67V472c0 22.09 17.91 40 40 40h240c22.09 0 40-17.91 40-40v-37.33c0-42.72-30.58-92.65-93.21-92.65zM272 464H48v-29.33c0-14.01 8.15-44.65 45.21-44.65 17.24 0 29.56 9.98 66.79 9.98 37.37 0 49.49-9.98 66.79-9.98 37.02 0 45.21 30.58 45.21 44.65V464zM160 320c53.02 0 96-42.98 96-96s-42.98-96-96-96-96 42.98-96 96 42.98 96 96 96zm0-144c26.47 0 48 21.53 48 48s-21.53 48-48 48-48-21.53-48-48 21.53-48 48-48zM592 0H208c-26.47 0-48 22.25-48 49.59V96c9.69 0 32.27 3.13 48 9.52V48h384v320h-48v-48c0-17.67-14.33-32-32-32H384c-17.67 0-32 14.33-32 32v96h240c26.47 0 48-22.25 48-49.59V49.59C640 22.25 618.47 0 592 0zm-96 368h-96v-32h96v32z"/></svg><svg viewBox="0 0 24 24" id="iconresume--travel" xmlns="http://www.w3.org/2000/svg"><path d="M3.414 13.778L2 15.192l4.949 2.121 2.122 4.95 1.414-1.414-.707-3.536L13.091 14l3.61 7.704 1.339-1.339-1.19-10.123 2.828-2.829a2 2 0 10-2.828-2.828l-2.903 2.903L3.824 6.297 2.559 7.563l7.644 3.67-3.253 3.253-3.536-.708z"/></svg><svg shape-rendering="geometricPrecision" text-rendering="geometricPrecision" image-rendering="optimizeQuality" fill-rule="evenodd" clip-rule="evenodd" viewBox="0 0 340 340" id="iconskills--3ds" xmlns="http://www.w3.org/2000/svg"><defs><linearGradient id="bca" gradientUnits="userSpaceOnUse" x1="97.226" y1="240.969" x2="242.324" y2="95.871"><stop offset="0" stop-color="#7688A1"/><stop offset="1" stop-color="#E8D9F1"/></linearGradient></defs><g fill-rule="nonzero"><path fill="#7688A1" d="M307.761 78.801l-17.636-4.876v-22.76h-22.76L262.24 33.28h34.14c6.284 0 11.38 5.096 11.38 11.38l.001 34.141zM52.52 73.925l-17.885 4.876V44.66c0-6.284 5.096-11.38 11.38-11.38h34.141L75.28 51.165H52.52v22.76zM296.38 306.406h-34.14l3.625-18.886h22.76v-22.76l19.136-3.875v34.14c-.001 6.284-5.097 11.38-11.381 11.38v.001zM80.156 306.406H46.015c-6.284-.001-11.38-5.097-11.38-11.381v-34.14l17.885 4.625v22.76h22.76l4.876 18.136z"/><path fill="url(#bca)" d="M305.849 163.529c-1.997-2.993-49.868-73.348-134.651-73.348-84.783 0-132.654 70.355-134.651 73.348a11.385 11.385 0 000 12.627c1.997 2.993 49.869 73.348 134.651 73.348 84.783 0 132.654-70.355 134.651-73.348a11.384 11.384 0 000-12.626v-.001z"/><path fill="#E6E6E6" d="M176.288 153.973l-45.521-22.76a11.396 11.396 0 00-5.09-1.202c-6.284 0-11.38 5.096-11.38 11.38V198.294c0-.002 0 0 0 0 0 4.31 2.437 8.251 6.291 10.178l45.521 22.761a11.388 11.388 0 005.089 1.201c6.284 0 11.38-5.095 11.38-11.38v-56.902c0 .001 0 0 0 0a11.38 11.38 0 00-6.291-10.178l.001-.001z"/><path fill="#B3B3B3" d="M222.693 131.719a11.389 11.389 0 00-11.074-.497l-40.422 20.208v81.004h.003c1.765 0 3.509-.412 5.087-1.201l45.521-22.76a11.384 11.384 0 006.291-10.179V141.391a11.38 11.38 0 00-5.406-9.671v-.001z"/><path fill="#999" d="M226.876 136.314a11.356 11.356 0 00-5.068-5.101l-45.521-22.761a11.376 11.376 0 00-10.178.001l-45.521 22.76a11.356 11.356 0 00-5.068 5.101l55.677 27.839 55.679-27.839z"/><path fill="#fff" d="M164.594 149.404c-2.329 0-3.893-.382-4.702-1.137-.809-.756-1.209-2.17-1.209-4.258v-2.232l4.373-1.013v4.853h15.876c1.004 0 1.671-.159 1.991-.48.32-.32.48-.977.48-1.982v-3.671c0-1.031-.169-1.698-.498-2.027-.329-.32-.986-.48-1.973-.48h-9.742v-3.519h8.728c.987 0 1.645-.196 1.974-.596.329-.4.498-1.245.498-2.542v-1.618c0-1.289-.169-2.133-.498-2.533-.329-.4-.987-.605-1.974-.605h-14.702v4.267l-4.16-.836v-1.733c0-2.062.4-3.475 1.209-4.231.809-.765 2.382-1.147 4.72-1.147h13.947c2.347 0 3.92.382 4.729 1.147.809.756 1.209 2.169 1.209 4.231v2.515c0 1.574-.32 2.756-.951 3.529-.632.783-1.707 1.343-3.218 1.689 1.84.276 3.164.854 3.973 1.734.809.88 1.209 2.178 1.209 3.875v2.889c0 2.258-.462 3.804-1.396 4.649-.924.845-2.56 1.262-4.906 1.262h-14.987z"/><path fill="#999" d="M144.11 178.248h-8.276v15.84h8.276c3.68 0 6.293-.622 7.849-1.867 1.555-1.235 2.329-3.279 2.329-6.133 0-2.773-.783-4.782-2.356-6-1.573-1.227-4.178-1.84-7.822-1.84zm.471-3.36c2.151 0 3.955.142 5.422.427 1.467.293 2.676.728 3.636 1.315 1.538.978 2.746 2.303 3.618 3.973.862 1.68 1.297 3.521 1.297 5.538 0 3.805-1.155 6.649-3.457 8.534-2.312 1.884-5.814 2.826-10.516 2.826h-13.013v-22.613h13.013z"/><path fill="#4D4D4D" d="M208.353 175.185h-15.84v5.867h14.489c2.124 0 3.573.373 4.346 1.111.774.738 1.165 2.142 1.165 4.231v2.702c0 2.089-.382 3.494-1.138 4.231-.755.738-2.213 1.111-4.373 1.111h-13.734c-2.159 0-3.617-.373-4.391-1.111-.773-.737-1.164-2.142-1.164-4.231v-.622l3.893-.809v3.36h17.067v-6.346h-14.551c-2.133 0-3.591-.374-4.356-1.112-.764-.737-1.147-2.142-1.147-4.231v-2.133c0-2.071.383-3.485 1.147-4.24.765-.756 2.223-1.138 4.356-1.138h12.569c2.106 0 3.555.364 4.355 1.094.8.737 1.2 2.017 1.2 3.866v.551l-3.893.836v-2.987z"/></g></svg><svg shape-rendering="geometricPrecision" text-rendering="geometricPrecision" image-rendering="optimizeQuality" fill-rule="evenodd" clip-rule="evenodd" viewBox="0 0 340 340" id="iconskills--CSS3" xmlns="http://www.w3.org/2000/svg"><path fill="#0078BE" d="M43.814 29.354h243.199l-21.734 248.628-99.183 28.534-101.899-28.534z"/><path fill="#0088CD" d="M166.136 57.652v220.56l78.891-22.701 17.3-197.859z"/><path fill="#0088C1" fill-rule="nonzero" d="M201.403 171.864h-35.267v45.134l31.343-5.885z"/><path fill="#F0F0F0" fill-rule="nonzero" d="M90.185 85.509l3.925 28.829 70.652-.041-69.346 30.09 3.933 27.477h66.787V85.509zM132.058 209.82l-2.616-22.248h-28.784l3.921 45.797 61.492 17.001.065-.025v-33.339z"/><path fill="#fff" fill-rule="nonzero" d="M232.809 141.945h-63.02l68.407-27.987V85.509h-72.06v86.355h35.267l-3.934 39.249-31.333 5.885v33.347l58.815-18.294z"/></svg><svg shape-rendering="geometricPrecision" text-rendering="geometricPrecision" image-rendering="optimizeQuality" fill-rule="evenodd" clip-rule="evenodd" viewBox="0 0 340 340" id="iconskills--cdr" xmlns="http://www.w3.org/2000/svg"><defs><linearGradient id="bea" gradientUnits="userSpaceOnUse" x1="58.915" y1="76.263" x2="299.67" y2="281.784"><stop offset="0" stop-color="#96EC1B"/><stop offset=".439" stop-color="#61C61B"/><stop offset="1" stop-color="#2CA01C"/></linearGradient></defs><path fill="#7688A1" d="M204.122 194.278V63.914c.373-.053.734-.113 1.121-.113h84.935c4.253 0 7.721 3.464 7.721 7.722v196.895c0 4.255-3.468 7.721-7.721 7.721h-84.935c-.382 0-.749-.06-1.121-.113V194.278zm0 92.099c.377.025.739.055 1.121.055h84.935c9.931 0 18.017-8.089 18.017-18.017V71.52c0-9.933-8.086-18.017-18.017-18.017l-84.935.001c-.377 0-.744.035-1.121.054V30.053L38.349 52.178V287.9l165.773 22.694v-24.217zm-34.495-108.194v55.605h-10.032v-87.842h10.032v12.25c1.58-5.228 2.588-6.241 5.075-9.159 2.504-2.917 5.26-4.362 8.268-4.362 2.336 0 4.453.578 6.335 1.734 1.882 1.155 3.529 2.859 4.941 5.112l-6.537 15.252c-.891-1.878-2.017-3.293-3.361-4.246-1.345-.953-2.89-1.444-4.672-1.444-3.176 0-5.646 1.53-7.411 4.535-1.747 3.032-2.638 7.221-2.638 12.565zm-25.29-67.448v123.053h-10.049v-11.261c-1.008 4.362-1.983 5.455-4.302 8.372-2.319 2.947-5.159 4.42-8.537 4.42-3.747 0-6.94-1.415-9.578-4.188-2.639-2.803-4.655-6.875-6.033-12.248-1.378-5.344-2.067-11.785-2.067-19.296v-19.353c0-7.568.672-14.039 2.017-19.383 1.344-5.372 3.31-9.445 5.881-12.247 2.571-2.773 5.663-4.189 9.276-4.189 3.025 0 5.797 1.358 8.301 4.073 2.504 2.716 3.496 3.546 5.042 8.456v-46.209h10.049zM89.454 228.762c-1.882 2.051-3.983 3.611-6.335 4.679a17.787 17.787 0 01-7.461 1.618c-4.655 0-8.638-1.502-11.932-4.477-3.293-3.005-5.814-7.337-7.561-13.057-1.731-5.69-2.605-12.565-2.605-20.624v-14.472c0-7.973.874-14.761 2.605-20.393 1.747-5.662 4.268-9.966 7.561-12.912 3.294-2.975 7.277-4.449 11.932-4.449 2.655 0 5.159.549 7.511 1.647 2.353 1.098 4.453 2.686 6.335 4.795 1.865 2.08 3.428 4.622 4.672 7.597l-7.243 11.179c-1.445-2.831-3.125-4.998-5.075-6.529-1.932-1.502-3.949-2.281-6.049-2.281-3.865 0-6.873 1.877-9.007 5.603-2.135 3.727-3.193 8.955-3.193 15.743v14.472c0 6.932 1.058 12.276 3.159 16.06 2.117 3.784 5.142 5.691 9.041 5.691 2.134 0 4.167-.838 6.1-2.456 1.949-1.646 3.613-3.957 5.024-6.961l7.243 12.017c-1.277 2.946-2.857 5.43-4.722 7.51z"/><path fill="url(#bea)" fill-rule="nonzero" d="M203.122 284.377c.377.025.739.054 1.121.054h84.935c9.931 0 18.017-8.088 18.017-18.016V69.52c0-9.933-8.086-18.017-18.017-18.017l-84.935.001c-.377 0-.744.035-1.121.054V28.053L37.349 50.178v235.721l165.773 22.695v-24.217zM74.657 233.059c-4.654 0-8.637-1.502-11.931-4.477-3.293-3.005-5.814-7.338-7.561-13.057-1.731-5.69-2.605-12.565-2.605-20.624v-14.472c0-7.973.874-14.761 2.605-20.393 1.747-5.662 4.268-9.966 7.561-12.912 3.294-2.976 7.277-4.449 11.931-4.449 2.656 0 5.16.549 7.512 1.647 2.353 1.097 4.453 2.686 6.335 4.795 1.865 2.079 3.428 4.622 4.672 7.597l-7.243 11.179c-1.445-2.831-3.125-4.998-5.075-6.529-1.932-1.502-3.949-2.282-6.049-2.282-3.865 0-6.873 1.878-9.007 5.604-2.135 3.727-3.193 8.955-3.193 15.743v14.472c0 6.932 1.058 12.276 3.159 16.06 2.117 3.784 5.142 5.691 9.041 5.691 2.134 0 4.167-.838 6.1-2.456 1.949-1.646 3.613-3.957 5.024-6.961l7.243 12.016c-1.277 2.947-2.857 5.431-4.722 7.511-1.882 2.051-3.983 3.61-6.335 4.679a17.788 17.788 0 01-7.462 1.618zm58.631-78.115v-46.209h10.049v123.053h-10.049v-11.261m0-21.063v-23.628m0 0c0-3.697-.387-6.904-1.177-9.561-.789-2.629-1.932-4.651-3.428-6.037-1.495-1.387-3.293-2.08-5.428-2.08-3.327 0-5.881 1.791-7.713 5.344-1.814 3.553-2.722 8.55-2.722 14.963v19.122c0 6.384.908 11.323 2.722 14.79 1.832 3.466 4.386 5.199 7.713 5.199 2.135 0 3.933-.722 5.428-2.166 1.496-1.445 2.639-3.496 3.428-6.211.79-2.715 1.177-5.95 1.177-9.735m0 21.063c-1.008 4.362-1.983 5.455-4.302 8.372-2.319 2.947-5.159 4.42-8.537 4.42-3.747 0-6.94-1.416-9.578-4.189-2.639-2.802-4.655-6.875-6.033-12.247-1.378-5.344-2.067-11.785-2.067-19.296v-19.353c0-7.568.672-14.039 2.017-19.383 1.344-5.372 3.31-9.445 5.881-12.247 2.571-2.773 5.663-4.189 9.276-4.189 3.025 0 5.797 1.358 8.301 4.073 2.504 2.715 3.496 3.546 5.042 8.456m35.339 21.239v55.605h-10.032v-87.842h10.032v12.25m0 0c1.58-5.229 2.588-6.242 5.075-9.159 2.504-2.917 5.26-4.362 8.268-4.362 2.336 0 4.453.578 6.335 1.733 1.882 1.156 3.529 2.86 4.941 5.113l-6.537 15.252c-.891-1.878-2.017-3.293-3.361-4.246-1.345-.954-2.89-1.445-4.672-1.445-3.176 0-5.646 1.531-7.411 4.536-1.747 3.032-2.638 7.221-2.638 12.565m35.616-114.382h84.935c4.252 0 7.721 3.464 7.721 7.722v196.895c0 4.255-3.469 7.721-7.721 7.721h-84.935c-.382 0-.749-.06-1.121-.113v-72.951c.84.686 1.925.964 2.993.719l27.827-6.419a3.53 3.53 0 001.696-.935c.029-.031.054-.061.084-.081l48.846-48.83-3.212-3.207-45.627 45.623-19.985-19.987 45.627-45.627-3.212-3.204-48.831 48.831.03.035c-.506.477-.885 1.093-1.038 1.764l-5.198 22.521V61.914c.373-.054.734-.113 1.121-.113zm3.376 126.28l4.048-17.549s.011-.03.024-.046l.035-.02a.094.094 0 01.075.02l21.402 21.405c.02.02.032.055.02.07l.158.05.063.066-.279-.056-17.546 4.052-8-7.992z"/><path fill="#2CA01C" fill-rule="nonzero" d="M271.367 132.328l-40.964 40.968-6.595-6.596 40.964-40.964z"/></svg><svg shape-rendering="geometricPrecision" text-rendering="geometricPrecision" image-rendering="optimizeQuality" fill-rule="evenodd" clip-rule="evenodd" viewBox="0 0 300 299.999" id="iconskills--favicon" xmlns="http://www.w3.org/2000/svg"><path fill="none" stroke="#FEFEFE" stroke-width="16" stroke-miterlimit="22.926" d="M152.273 22.586h0c68.623 0 124.769 56.146 124.769 124.769v1.119c0 68.623-56.146 124.768-124.769 124.768h0c-68.622 0-124.768-56.145-124.768-124.768v-1.119c0-68.623 56.146-124.769 124.768-124.769z"/><rect fill="none" stroke="#2E3843" stroke-width="16" stroke-miterlimit="22.926" x="37.105" y="32.186" width="230.337" height="231.456" rx="103.359" ry="156.82"/><path fill="none" stroke="#E73845" stroke-width="20" stroke-miterlimit="22.926" d="M-172.452 54.622c15.009-10.983 33.475-17.489 53.39-17.489s38.381 6.506 53.39 17.489m3.292 144.902c-15.56 12.506-35.285 20.014-56.682 20.014-21.397 0-41.122-7.508-56.681-20.014"/><path fill="#1C3557" stroke="#1C3557" stroke-width=".756" stroke-miterlimit="22.926" d="M156.851 440.248h-9.935v-16.767h12.435c17.427 0 22.409 1.536 24.312 2.276 6.164 2.397 11.916 3.952 16.402 7.305 6.814 5.23 12.155 12.416 16.093 21.518 3.904 9.142 5.856 19.122 5.856 29.941 0 11.537-1.918 21.916-5.753 31.179-3.869 9.221-9.245 16.487-16.196 21.796-4.349 3.274-9.76 5.669-16.265 7.226-6.472 1.557-14.622 2.356-24.449 2.356h-58.348v-17.214h17.787v-.032h38.061c17.19 0 29.346-3.514 36.434-10.54 7.088-6.986 10.649-18.603 10.649-34.851 0-15.649-4.257-26.346-10.855-33.853-5.595-6.367-13.135-10.34-36.228-10.34z"/><path fill="#1C3557" fill-rule="nonzero" d="M118.896 423.011v106.821h-17.804v-45.786l-66.659 45.786H8.349l77.459-51.134-85.947-55.687h29.845l71.386 47.993v-47.993z"/><path fill="none" stroke="#1C3557" stroke-width=".288" stroke-miterlimit="22.926" d="M118.896 423.011v106.821h-17.804v-45.786l-66.659 45.786H8.349l77.459-51.134-85.947-55.687h29.845l71.386 47.993v-47.993z"/><path fill="#2E3843" d="M476.515-78.944c-6.368 9.685-11.296 22.442-15.521 35.6 38.067 5.261 74.791 20.037 84.895 60.146 3.644 14.469 1.918 26.588-4.836 34.637l-17.686 21.077c-5.672 6.76-14.889 10.649-27.448 10.649-23.551 0-45.477-35.559-62.126-35.671-6.88 15.129-12.65 22.83-14.989 25.618L401.118 94.19l-1.005 1.136c9.965-19.848 22.906-50.301 27.324-66.674 3.038-11.261 8.479-26.528 13.275-42.532.838-2.796 1.701-5.6 2.596-8.386-16.38-2.265-33.008-2.769-47.871-2.769l17.686-21.078c12.029 0 25.215.332 38.488 1.658 2.194-4.87 4.583-9.404 7.217-13.411l17.687-21.078zm-22.624 58.411c-3.4 10.568-6.662 20.3-8.768 28.108-2.428 8.998-7.431 22.251-13.1 35.658l10.035-11.959c17.272-20.583 43.236 30.813 71.547 30.813 6.032 0 11.292-.898 15.759-2.578 1.228-6.29.862-13.598-1.161-21.63-9.162-36.372-40.218-51.909-74.312-58.412z"/><path fill="none" d="M467.672-68.405c-7.716 11.736-13.32 27.982-18.117 43.987-4.797 16.004-10.237 31.27-13.275 42.531-4.418 16.373-17.359 46.826-27.324 66.675 1.052-1.104 9.347-10.283 19.064-33.849 16.985-41.191 45.427 21.687 76.743 21.687 27.512 0 38.988-18.664 32.283-45.286-14.451-57.367-83.361-62.914-132.766-62.914"/><path fill="#E73845" d="M527.352-34.044c-11.004-7.847-20.941-7.822-31.461.673a205.28 205.28 0 00-2.048 3.197c-8.309 13.235-10.351 17.664-12.979 20.795L463.18 11.696c-1.857 2.213-4.005 3.777-8.866 7.343-.629.461-1.398.931-2.275 1.405 2.982.594 6.592 1.168 10.918 1.719 28.421 3.622 2.637 60.099 16.771 74.257 7.7 7.712 23.237 9.044 48.894-5.62 20.28-11.59 24.796-15.119 42.432-30.274L553.37 81.6c-17.636 15.156-22.152 18.684-42.432 30.275-25.657 14.664-41.194 13.332-48.894 5.619-14.133-14.158 11.65-70.635-16.771-74.256-20.586-2.624-25.024-5.76-22.241-9.077l17.684-21.074c4.131-4.924 24.173-10.245 30.933-14.876 1.265-2.088 2.746-4.5 4.51-7.31 3.878-6.177 7.587-11.399 11.186-15.688l17.684-21.075c13.856-16.513 26.077-19.19 40.006-9.257l-17.683 21.075z"/><path fill="none" d="M536.194-44.581c-17.548-12.514-32.383-5.015-51.193 24.944C470.819 2.953 474.893-.11 463.156 8.502c-10.619 7.791-60.727 17.612-9.041 24.198 28.421 3.622 2.638 60.099 16.771 74.257 7.7 7.712 23.237 9.044 48.894-5.62 20.279-11.59 24.796-15.119 42.432-30.274"/><path fill="#2E3843" d="M170.582 157.004l44.311-48.908a12.973 12.973 0 012.249-2.203 13.815 13.815 0 012.833-1.439c1.079-.405 2.383-.675 3.867-.81 1.484-.134 3.283-.179 5.397-.179 2.203 0 4.047.045 5.531.179 1.484.135 2.698.36 3.597.675.899.315 1.574.719 1.979 1.169.405.495.585 1.125.585 1.934 0 1.034-.27 2.113-.855 3.148-.585 1.079-1.484 2.293-2.833 3.687l-42.721 42.99 48.117 62.596c1.124 1.529 1.934 2.698 2.429 3.643.494.944.719 1.798.719 2.563 0 .72-.18 1.349-.54 1.844-.359.539-.944.989-1.754 1.349-.854.314-2.023.584-3.507.764-1.484.18-3.373.27-5.666.27-2.339 0-4.317-.045-5.846-.18s-2.833-.36-3.867-.675c-1.08-.314-1.934-.764-2.564-1.303a10.11 10.11 0 01-1.798-2.069l-49.663-65.205v-3.84z"/><path fill="#E73845" fill-rule="nonzero" d="M168.732 224.968c0 .72-.135 1.304-.45 1.844-.315.539-.854.944-1.574 1.259-.764.315-1.754.54-2.968.72-1.259.18-2.743.27-4.496.27-1.844 0-3.373-.09-4.587-.27-1.259-.18-2.249-.405-3.058-.72-.764-.315-1.349-.72-1.709-1.259a3.644 3.644 0 01-.495-1.844v-15.784c-6.25 6.791-12.726 12.052-19.426 15.829-6.745 3.778-14.075 5.666-22.08 5.666-8.679 0-16.098-1.708-22.214-5.081-6.161-3.373-11.153-7.96-14.975-13.716-3.777-5.756-6.565-12.501-8.319-20.28-1.754-7.78-2.653-15.964-2.653-24.553 0-10.208 1.079-19.427 3.283-27.611 2.203-8.229 5.441-15.245 9.758-21.045 4.272-5.801 9.623-10.253 16.009-13.356 6.34-3.103 13.67-4.677 22.034-4.677 6.926 0 13.266 1.529 19.022 4.542 5.756 3.058 11.422 7.51 17.043 13.401V49.545c0-.629.135-1.214.45-1.798.315-.585.899-.989 1.798-1.304.855-.315 1.979-.585 3.328-.81 1.394-.225 3.103-.315 5.217-.315 2.203 0 4.002.09 5.396.315 1.394.225 2.518.495 3.283.81.809.315 1.394.719 1.798 1.304.405.584.585 1.169.585 1.798v175.423zm-21.855-83.506c-5.846-7.33-11.512-12.907-16.998-16.729-5.486-3.822-11.197-5.756-17.133-5.756-5.531 0-10.208 1.304-14.075 3.957-3.868 2.654-6.97 6.116-9.399 10.433-2.383 4.272-4.137 9.174-5.216 14.615-1.124 5.441-1.664 10.972-1.664 16.593 0 5.981.45 11.827 1.394 17.538.9 5.711 2.518 10.793 4.767 15.244 2.293 4.452 5.306 8.005 9.084 10.703 3.732 2.653 8.499 4.002 14.164 4.002 2.879 0 5.667-.404 8.365-1.169 2.653-.809 5.396-2.113 8.184-3.957 2.788-1.844 5.756-4.227 8.814-7.195 3.058-2.923 6.296-6.521 9.713-10.838v-47.441z"/><path fill="none" d="M99.067 115.734l27 8.208v12.856M126.067 136.798v12.855l55.167-60.889a15.967 15.967 0 012.778-2.722 17.18 17.18 0 013.499-1.777c1.334-.5 2.945-.834 4.778-1 1.834-.167 4.056-.223 6.667-.223 2.722 0 5 .056 6.833.223 1.834.166 3.333.444 4.445.833 1.111.389 1.944.889 2.444 1.444.5.612.722 1.389.722 2.389 0 1.278-.333 2.611-1.055 3.889-.722 1.333-1.834 2.833-3.5 4.556l-52.778 53.111 59.444 77.333c1.389 1.889 2.389 3.333 3 4.5.612 1.167.889 2.222.889 3.167 0 .889-.222 1.666-.666 2.277-.445.667-1.167 1.223-2.167 1.667-1.056.389-2.5.722-4.333.945-1.834.222-4.167.333-7 .333-2.889 0-5.334-.056-7.223-.222-1.889-.167-3.5-.445-4.777-.834-1.334-.389-2.389-.944-3.167-1.611a12.442 12.442 0 01-2.222-2.555l-61.778-81.112v9.537M126.067 162.912v3.399l-27 8.883"/></svg><svg shape-rendering="geometricPrecision" text-rendering="geometricPrecision" image-rendering="optimizeQuality" fill-rule="evenodd" clip-rule="evenodd" viewBox="0 0 340 340" id="iconskills--figma" xmlns="http://www.w3.org/2000/svg"><path fill="#CCC" fill-rule="nonzero" d="M72.574 82.298c0-28.785 23.334-52.119 52.12-52.119h89.43c28.784 0 52.119 23.334 52.119 52.119 0 18.227-9.356 34.268-23.527 43.584 14.171 9.316 23.527 25.357 23.527 43.584 0 28.784-23.335 52.119-52.119 52.119h-1.132c-13.494 0-25.791-5.128-35.047-13.542v48.022c0 29.168-23.945 52.686-52.971 52.686-28.713 0-52.4-23.264-52.4-52.12 0-18.226 9.355-34.267 23.526-43.582-14.171-9.316-23.526-25.357-23.526-43.583 0-18.227 9.356-34.268 23.527-43.584-14.171-9.316-23.527-25.357-23.527-43.584zm88.298 52.121h-36.178c-19.357 0-35.048 15.691-35.048 35.047 0 19.281 15.57 34.926 34.823 35.047l.225-.001h36.178v-70.093zm17.073 35.047c0 19.356 15.691 35.047 35.047 35.047h1.132c19.356 0 35.047-15.691 35.047-35.047 0-19.356-15.691-35.047-35.047-35.047h-1.132c-19.356 0-35.047 15.691-35.047 35.047zm-53.251 52.119h-.225c-19.253.12-34.823 15.765-34.823 35.046 0 19.285 15.901 35.047 35.328 35.047 19.741 0 35.898-16.015 35.898-35.613v-34.48h-36.178zm0-174.334c-19.357 0-35.048 15.691-35.048 35.047 0 19.356 15.691 35.047 35.048 35.047h36.178V47.251h-36.178zm53.251 70.094h36.179c19.356 0 35.047-15.691 35.047-35.047 0-19.356-15.691-35.047-35.047-35.047h-36.179v70.094z"/><path fill="#E33500" d="M124.564 39.273c-23.762 0-43.025 19.263-43.025 43.025 0 23.763 19.263 43.025 43.025 43.025h44.415v-86.05h-44.415z"/><path fill="#F3501E" d="M124.693 47.251c-19.356 0-35.047 15.691-35.047 35.047 0 19.356 15.691 35.047 35.047 35.047h36.179V47.251h-36.179z"/><path fill="#FC5441" d="M169.838 39.273v86.05h44.414c23.763 0 43.026-19.262 43.026-43.025 0-23.762-19.263-43.025-43.026-43.025h-44.414z"/><path fill="#FF6F5E" d="M177.945 47.251v70.094h36.178c19.357 0 35.048-15.691 35.048-35.047 0-19.356-15.691-35.047-35.048-35.047h-36.178z"/><path fill="#37ADDB" d="M212.868 126.763c-23.584 0-42.702 19.119-42.702 42.703 0 23.584 19.118 42.702 42.702 42.702h1.379c23.585 0 42.703-19.118 42.703-42.702s-19.118-42.703-42.703-42.703h-1.379z"/><path fill="#54CBFA" d="M212.992 134.418c-19.357 0-35.047 15.692-35.047 35.048s15.69 35.047 35.047 35.047h1.131c19.357 0 35.048-15.691 35.048-35.047 0-19.356-15.691-35.048-35.048-35.048h-1.131z"/><path fill="#8855CF" d="M169.246 212.753v-86.575H124.56c-23.907 0-43.288 19.381-43.288 43.288 0 23.815 19.231 43.138 43.012 43.287h44.962z"/><path fill="#A569F9" d="M160.872 204.512v-70.094h-36.179c-19.356 0-35.047 15.692-35.047 35.048 0 19.281 15.57 34.926 34.823 35.046h36.403z"/><path fill="#13BF7D" d="M169.246 213.344h-44.962c-23.781.149-43.012 19.472-43.012 43.287 0 23.82 19.64 43.288 43.635 43.288 24.382 0 44.339-19.782 44.339-43.987v-42.588z"/><path fill="#14D088" d="M160.872 221.585h-36.403c-19.253.12-34.823 15.765-34.823 35.046 0 19.286 15.901 35.048 35.328 35.048 19.741 0 35.898-16.016 35.898-35.614v-34.48z"/></svg><svg shape-rendering="geometricPrecision" text-rendering="geometricPrecision" image-rendering="optimizeQuality" fill-rule="evenodd" clip-rule="evenodd" viewBox="0 0 340 340" id="iconskills--git" xmlns="http://www.w3.org/2000/svg"><defs><linearGradient id="bha" gradientUnits="userSpaceOnUse" x1="95.194" y1="240.207" x2="243.638" y2="91.753"><stop offset="0" stop-color="#F34C28"/><stop offset="1" stop-color="#FB4F28"/></linearGradient></defs><path fill="url(#bha)" fill-rule="nonzero" d="M307.163 155.274L183.861 31.981c-7.095-7.102-18.613-7.102-25.718 0L132.54 57.585l32.479 32.479c7.548-2.55 16.203-.84 22.22 5.178 6.045 6.054 7.743 14.783 5.131 22.356l31.302 31.302c7.573-2.609 16.311-.92 22.359 5.137 8.453 8.45 8.453 22.146 0 30.602-8.456 8.456-22.151 8.456-30.61 0-6.359-6.365-7.93-15.704-4.71-23.537l-29.192-29.192-.003 76.82a21.864 21.864 0 015.723 4.094c8.453 8.449 8.453 22.145 0 30.607-8.456 8.453-22.158 8.453-30.602 0-8.452-8.462-8.452-22.158 0-30.607a21.686 21.686 0 017.084-4.723v-77.536a21.373 21.373 0 01-7.084-4.722c-6.404-6.395-7.944-15.793-4.663-23.657L119.96 70.165l-84.545 84.539c-7.106 7.108-7.106 18.625 0 25.727l123.302 123.296c7.098 7.101 18.613 7.101 25.721 0l122.725-122.723c7.102-7.105 7.102-18.628 0-25.73z"/></svg><svg shape-rendering="geometricPrecision" text-rendering="geometricPrecision" image-rendering="optimizeQuality" fill-rule="evenodd" clip-rule="evenodd" viewBox="0 0 340 340" id="iconskills--gulp" xmlns="http://www.w3.org/2000/svg"><g fill-rule="nonzero"><path fill="#D34A47" d="M202.643 302.148l2.71-45.164 7.484-12.775s-17.033 6.968-45.55 6.968c-28.517 0-45.292-6.839-45.292-6.839l8.387 13.936 2.967 43.874c0 4.703 15.512 8.516 34.647 8.516 19.135 0 34.647-3.813 34.647-8.516zM194.093 91.243l5.689-22.486 31.505-33.15-8.304-7.073-33.354 35.313-6.605 26.866c-4.786-.162-9.78-.248-14.919-.248-35.127 0-63.604 4.003-63.604 8.94 0 4.938 28.477 8.941 63.604 8.941 35.127 0 63.603-4.003 63.603-8.941 0-3.635-15.444-6.765-37.615-8.162z"/><path fill="#fff" d="M190.784 103.836s-1.232.276-4.856.292c-3.626.015-6.199-.024-7.225-.958-.275-.25-.426-.748-.425-1.086.003-.641.459-1.019 1.039-1.256l.549.861c-.239.082-.375.18-.376.284-.002.487 3.707.821 6.544.785 2.837-.035 6.265-.269 6.268-.749 0-.146-.259-.282-.71-.39l.546-.856c.735.229 1.377.67 1.376 1.433-.008 1.297-1.658 1.495-2.73 1.64z"/><path fill="#D34A47" d="M231.225 35.672c.792-.915-.41-3.255-2.685-5.226-2.276-1.971-4.763-2.827-5.557-1.912-.793.915.41 3.256 2.686 5.226 2.275 1.971 4.763 2.827 5.556 1.912zM201.128 191.832c-.747-7.183 15.713-17.587 11.489-17.92-9.094.52-13.62 10.657-18.195 21.273-1.677 3.891-7.413 20.483-11.176 18.441-3.762-2.042 4.877-15.686 7.298-23.789-2.794 2.049-13.039 10.009-15.68 2.554-4.245 3.606-13.316 5.559-12.293-3.911-2.258 4-7.327 9.585-13.411 7.264-7.99-3.047 4.63-28.498 7.768-27.214 3.138 1.284-.634 7.081-1.621 9.333-2.173 4.955-4.682 11.183-3.006 12.458 2.872 2.185 10.688-8.264 10.862-8.493 1.462-1.932 5.627-14.567 8.983-13.116 3.357 1.451-8.372 18.133-3.987 21.444.885.668 4.504-.412 6.705-2.794 1.424-1.54.935-4.953 5.682-16.276 4.749-11.322 8.98-25.423 12.236-24.349 3.257 1.074.573 8.311-.595 11.009-5.482 12.662-14.961 33.582-10.491 31.998 4.471-1.583 6.798-1.676 11.176-6.799 4.377-5.122 4.175-13.56 7.093-13.381 2.919.18 2.429 2.886 1.721 4.946 2.872-3.287 13.612-10.208 16.206-3.353 3.071 8.115-15.367 19.837-10.77 19.239 4.482-.583 11.744-5.181 14.844-9.364l8.534-76.724s-8.587 7.107-63.221 7.107c-54.635 0-62.334-6.959-62.334-6.959l7.266 70.031c3.856-10.961 13.014-33.131 27.45-32.387 6.566.339 15.332 12.983 7.823 13.411-3.178.181-3.501-6.311-7.264-7.265-2.716-.688-6.497 1.52-8.941 3.912-4.874 4.77-15.355 23.588-13.97 32.969 1.764 11.961 16.505-4.156 18.999-8.941 1.756-3.371 2.943-13.357 6.785-12.309s-.335 11.354-3.12 20.466c-3.129 10.232-4.773 21.024-8.694 19.783-3.922-1.241 2.466-14.449 2.235-16.764-3.686 3.401-10.476 12.01-19.163 7.749l4.512 43.489s11.993 9.475 48.12 9.475c36.126 0 48.563-9.327 48.563-9.327l5.603-50.371c-4.584 4.464-19.092 12.391-20.021 3.455z"/></g></svg><svg shape-rendering="geometricPrecision" text-rendering="geometricPrecision" image-rendering="optimizeQuality" fill-rule="evenodd" clip-rule="evenodd" viewBox="0 0 340 340" id="iconskills--html5" xmlns="http://www.w3.org/2000/svg"><g fill-rule="nonzero"><path fill="#E34E26" d="M70.673 278.467L48.527 30.056h243.237l-22.173 248.431-99.504 27.583z"/><path fill="#EF662A" d="M170.146 54.818v225.725l77.414-21.459 18.239-204.266z"/><path fill="#fff" d="M96.728 84.135l7.902 88.644h101.601l-3.41 38.022-32.713 8.844-32.651-8.831-2.183-24.414h-29.425l4.208 47.062 60.044 16.676 60.119-16.676 8.06-89.992H131.44l-2.683-30.019H240.937l2.626-29.316z"/><path fill="#EBEBEB" d="M170.146 84.135H96.728l7.902 88.644h65.516V143.47H131.44l-2.683-30.019h41.389zM170.146 219.632l-.038.013-32.651-8.831-2.183-24.414h-29.425l4.208 47.062 60.044 16.676.045-.013z"/></g></svg><svg shape-rendering="geometricPrecision" text-rendering="geometricPrecision" image-rendering="optimizeQuality" fill-rule="evenodd" clip-rule="evenodd" viewBox="0 0 340 340" id="iconskills--js3" xmlns="http://www.w3.org/2000/svg"><g fill-rule="nonzero"><path fill="#D99A26" d="M173.829 307.612L73.634 279.791 51.299 29.337h245.357l-22.335 250.419z"/><path fill="#E7B623" d="M249.902 257.609l17.862-200.081h-93.78v221.13z"/><path fill="#FEFEFE" d="M179.182 86.252v28.715l64.199-1.403 2.444-27.312zM232.905 144.385h-53.723V173.1l36.628-2.387-3.31 38.464-33.318 8.384v29.851l53.573-14.863.433-4.845 6.754-75.613.693-7.706z"/><path fill="#FEFEFE" d="M202.897 159.112h-23.715V100.61h26.355z"/><path fill="#F0F0F0" d="M167.853 217.348l-37.156-10.543-1.186-16.069-18.51-3.278 4.019 45.091 52.833 14.666z"/><path fill="#F0F0F0" d="M167.853 86.252h-24.397l5.071 147.172h19.326z"/></g></svg><svg shape-rendering="geometricPrecision" text-rendering="geometricPrecision" image-rendering="optimizeQuality" fill-rule="evenodd" clip-rule="evenodd" viewBox="0 0 392 340.005" id="iconskills--sass" xmlns="http://www.w3.org/2000/svg"><path fill="#CD6799" fill-rule="nonzero" d="M328.535 190.703c-12.688.066-23.715 3.121-32.949 7.639-3.388-6.709-6.776-12.688-7.373-17.072-.665-5.115-1.462-8.237-.665-14.349.797-6.111 4.385-14.813 4.318-15.477-.066-.665-.797-3.787-8.104-3.853-7.307-.067-13.618 1.395-14.349 3.322-.73 1.926-2.125 6.31-3.055 10.827-1.262 6.643-14.615 30.358-22.254 42.78-2.458-4.85-4.583-9.101-5.048-12.489-.665-5.115-1.462-8.236-.665-14.348.798-6.112 4.385-14.814 4.318-15.478-.066-.664-.796-3.786-8.104-3.853-7.307-.066-13.618 1.395-14.348 3.321-.731 1.927-1.528 6.444-3.056 10.829-1.528 4.384-19.264 43.975-23.914 54.205a307.564 307.564 0 01-5.912 12.289s-.067.199-.266.531c-1.262 2.458-1.993 3.787-1.993 3.787v.066c-.996 1.794-2.059 3.454-2.59 3.454-.399 0-1.13-4.782.132-11.293 2.657-13.75 8.968-35.14 8.902-35.871 0-.398 1.196-4.118-4.118-6.045-5.182-1.926-7.042 1.263-7.507 1.263-.465 0-.797 1.129-.797 1.129s5.779-24.047-11.028-24.047c-10.495 0-24.976 11.492-32.151 21.854a9437.168 9437.168 0 00-24.445 13.353c-3.919 2.192-7.971 4.384-11.758 6.443-.266-.265-.532-.597-.797-.863-20.327-21.722-57.926-37.067-56.331-66.229.598-10.628 4.251-38.528 72.208-72.406 55.932-27.568 100.438-19.929 108.145-2.99 11.026 24.18-23.848 69.085-81.641 75.595-22.054 2.458-33.612-6.044-36.535-9.233-3.056-3.322-3.521-3.521-4.65-2.856-1.86.996-.665 3.985 0 5.712 1.726 4.517 8.835 12.489 20.858 16.408 10.629 3.454 36.469 5.381 67.757-6.709 35.007-13.551 62.376-51.216 54.338-82.77-8.038-32.018-61.181-42.58-111.466-24.711-29.893 10.629-62.31 27.368-85.626 49.157-27.7 25.907-32.085 48.426-30.291 57.859 6.443 33.48 52.611 55.268 71.078 71.41-.93.531-1.794.996-2.525 1.395-9.233 4.584-44.44 22.984-53.208 42.448-9.965 22.054 1.594 37.863 9.233 39.989 23.715 6.577 48.094-5.248 61.18-24.778 13.087-19.529 11.492-44.905 5.447-56.53a1.372 1.372 0 00-.265-.398c2.391-1.395 4.849-2.857 7.24-4.252a353.78 353.78 0 0113.352-7.506c-2.258 6.178-3.919 13.551-4.716 24.179-.996 12.489 4.119 28.698 10.828 35.075 2.989 2.79 6.509 2.856 8.768 2.856 7.839 0 11.359-6.51 15.279-14.215 4.783-9.433 9.1-20.394 9.1-20.394s-5.38 29.627 9.234 29.627c5.314 0 10.695-6.908 13.086-10.429v.066s.133-.199.399-.664c.531-.863.864-1.395.864-1.395v-.133c2.125-3.72 6.908-12.156 14.016-26.172 9.167-18.069 18.002-40.654 18.002-40.654s.797 5.513 3.521 14.68c1.594 5.381 4.915 11.293 7.572 17.005-2.126 2.99-3.454 4.651-3.454 4.651l.066.066c-1.726 2.258-3.587 4.716-5.646 7.108-7.241 8.636-15.876 18.534-17.072 21.39-1.395 3.387-1.063 5.845 1.594 7.838 1.927 1.462 5.381 1.661 8.902 1.462 6.51-.465 11.093-2.06 13.352-3.056 3.52-1.262 7.639-3.189 11.492-6.045 7.107-5.248 11.425-12.754 11.027-22.652-.2-5.447-1.993-10.894-4.186-16.009.665-.93 1.263-1.86 1.927-2.79 11.227-16.408 19.928-34.41 19.928-34.41s.798 5.514 3.521 14.681c1.329 4.65 4.052 9.699 6.444 14.614-10.562 8.569-17.072 18.533-19.397 25.043-4.185 12.09-.93 17.537 5.247 18.8 2.79.597 6.776-.732 9.699-1.994 3.72-1.195 8.104-3.254 12.289-6.31 7.108-5.248 13.95-12.555 13.551-22.453-.199-4.517-1.394-8.967-3.055-13.286 8.968-3.72 20.526-5.779 35.273-4.051 31.62 3.72 37.864 23.449 36.668 31.752-1.195 8.304-7.838 12.821-10.03 14.216-2.192 1.394-2.923 1.86-2.724 2.856.266 1.462 1.329 1.395 3.189 1.129 2.591-.464 16.607-6.709 17.204-21.987.997-19.53-17.603-40.853-50.484-40.654zM84.611 272.941c-10.496 11.425-25.11 15.743-31.421 12.089-6.776-3.919-4.118-20.791 8.769-32.882 7.838-7.373 17.935-14.215 24.644-18.4 1.528-.93 3.787-2.259 6.511-3.919.464-.266.73-.399.73-.399l1.594-.996c4.717 17.271.2 32.483-10.827 44.507zm76.392-51.947c-3.654 8.901-11.293 31.686-15.943 30.424-3.986-1.063-6.444-18.334-.797-35.406 2.856-8.57 8.901-18.799 12.422-22.785 5.713-6.377 12.024-8.503 13.551-5.912 1.927 3.388-6.974 28.099-9.233 33.679zm63.04 30.159c-1.528.796-2.989 1.328-3.653.929-.466-.266.664-1.329.664-1.329s7.904-8.502 11.027-12.355c1.793-2.258 3.919-4.915 6.178-7.905v.864c0 10.163-9.832 17.005-14.216 19.796zm48.626-11.094c-1.13-.797-.931-3.455 2.856-11.758 1.461-3.255 4.916-8.702 10.828-13.95.664 2.126 1.129 4.185 1.062 6.112-.066 12.82-9.233 17.603-14.746 19.596z"/></svg><svg shape-rendering="geometricPrecision" text-rendering="geometricPrecision" image-rendering="optimizeQuality" fill-rule="evenodd" clip-rule="evenodd" viewBox="0 0 340 340" id="iconskills--svg" xmlns="http://www.w3.org/2000/svg"><defs><linearGradient id="bma" gradientUnits="userSpaceOnUse" x1="273.619" y1="52.221" x2="145.12" y2="169.283"><stop offset="0" stop-color="#666"/><stop offset=".702" stop-color="#333"/><stop offset="1"/></linearGradient><linearGradient id="bmb" gradientUnits="userSpaceOnUse" x1="167.871" y1="151.252" x2="263.373" y2="51.254"><stop offset="0" stop-color="#CFCFCF"/><stop offset=".369" stop-color="#9B9B9B"/><stop offset="1" stop-color="#666"/></linearGradient></defs><g fill-rule="nonzero"><path fill="url(#bma)" d="M293.842 193.632c14.682-14.682 14.682-38.572 0-53.255-7.112-7.112-16.569-11.029-26.627-11.029-2.388 0-4.74.218-7.033.648 9.995-6.837 16.471-18.333 16.471-31.116 0-20.764-16.892-37.657-37.656-37.657-12.809 0-24.324 6.503-31.156 16.531 2.26-11.922-1.285-24.663-10.341-33.719-7.113-7.113-16.569-11.03-26.628-11.03-10.059 0-19.515 3.917-26.627 11.03-9.057 9.056-12.602 21.798-10.342 33.719-6.831-10.028-18.348-16.531-31.156-16.531-20.764 0-37.657 16.893-37.657 37.657 0 12.783 6.477 24.279 16.471 31.115a38.214 38.214 0 00-7.032-.647c-10.059 0-19.515 3.918-26.627 11.03-7.113 7.112-11.03 16.569-11.03 26.627 0 10.059 3.917 19.515 11.03 26.628 7.112 7.112 16.569 11.028 26.627 11.028 2.388 0 4.738-.217 7.032-.647-9.994 6.837-16.471 18.333-16.471 31.116 0 20.764 16.893 37.656 37.657 37.656 12.808 0 24.325-6.502 31.156-16.531-2.26 11.923 1.285 24.664 10.342 33.721 7.112 7.112 16.569 11.029 26.627 11.029 10.059 0 19.515-3.917 26.628-11.03 9.056-9.056 12.601-21.798 10.341-33.72 6.831 10.028 18.347 16.531 31.156 16.531 20.764 0 37.656-16.892 37.656-37.656 0-12.783-6.476-24.279-16.471-31.116 2.294.43 4.645.647 7.033.647 10.058 0 19.515-3.916 26.627-11.029z"/><path fill="url(#bmb)" d="M282.48 151.733c-8.435-8.434-22.109-8.434-30.544 0h-44.202l31.256-31.256c11.928 0 21.597-9.669 21.597-21.597s-9.669-21.598-21.597-21.598-21.597 9.67-21.597 21.598l-31.256 31.256V85.933c8.434-8.434 8.434-22.108-.001-30.543-8.434-8.434-22.109-8.434-30.543 0-8.434 8.435-8.434 22.109 0 30.543v44.203L124.337 98.88c0-11.928-9.669-21.598-21.597-21.598s-21.598 9.67-21.598 21.598c0 11.928 9.67 21.597 21.598 21.597l31.256 31.256H89.793c-8.434-8.434-22.109-8.434-30.543.001-8.435 8.434-8.435 22.109 0 30.543 8.434 8.434 22.109 8.434 30.543 0h44.203l-31.256 31.256c-11.928 0-21.598 9.669-21.598 21.597s9.67 21.597 21.598 21.597c11.928 0 21.597-9.669 21.597-21.597l31.256-31.256v44.202c-8.434 8.435-8.434 22.11 0 30.544 8.434 8.434 22.11 8.434 30.544 0 8.434-8.434 8.434-22.109 0-30.544v-44.202l31.256 31.256c0 11.928 9.669 21.597 21.597 21.597s21.597-9.669 21.597-21.597-9.669-21.597-21.597-21.597l-31.256-31.256h44.202c8.435 8.434 22.109 8.434 30.544 0 8.434-8.434 8.434-22.11 0-30.544z"/></g><rect fill="#FFB13B" stroke="#1A1A1A" stroke-width="10" stroke-miterlimit="22.926" x="41.863" y="166.448" width="257.75" height="135.114" rx="12.369" ry="16"/><g fill="#1A1A1A"><path d="M111.392 220.304c4.227.824 7.981 2.923 10.368 6.894 3.166 5.266 3.512 13.854 3.512 19.853v10.092c0 5.972-.33 14.631-3.433 19.896-3.212 5.449-8.993 7.391-15.057 7.391H75.436c-6.088 0-11.884-1.949-15.108-7.42-3.122-5.296-3.468-13.859-3.468-19.867v-6.578l15.753-6.09c-4.215-.853-7.941-2.976-10.276-6.997-3.061-5.273-3.395-13.842-3.395-19.804v-7.802c0-5.956.338-14.508 3.395-19.775 3.196-5.504 8.998-7.453 15.094-7.453h28.588c6.006 0 11.687 1.909 14.993 7.199 3.163 5.062 3.635 12.671 3.635 18.492v5.68l-13.255 6.289zm-6.447-13.48H78.956v13.057h25.989v-13.057zM77.187 244.93v14.971h27.966v-14.97H77.431l-.244-.001zm91.98-1.73l18.335-60.556h21.516L177.161 284.43h-16.29l-33.234-101.786h22.324l19.206 60.556zm94.038-21.057h20.252v35.029c0 6.002-.35 14.548-3.468 19.838-3.23 5.479-9.051 7.42-15.144 7.42h-34.728c-6.114 0-11.971-1.958-15.179-7.482-3.08-5.302-3.432-13.779-3.432-19.776v-47.3c0-5.998.351-14.444 3.432-19.747 3.208-5.523 9.065-7.481 15.179-7.481h34.728c6.022 0 11.744 1.896 15.031 7.232 3.159 5.128 3.581 13.106 3.581 18.981v6.527l-20.252 6.759zm-.699-15.319h-30.049v53.077h30.049v-14.274h-21.753v-23.484h21.753v-15.319z"/><path d="M111.393 220.304c2.208.43 4.289 1.21 6.111 2.421a13.91 13.91 0 014.256 4.472c1.583 2.633 2.462 6.098 2.943 9.652.482 3.555.569 7.203.569 10.202v10.092c0 2.986-.083 6.644-.553 10.213-.47 3.57-1.329 7.052-2.88 9.683-1.501 2.549-3.566 4.33-5.959 5.505-2.722 1.336-5.87 1.886-9.098 1.886H75.436c-3.24 0-6.398-.552-9.128-1.893-2.401-1.179-4.472-2.968-5.98-5.526-1.561-2.648-2.429-6.114-2.905-9.667-.476-3.554-.563-7.197-.563-10.201v-6.578l15.752-6.09c-2.204-.446-4.276-1.24-6.083-2.471a13.766 13.766 0 01-4.192-4.526c-1.53-2.636-2.38-6.097-2.846-9.644-.466-3.546-.55-7.179-.55-10.16v-7.802c0-2.978.085-6.605.551-10.146.467-3.54 1.317-6.996 2.845-9.629 1.493-2.572 3.557-4.369 5.954-5.552 2.73-1.348 5.894-1.901 9.14-1.901h28.588c3.187 0 6.284.538 8.981 1.833 2.386 1.146 4.461 2.884 6.012 5.366 1.582 2.531 2.491 5.699 3.004 8.962.514 3.262.632 6.62.632 9.53v5.68h-.001l-13.254 6.289zm-6.448-13.48H78.956v13.057h25.989v-13.057zM77.187 244.93v14.971h27.966v-14.97H77.431l-.244-.001zm185.319-38.106h-30.049v53.077h30.049v-14.274h-21.753v-23.484h21.753v-15.319zm-138.988-10.588l-.001-.001a31.69 31.69 0 00-.07-.296l-.001-.001c-.41-1.678-.955-3.283-1.677-4.735v-.001a19.495 19.495 0 00-.127-.25l-.005-.009-.125-.238-.01-.018a16.24 16.24 0 00-.125-.225l-.015-.028-.122-.212-.021-.037-.12-.199-.028-.047-.059-.096-.055-.086-.043-.066a5.008 5.008 0 00-.111-.171c-.014-.023-.029-.044-.044-.066-.037-.056-.074-.112-.113-.167l-.046-.067-.113-.161-.064-.087a7.484 7.484 0 00-.181-.244c-.04-.054-.082-.107-.124-.16l-.042-.055-.128-.16-.042-.051-.131-.158a1.747 1.747 0 01-.041-.048l-.135-.156-.04-.045a10.157 10.157 0 00-.139-.154l-.038-.042a6.974 6.974 0 00-.143-.153l-.033-.035c-.129-.135-.26-.267-.393-.395l-.033-.033a10.27 10.27 0 00-.152-.143l-.038-.036a19.163 19.163 0 00-.152-.139l-.041-.036a6.463 6.463 0 00-.154-.135l-.042-.037a9.742 9.742 0 00-.155-.131l-.043-.036-.157-.127-.043-.035-.159-.125-.042-.032c-.072-.055-.144-.11-.217-.163l-.046-.035-.158-.113-.052-.037-.158-.11-.054-.036-.159-.107-.055-.036-.16-.103-.057-.035a14.095 14.095 0 00-.161-.1l-.058-.035a8.75 8.75 0 00-.163-.097l-.059-.034a9.455 9.455 0 00-.23-.13l-.217-.119a15.507 15.507 0 00-.229-.12l-.046-.023a6.392 6.392 0 00-.185-.093l-.041-.02c-.068-.034-.136-.066-.205-.099a.403.403 0 01-.03-.014c-.076-.035-.153-.071-.23-.105a16.818 16.818 0 00-1.456-.573c-2.232-.762-4.667-1.09-7.157-1.09H77.431c-2.23 0-4.421.261-6.459.862a12.479 12.479 0 00-.27.082l-.025.007-.243.079a.393.393 0 00-.032.01c-.078.026-.157.052-.235.08l-.035.012a9.117 9.117 0 00-.232.083l-.035.012c-.131.049-.26.098-.39.149l-.078.032-.176.071-.086.037-.164.07-.093.041a5.201 5.201 0 00-.154.069l-.099.046-.141.066-.109.053a6.066 6.066 0 00-.115.056l-.133.067a5.628 5.628 0 00-.109.056l-.13.068a4.986 4.986 0 00-.105.057l-.14.076-.092.052-.148.084-.08.047-.144.086a3.492 3.492 0 01-.081.049l-.142.089-.08.05-.14.091-.098.065-.122.082-.106.073-.113.08-.106.076-.114.084-.101.075-.129.098a2.49 2.49 0 00-.08.064 3.873 3.873 0 00-.125.099l-.082.066-.122.101-.082.068-.119.103-.104.092-.094.085-.111.101-.087.081-.111.106-.085.083-.108.106-.093.094-.095.099-.106.111-.079.085-.103.114a7.95 7.95 0 00-.084.094l-.096.109-.101.119-.076.09-.105.128-.069.086-.105.133-.068.088c-.034.045-.068.089-.101.135a6.144 6.144 0 00-.165.226l-.09.126-.072.104-.087.128-.079.119-.076.117-.095.149-.057.093-.097.161c-.017.028-.035.056-.051.085l-.05.083-.05.09-.04.069-.103.186-.033.062-.105.198-.028.054-.106.211-.023.046-.107.223-.018.039a12.686 12.686 0 00-.231.511l-.01.024c-.037.085-.073.17-.108.256l-.007.017c-.037.089-.073.178-.108.268l-.004.011-.107.276-.002.006c-.035.094-.071.189-.105.284v.002c-.174.483-.334.98-.481 1.488v.002c-.03.1-.058.201-.086.303l-.001.005-.082.302-.003.01-.077.298-.004.017c-.024.098-.049.195-.072.294a24.607 24.607 0 00-.074.313l-.007.03-.064.284-.009.038-.06.278-.009.047-.056.272-.011.053-.052.267-.012.06-.049.262-.012.066-.046.259-.012.069-.044.259-.011.068-.042.261-.011.067-.041.267-.008.058-.041.279-.007.045-.041.296-.003.026c-.485 3.589-.572 7.278-.572 10.299v7.802c0 3.213.097 7.183.666 10.986l.001.008.046.301a.842.842 0 01.008.053l.042.258a16.337 16.337 0 00.053.315l.02.117.035.198.026.14.033.176.03.159.031.159.035.171.029.146.038.18.03.138a12.383 12.383 0 00.07.317l.043.188.031.128c.014.063.03.126.045.188l.031.128.047.186.033.127.048.182.035.131.049.176.038.134.049.17.04.138.05.163.043.142.049.156.048.147.048.147a9.092 9.092 0 00.1.291l.055.157.047.132.059.161.047.124.063.165.046.116.068.168.045.11a6.759 6.759 0 00.117.274l.076.174.044.097.081.176.043.091.085.176.043.087.089.177.042.082.094.176.042.079.097.175.042.075.05.088c2.335 4.021 6.061 6.144 10.276 6.997l-15.753 6.09v6.578c0 3.235.101 7.211.681 11.018l.004.028.045.29.009.055.044.264.013.076c.013.082.027.163.042.245l.016.092.041.229.02.105.041.217.022.113.042.209.024.118.043.203.025.121.044.199.027.123.046.197.028.122.047.197.03.119.049.197.03.116.052.198.031.113.054.2.031.109.057.201.031.105.061.201.031.102.064.203.031.097.067.204.031.093.07.205.032.09.073.204.032.087.077.204.032.084.079.203.033.082.082.201.034.081.085.198.035.08.088.195.036.079.09.192.037.078.093.189.038.077.095.185.04.076a10.515 10.515 0 00.14.258l.099.177.044.076.05.087.051.085.048.079c.034.056.068.113.103.168l.048.076.106.165.052.079.105.157.08.116.112.16c.017.022.033.044.048.067l.122.165.043.056c.041.056.084.111.126.166l.041.052.13.163.04.049c.044.055.089.108.134.162l.039.045a5.276 5.276 0 00.174.201l.143.16.018.02c.075.081.15.162.227.241l.024.026.151.154.036.035c.049.05.1.099.15.148l.039.037c.05.049.101.096.152.144l.04.037.154.14.04.036.157.136.04.035.16.134.034.029c.078.063.155.126.234.188a22.276 22.276 0 00.192.148l.047.036.159.118.051.037.159.113.054.037.16.11.056.038.16.105.06.039.158.1.072.045.149.09a6.688 6.688 0 00.262.153l.076.044.158.087.07.039.161.085.069.036c.054.029.109.057.163.084l.07.035c.058.029.116.058.175.085l.059.029.194.091.056.025.202.091.05.022.217.092.038.016c.217.09.437.176.658.257l.014.005c.084.031.168.06.252.089l.026.01.243.082.028.009c.081.026.163.053.245.078l.025.008.255.077.016.005c.6.176 1.213.323 1.837.442l.001.001c1.491.286 3.041.416 4.61.416h31.346c1.462 0 2.907-.113 4.304-.361l.007-.002.277-.051.014-.002c.09-.018.18-.035.269-.054l.017-.003.27-.058.013-.003c.236-.052.47-.108.702-.169l.012-.003.258-.069.05-.014.217-.062.064-.019.2-.061.073-.022.186-.06.083-.027.169-.057.098-.034.133-.047.13-.047.105-.039.156-.059.099-.038.16-.065.091-.037.166-.069.081-.035.153-.067.089-.04.152-.07.083-.039.16-.076.06-.03c.063-.03.125-.062.188-.093l.063-.033c.061-.031.121-.062.18-.094l.062-.033.174-.095.06-.033.166-.095.064-.037.16-.095.067-.04.156-.097.067-.042c.051-.033.103-.065.154-.099l.078-.051c.048-.031.094-.063.141-.095.031-.02.06-.041.09-.062l.13-.09.092-.066a5.49 5.49 0 00.215-.158l.135-.102.076-.059c.044-.033.087-.068.13-.102l.077-.062.126-.104.078-.064.123-.106.099-.085.1-.09.106-.096.092-.085.106-.1.092-.089.101-.099.103-.103.086-.088.108-.113.077-.083.106-.114.081-.089.099-.113.098-.114a6.512 6.512 0 00.182-.217l.072-.089.103-.128a3.21 3.21 0 00.071-.092l.099-.128.075-.101.091-.124.091-.127.071-.101a9.76 9.76 0 00.167-.245l.077-.117.094-.147a4.66 4.66 0 00.058-.092l.099-.16a2.28 2.28 0 01.05-.083l.05-.083a3.927 3.927 0 00.092-.161c.035-.06.069-.122.103-.183l.035-.064a18.943 18.943 0 00.242-.463l.023-.046c.037-.074.074-.148.11-.224l.017-.037.111-.237.013-.028.111-.25.009-.021c.038-.086.075-.173.111-.261l.006-.013.11-.272.003-.007.11-.282v-.001c.291-.767.546-1.573.766-2.406h.001l.08-.311.002-.005.076-.308.003-.011.072-.305.004-.017.068-.301.005-.023.064-.296.006-.029.061-.293.006-.034c.02-.097.039-.193.057-.29l.008-.038.054-.288.007-.04.052-.29.006-.039.05-.292.006-.037.049-.298.004-.029.048-.31.002-.017c.574-3.825.67-7.822.67-11.039v-10.092c0-3.232-.101-7.215-.689-11.026l-.002-.014-.048-.306-.006-.036-.047-.284-.01-.056-.047-.267-.012-.068-.047-.254-.014-.078a17.723 17.723 0 00-.047-.245l-.017-.085-.048-.237-.018-.09a15.815 15.815 0 01-.049-.232l-.021-.092-.05-.228-.021-.093-.053-.227-.022-.092-.055-.226-.022-.09-.058-.226-.022-.088-.06-.225-.024-.086c-.021-.076-.041-.151-.063-.226l-.023-.083-.066-.225-.024-.081-.069-.226-.024-.077-.072-.226a6.539 6.539 0 00-.024-.074l-.075-.226a2.05 2.05 0 01-.025-.072l-.078-.224-.025-.07a54.959 54.959 0 00-.081-.223l-.026-.069-.084-.221-.026-.067-.087-.218-.027-.067-.089-.214-.029-.067-.091-.211-.03-.067-.094-.206-.032-.068-.096-.201-.033-.069-.098-.196-.036-.07a16.35 16.35 0 00-.138-.262l-.1-.183-.042-.074-.1-.177c-.016-.025-.03-.051-.045-.076a6.533 6.533 0 00-.051-.086c-2.387-3.971-6.141-6.07-10.368-6.894l13.255-6.289v-5.68c0-3.683-.189-8.082-1.129-12.099zm-18.573 10.589H78.956v13.055h25.989v-13.055zM77.187 244.93v14.971h27.966v-14.97H77.431l-.244-.001zm91.98-1.731l18.335-60.555h21.517L177.161 284.43h-16.29-.001l-33.234-101.786H149.961l19.206 60.555zm94.04-21.057h20.25v35.03c0 3.001-.088 6.639-.565 10.186-.477 3.548-1.344 7.008-2.903 9.653-1.509 2.559-3.585 4.348-5.989 5.525-2.74 1.343-5.909 1.894-9.155 1.894h-34.728c-3.258 0-6.444-.556-9.194-1.912-2.41-1.187-4.488-2.99-5.986-5.569-1.539-2.651-2.398-6.097-2.87-9.628-.473-3.531-.561-7.15-.561-10.149v-47.3c0-2.998.088-6.61.56-10.134.473-3.524 1.331-6.962 2.871-9.613 1.498-2.579 3.576-4.382 5.986-5.57 2.75-1.355 5.936-1.911 9.194-1.911h34.728c3.203 0 6.321.536 9.032 1.841 2.387 1.148 4.461 2.893 5.999 5.391 1.58 2.563 2.475 5.841 2.976 9.211.499 3.369.605 6.833.605 9.77V215.385l-20.25 6.757zm19.67-22.877a.578.578 0 00-.007-.044l-.037-.251-.012-.084-.036-.224-.015-.099-.034-.209-.019-.111-.034-.198-.022-.121-.034-.188a6.982 6.982 0 00-.023-.128l-.035-.181-.025-.133-.036-.175a33.612 33.612 0 00-.027-.137l-.036-.172-.03-.138a10.326 10.326 0 00-.037-.17l-.03-.138-.039-.168-.032-.138-.04-.168-.033-.136-.042-.168a5.164 5.164 0 00-.034-.133l-.044-.17a10.824 10.824 0 00-.116-.427l-.05-.173a4.341 4.341 0 00-.035-.122l-.052-.175-.036-.119-.055-.175c-.011-.039-.024-.077-.036-.115l-.057-.178-.037-.11-.06-.18-.037-.106-.064-.18a3.121 3.121 0 00-.037-.103l-.067-.182-.036-.098-.071-.184-.037-.094-.073-.184-.037-.09-.077-.185-.037-.087-.081-.185-.037-.084-.084-.184-.038-.081-.087-.184-.038-.078-.091-.183-.038-.075-.094-.183-.038-.072a8.144 8.144 0 00-.099-.182l-.037-.069-.102-.181-.039-.066a16.88 16.88 0 00-.144-.243l-.054-.09-.054-.086-.044-.07-.109-.169-.045-.069-.111-.166-.049-.071-.11-.158a11.06 11.06 0 00-.188-.259l-.057-.077-.116-.152-.051-.066-.119-.15-.052-.064-.12-.146a17.415 17.415 0 00-.175-.205l-.06-.069-.118-.132-.073-.08-.108-.116-.1-.106-.083-.086-.104-.105-.095-.094-.095-.094-.106-.101-.089-.083-.109-.1-.091-.082-.107-.095-.1-.087a3.998 3.998 0 00-.1-.083 6.137 6.137 0 00-.123-.104l-.078-.063a11.831 11.831 0 00-.338-.265l-.072-.055-.139-.103-.07-.05a7.68 7.68 0 00-.146-.104l-.08-.057-.141-.095a7.235 7.235 0 00-.228-.151l-.077-.05a21.825 21.825 0 00-.158-.099l-.065-.04-.156-.095-.068-.04-.157-.091-.068-.039a12.48 12.48 0 00-.228-.126l-.16-.086a2.924 2.924 0 00-.078-.041l-.154-.079-.096-.048-.14-.069-.111-.053a5.81 5.81 0 00-.114-.053l-.135-.062-.105-.048-.146-.064-.099-.042-.154-.065a10.73 10.73 0 00-.254-.103l-.092-.036a17.379 17.379 0 00-.127-.048l-.04-.015-.222-.082-.037-.013-.229-.08-.032-.011-.237-.079-.026-.008c-.083-.026-.165-.053-.248-.078a.154.154 0 00-.017-.005c-2.093-.639-4.348-.916-6.648-.916h-34.728c-.814 0-1.624.035-2.424.109h-.001c-.648.059-1.29.144-1.921.256l-.011.002a12.4 12.4 0 00-.278.051l-.014.003c-.093.017-.185.036-.277.055l-.01.002a19.96 19.96 0 00-1.277.308l-.021.006-.252.072-.033.01-.24.073-.037.011-.235.076-.038.012-.236.08-.033.011c-.086.031-.172.061-.257.093l-.01.003a14.78 14.78 0 00-.398.152l-.039.015c-.074.03-.147.059-.22.09l-.053.022-.204.087-.058.025a16.964 16.964 0 00-.256.116l-.192.09-.062.03a8.738 8.738 0 00-.168.083l-.079.039-.152.078-.088.046-.142.076-.098.054c-.044.023-.087.048-.131.073l-.117.066-.11.064-.132.079a4.586 4.586 0 00-.093.056l-.13.081a5.11 5.11 0 00-.096.061l-.125.08c-.04.027-.081.053-.121.081a5.952 5.952 0 00-.313.214l-.134.096-.081.059a6.592 6.592 0 00-.213.161 6.503 6.503 0 00-.131.101l-.09.071-.117.094-.104.086-.142.12-.057.049-.149.131a1.859 1.859 0 01-.048.043c-.051.046-.101.091-.15.138l-.044.04-.151.143-.039.038-.151.15-.033.033-.155.158-.017.019c-.139.145-.274.294-.408.446l-.02.023c-.049.057-.099.114-.147.173l-.028.033a7.659 7.659 0 00-.173.211l-.138.175-.032.041c-.045.058-.09.117-.134.177l-.032.043c-.044.06-.088.119-.131.18l-.033.046a11.11 11.11 0 00-.146.21l-.058.085-.11.167a2.843 2.843 0 00-.046.071l-.108.169-.046.075-.103.169-.048.082-.05.084a4.396 4.396 0 00-.053.093l-.036.063-.11.198-.026.048-.115.217-.017.033-.12.236-.009.019c-.041.084-.083.169-.123.254l-.002.005c-.676 1.427-1.192 3.025-1.586 4.708l-.003.013-.068.297-.006.028-.062.284-.009.042-.057.271-.011.057-.052.259-.013.07a21.45 21.45 0 00-.047.247l-.016.083-.042.237a2.618 2.618 0 00-.017.094l-.039.228-.018.102-.036.223-.017.106-.035.222-.016.105-.034.226-.014.1-.034.236-.011.087c-.013.088-.024.177-.036.265l-.005.041c-.452 3.466-.537 7.003-.537 9.95v47.3c0 3.137.097 6.951.629 10.635l.003.02c.014.1.029.201.045.301l.005.038.045.285.007.049.046.276.009.055a25.593 25.593 0 00.106.598l.01.054.051.273a.819.819 0 00.01.048l.055.278a.736.736 0 01.008.041l.06.286.006.031.064.293.005.021c.022.101.045.201.069.302l.002.011.074.309.001.002c.358 1.467.811 2.864 1.386 4.133l.002.006.12.259.008.017a13.718 13.718 0 00.268.54l.112.211.029.053.107.194.037.065.053.092.05.085.048.081a9.5 9.5 0 00.103.169l.046.076.108.168.046.072.11.167.058.084c.048.071.097.141.146.21l.033.047.131.179.032.044.134.177.032.041a13.228 13.228 0 00.339.419l.147.173.02.022c.134.153.269.302.408.447l.017.018c.051.054.103.106.155.159l.033.033.151.15.039.037.151.144.044.04a6.591 6.591 0 00.198.18c.049.045.099.088.149.131l.057.05.142.12a7.767 7.767 0 00.221.179l.09.072.131.101.08.061.133.1.081.058c.044.033.089.064.134.096l.086.06.13.09.097.065.121.08.125.081.096.061a5.646 5.646 0 00.223.137l.132.078a6.246 6.246 0 00.227.131l.131.073.098.054.142.076.088.046.152.078.079.039.168.083.062.029c.064.031.127.061.192.09l.06.028.196.088.058.025.204.088.053.022.22.089.039.016c.132.052.265.103.398.152l.01.003a19.427 19.427 0 00.29.104l.236.08.038.012c.078.026.156.051.235.075l.037.012.24.073.033.009.252.072.021.006a19.308 19.308 0 001.564.366l.014.003.278.051.011.002c.631.112 1.273.196 1.921.256h.001c.8.073 1.61.109 2.424.109h34.728c2.991 0 5.916-.468 8.501-1.593a18.457 18.457 0 00.257-.114l.018-.008.238-.111.02-.01a6.814 6.814 0 00.249-.122l.179-.091.061-.032.162-.086c.027-.015.055-.029.081-.045l.143-.078.115-.065.109-.064.132-.077.091-.055.134-.083.086-.054.138-.089a5.655 5.655 0 00.222-.147l.105-.071.117-.082.102-.073a5.342 5.342 0 00.216-.158l.134-.101.077-.06.13-.102.078-.062.127-.105.077-.064a6.4 6.4 0 00.219-.188l.107-.095.103-.093.095-.088a8.163 8.163 0 00.4-.389l.091-.093.109-.113.078-.083.105-.114.081-.089.099-.113a12.4 12.4 0 00.102-.118l.076-.09a6.587 6.587 0 00.175-.212l.108-.135.066-.084a16.326 16.326 0 00.173-.227l.098-.135.083-.115.08-.114a5.518 5.518 0 00.171-.252l.072-.108.098-.152.055-.089.1-.162.05-.083.051-.084.051-.088.042-.074.101-.179.04-.073.1-.186.037-.07.098-.192.035-.069.097-.198.032-.068.095-.202.031-.068.092-.206.03-.068.09-.21.029-.068.087-.214a1.95 1.95 0 01.028-.068l.085-.217.026-.07.082-.217.027-.073a53.043 53.043 0 00.179-.512l.027-.08.071-.216.028-.085.067-.215.028-.09.063-.211.028-.096a7.17 7.17 0 00.089-.31l.056-.206.029-.107.054-.202.028-.113.051-.199.028-.118.048-.198.028-.12.046-.197.027-.123.043-.198c.01-.04.018-.082.027-.122l.042-.201.024-.12.042-.207.022-.115.042-.216.019-.103.042-.231.015-.089.044-.25.011-.067a13.298 13.298 0 00.052-.316l.049-.311v-.001c.582-3.806.684-7.779.684-11.015v-35.029h-20.252l20.252-6.759v-6.527c0-2.886-.102-6.279-.58-9.592zm-20.372 7.56h-30.047v53.076h30.047v-14.274h-21.752-.001v-23.484l.001-.001h21.752v-15.317z"/></g><path fill="#90C" fill-rule="nonzero" d="M110.945 200.824H72.956v25.057h33.826c4.788 0 8.066 1.479 9.835 4.408 1.77 2.958 2.655 8.555 2.655 16.762v10.092c0 8.294-.868 13.92-2.602 16.849-1.735 2.959-5.031 4.438-9.888 4.438H75.436c-4.857 0-8.17-1.479-9.939-4.466-1.752-2.988-2.637-8.585-2.637-16.821v-2.465l8.327-3.219v14.442h39.966v-26.97H77.431c-4.874 0-8.17-1.479-9.905-4.466-1.717-2.958-2.584-8.555-2.584-16.791v-7.802c0-8.207.867-13.804 2.584-16.762 1.735-2.987 5.031-4.466 9.905-4.466h28.588c4.787 0 8.083 1.45 9.905 4.379 1.821 2.9 2.723 8.004 2.723 15.312v1.885l-7.702 3.654v-13.05zM165.223 278.43l-29.316-89.786h9.662l23.731 74.821 22.655-74.821h8.898l-28.101 89.786zM268.506 200.824h-42.049v65.077h42.049v-26.274h-21.753v-11.484h30.704v29.029c0 8.207-.885 13.804-2.637 16.792-1.77 2.987-5.1 4.466-9.975 4.466h-34.728c-4.926 0-8.257-1.509-9.991-4.495-1.753-3.017-2.62-8.614-2.62-16.763v-47.3c0-8.149.867-13.717 2.62-16.733 1.734-2.987 5.065-4.495 9.991-4.495h34.728c4.823 0 8.119 1.45 9.923 4.379 1.786 2.9 2.689 8.178 2.689 15.834v2.204l-8.951 2.988v-13.225z"/><path fill="#1A1A1A" d="M110.945 200.825H72.956v25.055h33.826c2.391 0 4.406.37 6.044 1.104 1.642.736 2.907 1.839 3.792 3.304.884 1.479 1.548 3.617 1.99 6.411.442 2.795.664 6.247.664 10.352v10.092c0 8.294-.868 13.921-2.602 16.85-.867 1.478-2.126 2.588-3.773 3.328-1.648.739-3.687 1.109-6.115 1.109H75.436c-2.428 0-4.471-.37-6.127-1.113-1.657-.743-2.928-1.86-3.812-3.353-.877-1.495-1.537-3.646-1.977-6.454-.439-2.8-.66-6.254-.66-10.367v-2.465l8.327-3.219v14.442h39.966v-26.97H77.431c-2.437 0-4.48-.37-6.129-1.113-1.65-.742-2.909-1.859-3.776-3.353-.858-1.478-1.505-3.618-1.936-6.417-.431-2.798-.649-6.256-.649-10.374v-7.802c0-4.099.217-7.549.648-10.342.431-2.798 1.078-4.94 1.937-6.42.867-1.493 2.126-2.61 3.776-3.354 1.649-.742 3.692-1.112 6.129-1.112h28.588c2.394 0 4.415.363 6.065 1.091 1.65.729 2.93 1.823 3.84 3.288.91 1.449 1.592 3.451 2.045 6.003.453 2.552.679 5.655.679 9.309v1.885l-.001.001-7.702 3.654V200.825zm-38.921-11.36l-.006.002a25.894 25.894 0 00-.168.063l-.143.055-.024.01a7.095 7.095 0 00-.13.053l-.034.014-.119.051-.043.02-.109.049-.046.02-.109.052-.04.02-.113.055-.034.017-.118.061-.027.014-.122.066-.02.011-.127.072-.012.007a2.861 2.861 0 00-.132.078l-.006.003a7.919 7.919 0 00-2.816 2.852c-.738 1.272-1.319 3.032-1.741 5.276l-.001.005-.045.239-.001.01-.043.241-.001.01-.042.248-.001.004c-.472 2.86-.709 6.438-.709 10.729v7.802c0 4.181.224 7.682.668 10.503l.001.004.04.247.003.019.039.231.005.028c.013.074.025.147.039.22l.006.034.039.212.006.036.041.207.006.035a72.723 72.723 0 00.048.238l.043.205.006.028.045.206.005.023c.016.07.031.139.048.208l.003.016.05.211.003.009.052.215.001.001c.375 1.489.837 2.707 1.387 3.655a7.877 7.877 0 001.896 2.212l.002.002a5.577 5.577 0 00.127.099c.039.031.079.06.119.09l.01.008.117.084.015.011.114.079.02.014.111.074.026.017.108.069.031.019.106.065.035.021.103.061.04.023.101.057.044.024.1.054.047.025.1.051.049.025.1.05.05.024.103.048.049.023.108.048.043.02.119.051.034.014.13.053a.244.244 0 01.024.01l.143.055.014.005.154.058.006.002c1.512.548 3.314.821 5.407.821h33.722v26.97H71.187v-14.442l-8.327 3.219v2.465c0 8.236.885 13.833 2.637 16.821.235.396.497.765.786 1.109l.002.002.1.116.005.006.098.11.009.01a4.815 4.815 0 00.11.117l.096.099.016.017.094.093.02.02.093.088.024.022.091.083.028.026.088.078a.819.819 0 01.033.028l.086.073.038.031.084.068.042.034.081.063.048.036.078.059.052.038.076.055.057.04.073.05.062.042.071.047.067.043.068.044.071.044.066.04.075.045.065.038.079.045.063.036.082.044.064.034.083.044.065.033.084.043.067.032.083.041.07.032.082.038.076.034.075.033.088.038.065.026a10.126 10.126 0 00.155.063l.113.044.044.017.125.046.034.013.138.048.024.009.15.049.014.005c.053.018.107.035.161.051l.005.002c1.407.435 3.039.652 4.897.652h31.346c4.857 0 8.153-1.479 9.888-4.438 1.734-2.929 2.602-8.555 2.602-16.849v-10.092c0-8.207-.885-13.804-2.655-16.762-1.769-2.929-5.047-4.408-9.835-4.408H72.956v-25.057h37.989v13.05l7.702-3.654v-1.885c0-7.308-.902-12.412-2.723-15.312-1.822-2.929-5.118-4.379-9.905-4.379H77.431c-2.093 0-3.895.273-5.407.821zM165.223 278.43l-29.316-89.786h9.663l23.73 74.82 22.654-74.82H200.854l-28.102 89.786h-7.529zM268.505 200.825h-42.047v65.076h42.047v-26.274h-21.752-.001v-11.484l.001-.001h30.704v29.03c0 4.104-.221 7.555-.661 10.353-.441 2.799-1.1 4.946-1.976 6.439-.884 1.493-2.16 2.611-3.823 3.353-1.663.743-3.714 1.113-6.152 1.113h-34.728c-2.463 0-4.527-.377-6.192-1.128-1.665-.75-2.933-1.874-3.8-3.367-.875-1.507-1.53-3.662-1.966-6.457-.436-2.794-.653-6.231-.653-10.306v-47.3c0-4.074.217-7.504.653-10.291.436-2.788 1.091-4.935 1.966-6.442.867-1.493 2.135-2.618 3.8-3.368s3.729-1.127 6.192-1.127h34.728c2.412 0 4.441.363 6.093 1.091 1.653.729 2.928 1.823 3.83 3.288.893 1.449 1.566 3.495 2.015 6.134.448 2.638.674 5.872.674 9.7v2.205l-8.951 2.987h-.001v-13.224zm8.258-1.779l-.004-.026-.038-.211-.007-.039-.037-.198-.009-.045-.037-.191-.009-.047a10.407 10.407 0 00-.038-.188l-.009-.044-.04-.189-.008-.037-.043-.194-.006-.028-.046-.201a.124.124 0 01-.004-.016l-.05-.21-.001-.004c-.417-1.705-.953-3.09-1.609-4.155-1.804-2.929-5.1-4.379-9.923-4.379h-34.728c-4.926 0-8.257 1.508-9.991 4.495-1.753 3.016-2.62 8.584-2.62 16.733v47.3c0 8.149.867 13.746 2.62 16.763 1.734 2.986 5.065 4.495 9.991 4.495h34.728c1.941 0 3.637-.235 5.087-.706l.007-.002.159-.053a.088.088 0 01.015-.005l.147-.052a.694.694 0 00.025-.009l.136-.05.034-.013.124-.048a.766.766 0 01.043-.017l.114-.046.051-.021.103-.044.059-.026.093-.042.065-.029.088-.042.066-.031.086-.042.065-.033.085-.043.063-.033.085-.046.06-.032.086-.048.057-.033.088-.051.052-.031.089-.054a.812.812 0 00.049-.031l.091-.057.045-.029.093-.061.04-.028.095-.065.036-.025.097-.07.032-.023.099-.074.027-.021.101-.078a7.432 7.432 0 00.126-.102l.02-.016a9.39 9.39 0 00.103-.087l.017-.015.105-.091.013-.012c.035-.032.071-.064.105-.097l.011-.009a9.87 9.87 0 00.106-.101l.007-.007.107-.105a5.551 5.551 0 00.111-.115l.003-.003c.036-.037.071-.075.106-.114h.001c.374-.409.706-.859.997-1.348 1.752-2.988 2.637-8.585 2.637-16.792v-29.029h-30.704v11.484h21.753v26.274h-42.049v-65.077h42.049v13.225l8.951-2.988v-2.204c0-3.882-.232-7.152-.694-9.811z"/></svg><svg shape-rendering="geometricPrecision" text-rendering="geometricPrecision" image-rendering="optimizeQuality" fill-rule="evenodd" clip-rule="evenodd" viewBox="0 0 340 340" id="iconskills--vscode" xmlns="http://www.w3.org/2000/svg"><path fill="#016EC5" fill-rule="nonzero" d="M238.294 32.481v235.277L32.86 237.246l205.434 69.175 68.486-28.489V65.217l.022-.01-.022-.046v-4.189l-68.486-28.491zm-71.891 40.083l-62.924 62.199-37.883-28.531-15.613 5.215 38.542 38.099-38.542 38.097 15.613 5.217 37.883-28.532h.002l62.92 62.195 37.685-16.012V88.576l-37.683-16.012zm-.002 44.38v65.197l-43.29-32.599 43.29-32.598z"/></svg><svg aria-hidden="true" data-prefix="fab" data-icon="facebook" viewBox="0 0 512 512" class="bosvg-inline--fa bofa-facebook bofa-w-16 bofa-9x" id="iconsocials--facebook-round" xmlns="http://www.w3.org/2000/svg"><path fill="currentColor" d="M504 256C504 119 393 8 256 8S8 119 8 256c0 123.78 90.69 226.38 209.25 245V327.69h-63V256h63v-54.64c0-62.15 37-96.48 93.67-96.48 27.14 0 55.52 4.84 55.52 4.84v61h-31.28c-30.8 0-40.41 19.12-40.41 38.73V256h68.78l-11 71.69h-57.78V501C413.31 482.38 504 379.78 504 256z"/></svg><svg fill="none" viewBox="0 0 30 30" id="iconsocials--fb" xmlns="http://www.w3.org/2000/svg"><path d="M25.605 0H4.395A4.4 4.4 0 000 4.395v21.21A4.4 4.4 0 004.395 30h8.847V19.395H9.727V14.12h3.515v-3.574a5.28 5.28 0 015.274-5.274h5.332v5.274h-5.332v3.574h5.332l-.88 5.274h-4.452V30h7.09A4.4 4.4 0 0030 25.605V4.395A4.4 4.4 0 0025.605 0z" fill="#21243D"/></svg><svg fill="none" viewBox="0 0 30 30" id="iconsocials--insta" xmlns="http://www.w3.org/2000/svg"><path d="M21.72 0H8.28C3.714 0 0 3.714 0 8.279V21.72C0 26.286 3.714 30 8.279 30H21.72C26.286 30 30 26.286 30 21.721V8.28C30 3.714 26.286 0 21.72 0zm5.618 21.721a5.624 5.624 0 01-5.617 5.617H8.28a5.623 5.623 0 01-5.617-5.617V8.28a5.624 5.624 0 015.617-5.617H21.72a5.624 5.624 0 015.617 5.617V21.72z" fill="#21243D"/><path d="M15 7.27c-4.262 0-7.73 3.468-7.73 7.73 0 4.263 3.468 7.73 7.73 7.73 4.262 0 7.73-3.467 7.73-7.73 0-4.262-3.468-7.73-7.73-7.73zm0 12.798A5.074 5.074 0 019.932 15 5.074 5.074 0 0115 9.932 5.074 5.074 0 0120.069 15 5.074 5.074 0 0115 20.068zM23.055 5.013a1.96 1.96 0 00-1.38.572 1.962 1.962 0 00-.573 1.38c0 .513.21 1.017.574 1.38.362.363.866.572 1.379.572a1.97 1.97 0 001.38-.571c.364-.364.571-.868.571-1.38a1.96 1.96 0 00-.571-1.381 1.96 1.96 0 00-1.38-.572z" fill="#21243D"/></svg><svg aria-hidden="true" data-prefix="fab" data-icon="instagram-square" viewBox="0 0 448 512" class="brsvg-inline--fa brfa-instagram-square brfa-w-14 brfa-9x" id="iconsocials--instag" xmlns="http://www.w3.org/2000/svg"><path fill="currentColor" d="M224 202.66A53.34 53.34 0 10277.36 256 53.38 53.38 0 00224 202.66zm124.71-41a54 54 0 00-30.41-30.41c-21-8.29-71-6.43-94.3-6.43s-73.25-1.93-94.31 6.43a54 54 0 00-30.41 30.41c-8.28 21-6.43 71.05-6.43 94.33s-1.85 73.27 6.47 94.34a54 54 0 0030.41 30.41c21 8.29 71 6.43 94.31 6.43s73.24 1.93 94.3-6.43a54 54 0 0030.41-30.41c8.35-21 6.43-71.05 6.43-94.33s1.92-73.26-6.43-94.33zM224 338a82 82 0 1182-82 81.9 81.9 0 01-82 82zm85.38-148.3a19.14 19.14 0 1119.13-19.14 19.1 19.1 0 01-19.09 19.18zM400 32H48A48 48 0 000 80v352a48 48 0 0048 48h352a48 48 0 0048-48V80a48 48 0 00-48-48zm-17.12 290c-1.29 25.63-7.14 48.34-25.85 67s-41.4 24.63-67 25.85c-26.41 1.49-105.59 1.49-132 0-25.63-1.29-48.26-7.15-67-25.85s-24.63-41.42-25.85-67c-1.49-26.42-1.49-105.61 0-132 1.29-25.63 7.07-48.34 25.85-67s41.47-24.56 67-25.78c26.41-1.49 105.59-1.49 132 0 25.63 1.29 48.33 7.15 67 25.85s24.63 41.42 25.85 67.05c1.49 26.32 1.49 105.44 0 131.88z"/></svg><svg aria-hidden="true" data-prefix="fab" data-icon="instagram-square" viewBox="0 0 448 512" class="bssvg-inline--fa bsfa-instagram-square bsfa-w-14 bsfa-7x" id="iconsocials--instagram" xmlns="http://www.w3.org/2000/svg"><path fill="currentColor" d="M224 202.66A53.34 53.34 0 10277.36 256 53.38 53.38 0 00224 202.66zm124.71-41a54 54 0 00-30.41-30.41c-21-8.29-71-6.43-94.3-6.43s-73.25-1.93-94.31 6.43a54 54 0 00-30.41 30.41c-8.28 21-6.43 71.05-6.43 94.33s-1.85 73.27 6.47 94.34a54 54 0 0030.41 30.41c21 8.29 71 6.43 94.31 6.43s73.24 1.93 94.3-6.43a54 54 0 0030.41-30.41c8.35-21 6.43-71.05 6.43-94.33s1.92-73.26-6.43-94.33zM224 338a82 82 0 1182-82 81.9 81.9 0 01-82 82zm85.38-148.3a19.14 19.14 0 1119.13-19.14 19.1 19.1 0 01-19.09 19.18zM400 32H48A48 48 0 000 80v352a48 48 0 0048 48h352a48 48 0 0048-48V80a48 48 0 00-48-48zm-17.12 290c-1.29 25.63-7.14 48.34-25.85 67s-41.4 24.63-67 25.85c-26.41 1.49-105.59 1.49-132 0-25.63-1.29-48.26-7.15-67-25.85s-24.63-41.42-25.85-67c-1.49-26.42-1.49-105.61 0-132 1.29-25.63 7.07-48.34 25.85-67s41.47-24.56 67-25.78c26.41-1.49 105.59-1.49 132 0 25.63 1.29 48.33 7.15 67 25.85s24.63 41.42 25.85 67.05c1.49 26.32 1.49 105.44 0 131.88z"/></svg><svg fill="none" viewBox="0 0 30 30" id="iconsocials--linkedin" xmlns="http://www.w3.org/2000/svg"><path d="M25.605 0H4.395A4.4 4.4 0 000 4.395v21.21A4.4 4.4 0 004.395 30h21.21A4.4 4.4 0 0030 25.605V4.395A4.4 4.4 0 0025.605 0zm-15 23.79H7.09V11.483h3.515V23.79zm0-14.063H7.09V6.21h3.515v3.516zM22.91 23.789h-3.515v-7.031A1.76 1.76 0 0017.637 15a1.76 1.76 0 00-1.758 1.758v7.031h-3.516V11.484h3.516v.663c.92-.286 1.52-.663 2.637-.663 2.384.003 4.394 2.142 4.394 4.67v7.635z" fill="#21243D"/></svg><svg fill="none" viewBox="0 0 37 30" id="iconsocials--twitter" xmlns="http://www.w3.org/2000/svg"><path d="M36.923 3.552a15.782 15.782 0 01-4.361 1.195 7.526 7.526 0 003.33-4.184 15.126 15.126 0 01-4.8 1.832A7.585 7.585 0 0025.561 0c-4.19 0-7.564 3.402-7.564 7.572 0 .6.05 1.176.175 1.726C11.88 8.99 6.312 5.975 2.571 1.38a7.62 7.62 0 00-1.036 3.826 7.58 7.58 0 003.362 6.29 7.475 7.475 0 01-3.42-.931v.083c0 3.678 2.624 6.733 6.065 7.437a7.558 7.558 0 01-1.985.25c-.485 0-.974-.028-1.433-.13.98 2.998 3.764 5.202 7.073 5.274a15.21 15.21 0 01-9.385 3.228c-.621 0-1.217-.028-1.812-.104C3.353 28.765 7.327 30 11.612 30c13.93 0 21.545-11.538 21.545-21.54 0-.335-.012-.658-.028-.978 1.503-1.067 2.765-2.398 3.794-3.93z" fill="#21243D"/></svg><svg aria-hidden="true" data-prefix="fab" data-icon="twitter-square" viewBox="0 0 448 512" class="bvsvg-inline--fa bvfa-twitter-square bvfa-w-14 bvfa-7x" id="iconsocials--twitter-fill" xmlns="http://www.w3.org/2000/svg"><path fill="currentColor" d="M400 32H48C21.5 32 0 53.5 0 80v352c0 26.5 21.5 48 48 48h352c26.5 0 48-21.5 48-48V80c0-26.5-21.5-48-48-48zm-48.9 158.8c.2 2.8.2 5.7.2 8.5 0 86.7-66 186.6-186.6 186.6-37.2 0-71.7-10.8-100.7-29.4 5.3.6 10.4.8 15.8.8 30.7 0 58.9-10.4 81.4-28-28.8-.6-53-19.5-61.3-45.5 10.1 1.5 19.2 1.5 29.6-1.2-30-6.1-52.5-32.5-52.5-64.4v-.8c8.7 4.9 18.9 7.9 29.6 8.3a65.447 65.447 0 01-29.2-54.6c0-12.2 3.2-23.4 8.9-33.1 32.3 39.8 80.8 65.8 135.2 68.6-9.3-44.5 24-80.6 64-80.6 18.9 0 35.9 7.9 47.9 20.7 14.8-2.8 29-8.3 41.6-15.8-4.9 15.2-15.2 28-28.8 36.1 13.2-1.4 26-5.1 37.8-10.2-8.9 13.1-20.1 24.7-32.9 34z"/></svg></svg>