<svg xmlns="http://www.w3.org/2000/svg" width="2000" height="1000" shape-rendering="geometricPrecision" text-rendering="geometricPrecision" image-rendering="optimizeQuality" fill-rule="evenodd" clip-rule="evenodd"><rect fill="none" stroke="#B9EFE9" stroke-width="30" stroke-miterlimit="22.926" x="789.14" y="236.92" width="484.43" height="486.78" rx="217.38" ry="329.81"/><path fill="#B9EFE9" d="M1069.86 499.43l93.2-102.86c1.51-1.89 3.12-3.4 4.73-4.63 1.7-1.14 3.68-2.18 5.95-3.03 2.27-.85 5.02-1.42 8.14-1.7 3.12-.28 6.9-.38 11.34-.38 4.64 0 8.52.1 11.64.38 3.12.28 5.67.76 7.56 1.42 1.9.66 3.31 1.51 4.17 2.46.85 1.04 1.23 2.36 1.23 4.06 0 2.18-.57 4.45-1.8 6.62-1.23 2.27-3.12 4.83-5.96 7.76l-89.85 90.41 101.2 131.65c2.36 3.22 4.07 5.68 5.11 7.66 1.04 1.99 1.51 3.79 1.51 5.39 0 1.52-.38 2.84-1.14 3.88-.75 1.14-1.98 2.08-3.68 2.84-1.8.66-4.26 1.23-7.38 1.61-3.12.38-7.09.56-11.92.56-4.92 0-9.08-.09-12.29-.38-3.22-.28-5.96-.75-8.14-1.41-2.27-.67-4.06-1.61-5.39-2.75-1.41-1.23-2.64-2.64-3.78-4.35l-104.45-137.13v-8.08z"/><path fill="#B9EFE9" fill-rule="nonzero" d="M1065.97 642.37c0 1.51-.28 2.74-.95 3.88-.66 1.13-1.79 1.98-3.3 2.65-1.61.66-3.69 1.13-6.25 1.51-2.65.38-5.77.57-9.46.57-3.87 0-7.09-.19-9.64-.57-2.65-.38-4.73-.85-6.43-1.51-1.61-.67-2.84-1.52-3.6-2.65a7.706 7.706 0 01-1.04-3.88v-33.19c-13.14 14.28-26.76 25.34-40.85 33.29-14.19 7.94-29.6 11.91-46.44 11.91-18.25 0-33.86-3.59-46.72-10.68-12.96-7.1-23.45-16.74-31.49-28.85-7.95-12.11-13.81-26.29-17.5-42.65-3.69-16.37-5.58-33.58-5.58-51.64 0-21.47 2.27-40.86 6.9-58.07 4.64-17.31 11.45-32.06 20.53-44.26 8.98-12.2 20.24-21.56 33.67-28.09 13.33-6.53 28.75-9.84 46.34-9.84 14.56 0 27.9 3.22 40 9.56 12.11 6.43 24.03 15.79 35.85 28.18V273.43c0-1.32.28-2.55.94-3.78.66-1.23 1.89-2.08 3.79-2.74 1.79-.66 4.16-1.23 6.99-1.7 2.94-.48 6.53-.67 10.98-.67 4.63 0 8.41.19 11.34.67 2.94.47 5.3 1.04 6.91 1.7 1.7.66 2.93 1.51 3.78 2.74.85 1.23 1.23 2.46 1.23 3.78v368.94zm-45.96-175.63c-12.3-15.41-24.21-27.14-35.75-35.18s-23.55-12.1-36.04-12.1c-11.63 0-21.46 2.74-29.6 8.32-8.13 5.58-14.66 12.86-19.76 21.94-5.02 8.99-8.7 19.29-10.98 30.74-2.36 11.44-3.49 23.08-3.49 34.9 0 12.58.94 24.87 2.93 36.88 1.89 12.01 5.29 22.7 10.02 32.06 4.83 9.37 11.16 16.84 19.11 22.51 7.85 5.58 17.87 8.42 29.79 8.42a64.2 64.2 0 0017.59-2.46c5.58-1.7 11.35-4.45 17.21-8.32 5.87-3.88 12.11-8.89 18.54-15.14 6.43-6.14 13.24-13.71 20.43-22.79v-99.78zM245.14 99.04c-8.02 3.52-16.56 5.85-25.47 6.99 9.16-5.48 16.16-14.07 19.45-24.43-8.55 5.09-17.98 8.69-28.03 10.69-8.12-8.63-19.67-13.98-32.29-13.98-24.47 0-44.17 19.86-44.17 44.21 0 3.5.3 6.87 1.03 10.08-36.75-1.79-69.26-19.41-91.11-46.23-3.81 6.61-6.05 14.18-6.05 22.34 0 15.3 7.89 28.87 19.64 36.73-7.1-.14-14.07-2.2-19.97-5.44v.48c0 21.48 15.32 39.32 35.41 43.43-3.6.98-7.52 1.45-11.59 1.45-2.83 0-5.69-.16-8.37-.75 5.73 17.5 21.98 30.37 41.3 30.79-15.03 11.76-34.13 18.85-54.8 18.85-3.62 0-7.1-.16-10.58-.61 19.58 12.63 42.79 19.84 67.81 19.84 81.33 0 125.8-67.37 125.8-125.77 0-1.96-.07-3.84-.16-5.72 8.77-6.22 16.14-14 22.15-22.95zm1082.64 670.43h141.46c10.65 0 19.29 8.64 19.29 19.29v141.46c0 10.65-8.64 19.29-19.29 19.29h-141.46c-10.65 0-19.29-8.64-19.29-19.29V788.76c0-10.65 8.64-19.29 19.29-19.29zm19.65 63.82c-.08 1.12-.08 2.29-.08 3.41 0 34.85 26.52 74.99 74.99 74.99 14.95 0 28.82-4.34 40.47-11.81-2.13.24-4.18.32-6.35.32-12.34 0-23.67-4.18-32.71-11.25 11.57-.24 21.3-7.84 24.63-18.29-4.06.61-7.71.61-11.89-.48 12.05-2.45 21.1-13.06 21.1-25.88v-.32c-3.5 1.97-7.6 3.17-11.9 3.33a26.283 26.283 0 0011.73-21.9v-.04c0-4.9-1.28-9.4-3.57-13.3a74.871 74.871 0 01-54.34 27.57c3.74-17.89-9.64-32.39-25.72-32.39-7.59 0-14.42 3.17-19.25 8.32a51.843 51.843 0 01-16.71-6.35c1.97 6.11 6.1 11.25 11.57 14.51-5.3-.57-10.45-2.06-15.19-4.1 3.58 5.26 8.08 9.92 13.22 13.66zM366.19 289.63c0-43.42-35.18-78.6-78.6-78.6-43.42 0-78.6 35.18-78.6 78.6 0 39.23 28.74 71.75 66.32 77.65v-54.93h-19.97v-22.72h19.97v-17.32c0-19.7 11.73-30.58 29.69-30.58 8.6 0 17.59 1.54 17.59 1.54v19.33h-9.91c-9.76 0-12.81 6.06-12.81 12.28v14.75h21.8l-3.49 22.72h-18.31v54.93c37.58-5.9 66.32-38.42 66.32-77.65zm1339.22 31.28h-118.56c-13.55 0-24.57 11.02-24.57 24.57v118.56c0 13.55 11.02 24.57 24.57 24.57h49.45v-59.29h-19.65v-29.47h19.65v-19.98c0-16.26 13.23-29.48 29.48-29.48h29.81v29.48h-29.81v19.98h29.81l-4.92 29.47h-24.89v59.29h39.63c13.54 0 24.57-11.02 24.57-24.57V345.48c0-13.55-11.03-24.57-24.57-24.57z"/><g fill="#B9EFE9" fill-rule="nonzero"><path d="M566.87 205.59H491.1c-25.73 0-46.67 20.93-46.67 46.66v75.78c0 25.73 20.94 46.67 46.67 46.67h75.77c25.73 0 46.67-20.94 46.67-46.67v-75.78c0-25.73-20.94-46.66-46.67-46.66zm31.66 122.44c0 17.46-14.2 31.66-31.66 31.66H491.1c-17.46 0-31.67-14.2-31.67-31.66v-75.78c0-17.45 14.21-31.66 31.67-31.66h75.77c17.46 0 31.66 14.21 31.66 31.66v75.78z"/><path d="M528.98 246.57c-24.02 0-43.57 19.55-43.57 43.57 0 24.03 19.55 43.58 43.57 43.58 24.03 0 43.58-19.55 43.58-43.58 0-24.02-19.55-43.57-43.58-43.57zm0 72.14c-15.75 0-28.57-12.81-28.57-28.57 0-15.75 12.82-28.57 28.57-28.57 15.76 0 28.57 12.82 28.57 28.57 0 15.76-12.81 28.57-28.57 28.57zm45.41-84.86c-2.89 0-5.73 1.17-7.78 3.22a11.057 11.057 0 00-3.23 7.78c0 2.89 1.18 5.73 3.23 7.78 2.05 2.04 4.89 3.22 7.78 3.22 2.9 0 5.73-1.18 7.78-3.22 2.05-2.05 3.22-4.89 3.22-7.78 0-2.9-1.17-5.74-3.22-7.78-2.04-2.05-4.88-3.22-7.78-3.22z"/></g><path fill="#00AFB9" fill-rule="nonzero" d="M211.64 733.79H57.28c-17.64 0-31.98 14.35-31.98 31.99v154.36c0 17.63 14.34 31.98 31.98 31.98h154.36c17.63 0 31.98-14.35 31.98-31.98V765.78c0-17.64-14.35-31.99-31.98-31.99zM102.48 906.92H76.89v-89.55h25.59v89.55zm0-102.34H76.89V779h25.59v25.58zm89.55 102.34h-25.59v-51.17c0-7.05-5.74-12.79-12.79-12.79-7.06 0-12.8 5.74-12.8 12.79v51.17h-25.58v-89.55h25.58v4.82c6.71-2.08 11.06-4.82 19.2-4.82 17.35.02 31.98 15.59 31.98 33.98v55.57z"/><path fill="#B9EFE9" fill-rule="nonzero" d="M133.84 601.3c0-49.31 39.13-89.22 87.35-89.22-.01 0 0 0 0 0 5.35 0 10.7.51 15.95 1.49 3.75.7 4.59 5.83 1.28 7.75-21.44 12.46-34.63 35.61-34.63 60.77 0 43.7 38.92 76.89 81.3 68.66 3.72-.73 6.35 3.71 3.94 6.74-16.3 20.5-40.88 33.02-67.84 33.02-48.28 0-87.35-39.97-87.35-89.21z"/><path fill="#B9EFE9" fill-rule="nonzero" stroke="#B9EFE9" stroke-width="2.36" stroke-miterlimit="22.926" d="M1461.65 477.07c-24.43 4.65-46.98-14.02-46.98-38.83 0-14.28 7.65-27.35 20.01-34.39 6.27-3.56 4.69-13.05-2.42-14.37-3.73-.68-7.54-1.04-11.34-1.04-34.26 0-62.05 27.77-62.05 62.06 0 34.26 27.76 62.05 62.05 62.05 19.13 0 36.62-8.71 48.2-22.97 4.57-5.63-.41-13.86-7.47-12.51h0zm-40.73 27.73c-29.98 0-54.29-24.31-54.29-54.3s24.31-54.3 54.29-54.3c3.39 0 6.71.32 9.93.91-14.3 8.13-23.94 23.5-23.94 41.13 0 29.72 27.06 52 56.19 46.45-9.95 12.27-25.15 20.11-42.18 20.11z"/><path fill="#B9EFE9" fill-rule="nonzero" d="M239.65 404.15l-136.92-80.94c-11.12-6.58-28.16-.2-28.16 16.06v161.86c0 14.58 15.83 23.37 28.16 16.06l136.92-80.91c12.22-7.19 12.25-24.93 0-32.13zM93.24 497.04V343.39c0-1.78 1.98-2.91 3.54-2.02l130 76.83c1.51.89 1.51 3.11 0 4l-130 76.86c-1.56.9-3.54-.23-3.54-2.02zm328.47 274.99c26.04 16.51 43.33 45.59 43.33 78.68 0 51.33-41.57 92.94-92.86 93.06-51.22.11-93.17-41.65-93.24-92.91-.04-33.16 17.26-62.32 43.34-78.83a4.508 4.508 0 016.34 1.58l4.42 7.84c1.17 2.06.53 4.69-1.46 5.97-20.82 13.35-34.63 36.69-34.63 63.29 0 41.46 33.58 75.05 75.04 75.05 41.46 0 75.04-33.59 75.04-75.05 0-26.6-13.81-49.94-34.63-63.26-1.99-1.27-2.63-3.9-1.46-5.96l4.42-7.84c1.24-2.29 4.17-2.97 6.35-1.62zM381 858.22v-99.06c0-2.47-2.03-4.5-4.51-4.5h-9c-2.48 0-4.5 2.03-4.5 4.5v99.06c0 2.47 2.02 4.5 4.5 4.5h9c2.48 0 4.51-2.03 4.51-4.5zm9.86-769.96c-21.24 0-38.5 17.29-38.5 38.53 0 21.24 17.26 38.53 38.5 38.53 21.25 0 38.5-17.29 38.5-38.53 0-21.24-17.25-38.53-38.5-38.53zm0 66.06c-15.15 0-27.5-12.34-27.5-27.53 0-15.19 12.35-27.53 27.5-27.53 15.16 0 27.5 12.34 27.5 27.53 0 15.19-12.34 27.53-27.5 27.53zm88-27.53c0-1.82-.93-3.54-2.44-4.57l-28.5-19.08 6.67-33.65c.35-1.79-.2-3.68-1.51-4.95-1.31-1.31-3.13-1.89-4.95-1.51l-33.62 6.67-19.07-28.54c-2.07-3.05-7.09-3.05-9.15 0L367.21 69.7l-33.61-6.71c-1.83-.38-3.65.21-4.95 1.51a5.532 5.532 0 00-1.52 4.95l6.67 33.69-28.49 19.08c-1.51 1.03-2.44 2.75-2.44 4.57 0 1.82.93 3.54 2.44 4.57l28.49 19.08-6.67 33.65c-.34 1.79.21 3.68 1.52 4.95 1.3 1.31 3.13 1.89 4.95 1.51l33.61-6.66 19.08 28.53a5.494 5.494 0 004.57 2.44c1.83 0 3.54-.93 4.58-2.44l19.07-28.53 33.62 6.66c1.86.42 3.68-.2 4.95-1.51a5.483 5.483 0 001.51-4.95l-6.67-33.65 28.5-19.08c1.51-1.03 2.44-2.75 2.44-4.57zm-40.11 16.53c-1.86 1.24-2.75 3.48-2.34 5.64l5.77 29.18-29.14-5.77c-2.27-.48-4.41.48-5.64 2.34l-16.54 24.75-16.53-24.72a5.494 5.494 0 00-4.57-2.44c-.35 0-.72.04-1.07.1l-29.15 5.78 5.78-29.18c.41-2.17-.48-4.4-2.34-5.64l-24.71-16.54 24.71-16.56c1.86-1.24 2.75-3.48 2.34-5.64l-5.78-29.18 29.15 5.77c2.24.45 4.4-.48 5.64-2.34l16.53-24.75 16.54 24.75c1.24 1.86 3.4 2.79 5.64 2.34l29.14-5.77-5.77 29.18c-.41 2.16.48 4.4 2.34 5.64l24.71 16.56-24.71 16.5zm1087.71-11.86l-10.83 10.84 37.91 16.25 16.25 37.91 10.83-10.83-5.42-27.08 25.39-25.38 27.65 59.01 10.25-10.26-9.11-77.54 21.66-21.67c2.99-2.89 4.68-6.87 4.68-11.02 0-8.46-6.86-15.32-15.32-15.32a15.3 15.3 0 00-11.02 4.68l-22.24 22.23-77.54-9.12-9.69 9.7 58.55 28.11-24.91 24.92-27.09-5.43z"/><path fill="#B9EFE9" fill-rule="nonzero" stroke="#B9EFE9" stroke-width="2.36" stroke-miterlimit="22.926" d="M1002.11 909.5l-35.94-136.13c-.7-2.62-3.42-4.18-6.03-3.48l-4.75 1.27c-2.32.62-3.8 2.8-3.64 5.08-3.52 2.28-19.74 6.63-23.93 6.42-1-2.06-3.38-3.21-5.69-2.59l-3.48.94v-1.45c0-5.43-4.41-9.84-12.3-9.84h-73.8c-2.97 0-7.37 4.41-7.37 9.84v137.75c0 5.43 4.4 9.84 7.37 9.84h73.8c7.89 0 12.3-4.41 12.3-9.84V805.37l31.19 118.13c.7 2.61 3.41 4.18 6.03 3.48l4.75-1.27c2.32-.63 3.8-2.81 3.64-5.08 3.52-2.29 19.74-6.63 23.93-6.42a4.91 4.91 0 005.69 2.58l4.76-1.27c2.61-.7 4.17-3.41 3.47-6.02h0zm-137.58 2.89h-24.6v-14.76h24.6v14.76zm0-29.52h-24.6V814h24.6v68.87zm0-83.63h-24.6v-14.76h24.6v14.76zm39.36 113.15h-24.6v-14.76h24.6v14.76zm0-29.52h-24.6V814h24.6v68.87zm0-83.63h-24.6v-14.76h24.6v14.76zm57.18 109.15l-29.9-113.55c5.16-.55 18.68-4.12 23.77-6.37l29.89 113.56c-5.15.55-18.67 4.12-23.76 6.36z"/><path fill="#B9EFE9" fill-rule="nonzero" d="M1947.57 361.27h-16.07l-9.65-23.97a24.618 24.618 0 00-22.83-15.43h-53.07c-10.04 0-19.08 6.11-22.83 15.43l-9.66 23.96h-16.06c-2.4 0-4.17 2.26-3.58 4.59l1.85 7.39a3.682 3.682 0 003.58 2.79h3.48c-2.55 4.36-4.1 9.36-4.1 14.77v41.86c0 4.08 3.31 7.38 7.38 7.38h4.93c4.08 0 7.38-3.3 7.38-7.38v-7.39h108.33v7.39c0 4.08 3.31 7.38 7.38 7.38h4.93c4.07 0 7.38-3.3 7.38-7.38v-41.85c0-5.42-1.55-10.42-4.09-14.77h3.48a3.7 3.7 0 003.58-2.8l1.85-7.38a3.698 3.698 0 00-3.59-4.59zm-110.75-18.45a9.796 9.796 0 019.13-6.17h53.07c4.04 0 7.62 2.42 9.13 6.17l7.43 18.44h-86.19l7.43-18.44zm94.75 62.76a4.93 4.93 0 01-4.92 4.92h-108.33a4.93 4.93 0 01-4.92-4.92v-14.77c0-8.15 6.63-14.78 14.77-14.78h88.63c8.15 0 14.77 6.63 14.77 14.78v14.77zm-98.48-22.16c-5.9 0-9.84 3.92-9.84 9.82 0 5.89 3.94 9.82 9.84 9.82 5.91 0 14.78.98 14.78-4.91 0-5.89-8.87-14.73-14.78-14.73zm78.79 0c-5.91 0-14.78 8.84-14.78 14.73 0 5.89 8.87 4.91 14.78 4.91 5.9 0 9.84-3.93 9.84-9.82 0-5.89-3.94-9.82-9.84-9.82z"/><g fill="#B9EFE9" fill-rule="nonzero"><path d="M1695.95 876.47c-4.11-.01-7.44 3.33-7.44 7.44v23.07a5.254 5.254 0 01-5.21 5.22h-108.68a5.248 5.248 0 01-5.21-5.22v-23.07a7.45 7.45 0 00-7.45-7.45c-4.11 0-7.44 3.34-7.44 7.45v23.07c0 11.1 9 20.1 20.1 20.1h108.68c11.1 0 20.1-9 20.1-20.1v-23.07c0-4.11-3.34-7.45-7.45-7.45v.01z"/><path d="M1623.33 891.95l.24.77.39.69c.08.2.18.4.3.59.54.81 1.24 1.51 2.05 2.06l.59.3.69.38.77.24.6.33c.49.09.99.14 1.49.14s.99-.05 1.49-.14l.62-.18.77-.24.69-.39.6-.3c.39-.27.77-.58 1.13-.92l27.36-27.36c1.4-1.4 2.18-3.3 2.18-5.27 0-4.12-3.33-7.46-7.45-7.46-1.98 0-3.87.79-5.27 2.19l-14.68 14.5v-86.23c0-4.11-3.33-7.44-7.44-7.44s-7.45 3.33-7.45 7.44v104.21c.01.49.06.98.15 1.46.05.21.11.42.18.63zm-31.99-35.23a7.45 7.45 0 0110.53-.01l12.99 13a7.43 7.43 0 010 10.52 7.442 7.442 0 01-10.53 0l-12.99-12.99a7.46 7.46 0 010-10.53z"/></g><path fill="#B9EFE9" fill-rule="nonzero" stroke="#B9EFE9" stroke-width="2.36" stroke-miterlimit="22.926" d="M2366.02 399.35h-18.75V388.1c0-6.22-5.04-11.26-11.26-11.26h-37.51c-6.22 0-11.26 5.04-11.26 11.26v11.25h-18.75c-6.22 0-11.26 5.04-11.26 11.26v60.02c0 6.21 5.04 11.25 11.26 11.25h97.53c6.22 0 11.26-5.04 11.26-11.25v-60.02c0-6.22-5.04-11.26-11.26-11.26zm-67.52-11.25h37.51v11.25h-37.51V388.1zm-28.61 22.51h94.73c.77 0 1.4.63 1.4 1.4v17.35h-97.53v-17.35c0-.77.63-1.4 1.4-1.4zm94.73 60.02h-94.73c-.77 0-1.4-.63-1.4-1.41v-28.6h33.76v5.62a5.63 5.63 0 005.63 5.63h18.75a5.63 5.63 0 005.63-5.63v-5.62h33.76v28.6c0 .78-.63 1.41-1.4 1.41z"/><path fill="#B9EFE9" fill-rule="nonzero" d="M1710.72 610.28l-42.48.05c-2.07 0-3.75 1.67-3.75 3.74v8.68c0-.01 0 0 0 0 0 2.07 1.68 3.74 3.75 3.74h.07l19.17-.7.54.53-72.6 72.6c-.58.58-.92 1.38-.92 2.21 0 .83.34 1.63.92 2.21l5.99 5.99c.59.59 1.38.92 2.21.92.83 0 1.63-.33 2.22-.92l72.59-72.59.54.53-.71 19.17v.07c0 2.07 1.67 3.75 3.75 3.75h8.67c2.07 0 3.75-1.68 3.75-3.75l.04-42.48c0-2.07-1.68-3.75-3.75-3.75zm-17.08 74.97h-4.16c-2.3 0-4.17 1.87-4.17 4.17v40.09c0 .86-.7 1.56-1.56 1.56h-88.51c-.86 0-1.56-.7-1.56-1.56V641c0-.86.7-1.56 1.56-1.56h40.09c2.3 0 4.17-1.87 4.17-4.17v-4.16c0-2.3-1.87-4.17-4.17-4.17h-41.65c-6.9 0-12.49 5.6-12.49 12.5v91.63c0 6.9 5.59 12.49 12.49 12.49h91.63c6.9 0 12.5-5.59 12.5-12.49v-41.65c0-2.3-1.87-4.17-4.17-4.17zM679.89 30.79c-47.49 0-85.94 38.5-85.94 85.94 0 31.84 10.74 41.78 67.71 133.13 8.41 13.48 28.07 13.47 36.46 0 57.01-91.39 67.71-101.3 67.71-133.13 0-47.49-38.5-85.94-85.94-85.94zm0 207.69c-57.03-91.45-64.45-97.22-64.45-121.75 0-35.59 28.86-64.45 64.45-64.45 35.6 0 64.46 28.86 64.46 64.45 0 24.42-6.79 29.29-64.46 121.75zm-35.8-121.75c0-19.77 16.03-35.81 35.8-35.81 19.78 0 35.81 16.04 35.81 35.81 0 19.78-16.03 35.81-35.81 35.81-19.77 0-35.8-16.03-35.8-35.81z"/><path fill="#00AFB9" fill-rule="nonzero" d="M1928.85 70.12h-209.27c-13.34 0-24.15 10.81-24.15 24.15v144.88c0 13.33 10.81 24.14 24.15 24.14h209.27c13.34 0 24.15-10.81 24.15-24.14V94.27c0-13.34-10.81-24.15-24.15-24.15zm0 24.15v20.52c-11.28 9.19-29.26 23.47-67.7 53.57-8.47 6.67-25.26 22.68-36.93 22.49-11.68.19-28.47-15.82-36.93-22.49-38.44-30.09-56.43-44.38-67.71-53.57V94.27h209.27zm-209.27 144.88v-93.37c11.53 9.18 27.87 22.06 52.79 41.57 11 8.66 30.25 27.77 51.85 27.65 21.49.12 40.5-18.71 51.84-27.64 24.91-19.51 41.27-32.4 52.79-41.58v93.37h-209.27z"/><path d="M490.78 670.97h-26.39c-4.83 0-8.74 3.91-8.74 8.73v26.4c0 4.82 3.91 8.73 8.74 8.73h26.39c4.82 0 8.73-3.91 8.73-8.73v-26.4c0-4.82-3.91-8.73-8.73-8.73zm.76 35.13v.04c0 .39-.32.72-.72.72-.01 0-.03 0-.04-.01h-26.39c-.02.01-.03.01-.05.01-.39 0-.71-.33-.71-.72v-26.48c0-.39.32-.72.71-.72.02 0 .03.01.05.01h26.39c.01 0 .03-.01.04-.01.4 0 .72.33.72.72v26.44zm51.07-35.13h-26.39c-4.82 0-8.73 3.91-8.73 8.73v26.4c0 4.82 3.91 8.73 8.73 8.73h26.39c4.82 0 8.73-3.91 8.73-8.73v-26.4c0-4.82-3.91-8.73-8.73-8.73zm.76 35.13v.04c0 .39-.32.72-.72.72-.01 0-.02 0-.04-.01h-26.39c-.02.01-.03.01-.04.01-.4 0-.72-.33-.72-.72v-26.48c0-.39.32-.72.72-.72.01 0 .02.01.04.01h26.39c.02 0 .03-.01.04-.01.4 0 .72.33.72.72v26.44zm-52.59 16.7h-26.39c-4.83 0-8.74 3.91-8.74 8.74v26.39c0 4.82 3.91 8.73 8.74 8.73h26.39c4.82 0 8.73-3.91 8.73-8.73v-26.39c0-4.83-3.91-8.74-8.73-8.74zm.76 35.13v.04c0 .4-.32.72-.72.72h-26.48c-.39 0-.71-.32-.71-.72v-26.48c0-.39.32-.71.71-.71h26.48c.4 0 .72.32.72.71v26.44zm51.07-35.13h-26.39c-4.82 0-8.73 3.91-8.73 8.74v26.39c0 4.82 3.91 8.73 8.73 8.73h26.39c4.82 0 8.73-3.91 8.73-8.73v-26.39c0-4.83-3.91-8.74-8.73-8.74zm.76 35.13v.04c0 .4-.32.72-.72.72h-26.47c-.4 0-.72-.32-.72-.72v-26.48c0-.39.32-.71.72-.71h26.47c.4 0 .72.32.72.71v26.44z" fill="#B9EFE9" fill-rule="nonzero"/><path fill="#00AFB9" fill-rule="nonzero" d="M1541.28 538.01l-35.47-8.18a17.194 17.194 0 00-19.7 10.02l-16.38 38.22c-3.01 7.01-.98 15.29 4.94 20.11l15.06 12.31c-10.77 19.73-27.04 36-46.77 46.73l-12.31-15.06c-4.82-5.91-13.11-7.94-20.11-4.93l-38.26 16.38c-7.68 3.28-11.86 11.56-10.02 19.69l8.17 35.48c1.81 7.87 8.74 13.36 16.8 13.36 92.22.04 167.42-74.63 167.42-167.34 0-8.06-5.5-14.99-13.37-16.79zm-153.34 166.1l-7.87-34.16 36.98-15.85 20.98 25.64c37.2-17.47 56.71-36.9 74.18-74.18l-25.65-20.97 15.86-36.98 34.15 7.87c-.38 81.94-66.69 148.25-148.63 148.63z"/><path fill="#00AFB9" d="M1859.68 577.71c-23.84 0-43.23-19.3-43.23-43.03s19.39-43.03 43.23-43.03c23.85 0 43.24 19.3 43.24 43.03s-19.39 43.03-43.24 43.03zm40.63 7.25c17.15-13.74 27.15-35.96 23.47-60.28-4.27-28.22-27.85-50.81-56.32-54.1-39.3-4.54-72.63 25.9-72.63 64.1 0 20.33 9.47 38.45 24.24 50.28-36.28 13.56-62.76 45.41-66.92 88.4-.6 6.36 4.38 11.93 10.8 11.93 5.51 0 10.2-4.13 10.68-9.58 4.34-48.02 41.27-76.48 86.05-76.48 44.79 0 81.73 28.46 86.06 76.48.48 5.45 5.18 9.58 10.68 9.58 6.42 0 11.4-5.57 10.8-11.93-4.15-42.99-30.64-74.84-66.91-88.4z"/><path fill="#B9EFE9" fill-rule="nonzero" d="M1915.97 830.33c-1.74 1.12-4.37 2.81-5.29 2.93-9.7-.03.31-41.87 2.35-50.29-11.95 2.3-54.22 10.62-64.5 2.84.18-7.41 13.41-13.88 13.41-31.2 0-18.3-16.94-29.68-35.08-29.68-18.49 0-42.35 10.39-42.35 30.27 0 16.49 11.58 26.07 12.91 30.07-.3 11.63-46.77.71-58.07-2.21v141.78c4.22 1.09 22.86 6.57 41.94 6.57 18.27 0 35.49-6.35 35.49-24.54 0-12.82-12.91-18.42-12.91-29.78 0-6.66 11.79-10.91 19.91-10.91 8.52 0 18.81 4.6 18.81 10.32 0 9.68-12.91 14.87-12.91 31.42 0 26.95 32.89 23.42 54.22 20.66 14.93-1.94 13.37-1.58 29.46-1.58-1.13-3.61-11.31-32.71-5.6-40.49 4.04-5.5 15.88 12.63 33.89 12.63 18.98 0 29.98-20.77 29.98-38.71 0-23.31-18.54-53.96-55.66-30.1zm25.68 49.46c-9.88 0-15.12-13.21-31.9-13.21-14.23 0-27.07 10.94-21.55 41.95-7.68.9-33.98 5.21-38.85.92-4.49-3.95 12.59-15.39 12.59-32.95 0-18.69-19.95-29.68-38.16-29.68-18.83 0-39.27 11.06-39.27 30.27 0 20.49 16.71 28.39 11.94 32.08-6.79 5.27-28.97 2.07-37.74.38V807.43c25.78 4.42 58.07 3.77 58.07-22.35 0-12.83-12.91-18.46-12.91-29.88 0-6.68 15.87-10.91 22.99-10.91 6.53 0 15.73 3.2 15.73 10.32 0 9.48-13.42 14.86-13.42 31.42 0 24.36 35.04 23.72 59.08 20.84-2.65 21.66.68 45.75 22.46 45.75 12.59 0 18.21-11.55 30.34-11.55 6.95 0 11.23 11.28 11.23 19.36 0 8.71-4.91 19.36-10.63 19.36zm-517.71-572.32l35.24-35.34a2.86 2.86 0 014.05 0l35.25 35.34a2.88 2.88 0 010 4.05l-4.67 4.67c-1.15 1.14-2.98 1.12-4.07-.05l-22.34-23.12v59.25c0 1.57-1.29 2.85-2.86 2.85h-6.67c-1.57 0-2.86-1.28-2.86-2.85v-59.25l-22.31 23.12c-1.12 1.14-2.95 1.17-4.07.05l-4.67-4.67a2.843 2.843 0 01-.02-4.05zm-5.6-46.65h85.73c1.57 0 2.86-1.28 2.86-2.86v-6.66c0-1.58-1.29-2.86-2.86-2.86h-85.73c-1.57 0-2.86 1.28-2.86 2.86v6.66c0 1.58 1.29 2.86 2.86 2.86zm22.92-67.95h-13.05c11.94-10.86 19.5-26.46 19.5-43.83 0-31.83-25.23-57.81-56.73-59.18V74.63c0-5.92-3.27-11.1-8.1-13.82v-5.69c0-6.51-5.29-11.79-11.79-11.79h-32.41c-6.49 0-11.78 5.28-11.78 11.79v5.7c-4.83 2.71-8.11 7.89-8.11 13.81v63.72c0 7.1 4.7 13.12 11.14 15.13v12.13c0 6.5 5.29 11.79 11.79 11.79h26.33c6.51 0 11.79-5.29 11.79-11.79v-12.13c6.45-2 11.14-8.03 11.14-15.13v-32.88c22.95 1.36 41.25 20.28 41.25 43.57 0 24.16-19.66 43.83-43.83 43.83h-88.94c-6.41 0-11.61 5.19-11.61 11.6 0 2.14 1.73 3.87 3.87 3.87H1449c2.13 0 3.86-1.73 3.86-3.87 0-6.41-5.19-11.6-11.6-11.6zm-95.86-30.94v-12.89h18.98v12.89h-18.98zm29.74-23.21h-40.5l-.38-.37.38-64.08h7.73V58.8h25.04l.37 15.47h7.74l-.38 64.45zM627.63 863.63c-9.92 0-12.41 3.56-23.85 3.56-11.41 0-13.9-3.56-23.84-3.56-25.75 0-33.29 21.77-33.29 33.08v13.33c0 7.89 6.4 14.28 14.29 14.28h85.69c7.89 0 14.29-6.39 14.29-14.28v-13.33c0-15.25-10.92-33.08-33.29-33.08zm16.15 43.55h-79.99v-10.47c0-5 2.91-15.94 16.15-15.94 6.15 0 10.55 3.56 23.84 3.56 13.35 0 17.68-3.56 23.85-3.56 13.22 0 16.15 10.91 16.15 15.94v10.47zm-40-51.42c18.94 0 34.28-15.34 34.28-34.27 0-18.94-15.34-34.28-34.28-34.28-18.93 0-34.27 15.34-34.27 34.28 0 18.93 15.34 34.27 34.27 34.27zm0-51.41c9.46 0 17.14 7.68 17.14 17.14 0 9.45-7.68 17.13-17.14 17.13-9.45 0-17.13-7.68-17.13-17.13 0-9.46 7.68-17.14 17.13-17.14zm154.26-62.85H620.92c-9.45 0-17.14 7.95-17.14 17.71v16.57c3.46 0 11.53 1.12 17.14 3.4v-20.54h137.12V872.9H740.9v-17.14c0-6.31-5.12-11.42-11.43-11.42h-45.7c-6.31 0-11.43 5.11-11.43 11.42v34.28h85.7c9.45 0 17.14-7.94 17.14-17.7V759.21c0-9.76-7.69-17.71-17.14-17.71zm-34.28 131.4h-34.28v-11.42h34.28v11.42zm495.69-72.32h-142.74c-7.88 0-14.27 6.39-14.27 14.27v104.67c0 7.88 6.39 14.28 14.27 14.28h142.74c7.88 0 14.27-6.4 14.27-14.28V814.85c0-7.88-6.39-14.27-14.27-14.27zm0 118.94h-142.74V814.85h142.74v104.67zm-95.16-52.33c10.5 0 19.03-8.54 19.03-19.04 0-10.49-8.53-19.03-19.03-19.03-10.5 0-19.03 8.54-19.03 19.03 0 10.5 8.53 19.04 19.03 19.04zm-26.64 38.06h53.28c3.69 0 6.67-2.56 6.67-5.71v-5.71c0-9.46-8.95-17.13-19.99-17.13-3.21 0-5.56 2.38-13.32 2.38-8 0-9.93-2.38-13.32-2.38-11.03 0-19.98 7.67-19.98 17.13v5.71c0 3.15 2.97 5.71 6.66 5.71zm71.84-19.03h33.3c1.31 0 2.38-1.07 2.38-2.38v-4.76c0-1.31-1.07-2.38-2.38-2.38h-33.3c-1.31 0-2.38 1.07-2.38 2.38v4.76c0 1.31 1.07 2.38 2.38 2.38zm0-19.03h33.3c1.31 0 2.38-1.07 2.38-2.38v-4.76c0-1.31-1.07-2.38-2.38-2.38h-33.3c-1.31 0-2.38 1.07-2.38 2.38v4.76c0 1.31 1.07 2.38 2.38 2.38zm0-19.04h33.3c1.31 0 2.38-1.07 2.38-2.37v-4.76c0-1.31-1.07-2.38-2.38-2.38h-33.3c-1.31 0-2.38 1.07-2.38 2.38v4.76c0 1.3 1.07 2.37 2.38 2.37z"/><path fill="#00AFB9" fill-rule="nonzero" d="M639.6 603.91c16.78-16.54 26.85-37.28 26.85-59.92 0-48.82-46.68-89.15-107.52-96.35-19.22-35.15-64.37-59.87-117.04-59.87-70.11 0-126.92 43.7-126.92 97.64 0 22.58 10.07 43.32 26.85 59.92-9.34 18.73-22.76 33.26-23.01 33.5-3.84 4.09-4.94 10.07-2.68 15.26 2.2 5.18 7.32 8.54 12.93 8.54 32.65 0 59.01-12.33 76.4-23.68 5.62 1.28 11.42 2.26 17.33 2.99 19.16 35.03 64.14 59.68 116.74 59.68 12.69 0 24.89-1.46 36.49-4.15 17.39 11.29 43.69 23.68 76.4 23.68 5.61 0 10.68-3.36 12.93-8.54 2.2-5.19 1.16-11.17-2.68-15.26-.25-.18-13.73-14.71-23.07-33.44zm-239.69-56.32l-10.43 6.77c-8.61 5.56-17.39 9.95-26.3 13.06 1.64-2.87 3.29-5.92 4.88-9.03l9.46-18.98-15.14-14.95c-8.23-8.17-18.12-21.54-18.12-39.05 0-37.04 44.73-68.35 97.63-68.35 52.91 0 97.64 31.31 97.64 68.35 0 37.04-44.73 68.34-97.64 68.34-10.06 0-20.13-1.16-29.9-3.42l-12.08-2.74zm219.13 35.45l-15.07 14.89 9.45 18.98c1.59 3.11 3.24 6.16 4.89 9.03-8.91-3.11-17.7-7.51-26.3-13.06l-10.44-6.77-12.14 2.8c-9.77 2.26-19.83 3.42-29.9 3.42-32.95 0-62.37-12.26-80.12-30.33 61.81-6.59 109.41-47.23 109.41-96.59 0-2.08-.25-4.09-.43-6.1 39.3 8.84 68.77 34.66 68.77 64.68 0 17.51-9.88 30.87-18.12 39.05z"/></svg>