<svg xmlns="http://www.w3.org/2000/svg" style="margin:auto;background:0 0" width="430" height="430" viewBox="0 0 100 100" preserveAspectRatio="xMidYMid" display="block"><rect x="47.5" y="29.5" rx="2.5" ry="5.5" width="5" height="11" fill="#00afb9"><animate attributeName="opacity" values="1;0" keyTimes="0;1" dur="0.8695652173913042s" begin="-0.8074534161490683s" repeatCount="indefinite"/></rect><rect x="47.5" y="29.5" rx="2.5" ry="5.5" width="5" height="11" fill="#00afb9" transform="rotate(25.714 50 50)"><animate attributeName="opacity" values="1;0" keyTimes="0;1" dur="0.8695652173913042s" begin="-0.7453416149068323s" repeatCount="indefinite"/></rect><rect x="47.5" y="29.5" rx="2.5" ry="5.5" width="5" height="11" fill="#00afb9" transform="rotate(51.429 50 50)"><animate attributeName="opacity" values="1;0" keyTimes="0;1" dur="0.8695652173913042s" begin="-0.6832298136645962s" repeatCount="indefinite"/></rect><rect x="47.5" y="29.5" rx="2.5" ry="5.5" width="5" height="11" fill="#00afb9" transform="rotate(77.143 50 50)"><animate attributeName="opacity" values="1;0" keyTimes="0;1" dur="0.8695652173913042s" begin="-0.6211180124223602s" repeatCount="indefinite"/></rect><rect x="47.5" y="29.5" rx="2.5" ry="5.5" width="5" height="11" fill="#00afb9" transform="rotate(102.857 50 50)"><animate attributeName="opacity" values="1;0" keyTimes="0;1" dur="0.8695652173913042s" begin="-0.5590062111801242s" repeatCount="indefinite"/></rect><rect x="47.5" y="29.5" rx="2.5" ry="5.5" width="5" height="11" fill="#00afb9" transform="rotate(128.571 50 50)"><animate attributeName="opacity" values="1;0" keyTimes="0;1" dur="0.8695652173913042s" begin="-0.49689440993788814s" repeatCount="indefinite"/></rect><rect x="47.5" y="29.5" rx="2.5" ry="5.5" width="5" height="11" fill="#00afb9" transform="rotate(154.286 50 50)"><animate attributeName="opacity" values="1;0" keyTimes="0;1" dur="0.8695652173913042s" begin="-0.43478260869565216s" repeatCount="indefinite"/></rect><rect x="47.5" y="29.5" rx="2.5" ry="5.5" width="5" height="11" fill="#00afb9" transform="rotate(180 50 50)"><animate attributeName="opacity" values="1;0" keyTimes="0;1" dur="0.8695652173913042s" begin="-0.37267080745341613s" repeatCount="indefinite"/></rect><rect x="47.5" y="29.5" rx="2.5" ry="5.5" width="5" height="11" fill="#00afb9" transform="rotate(205.714 50 50)"><animate attributeName="opacity" values="1;0" keyTimes="0;1" dur="0.8695652173913042s" begin="-0.3105590062111801s" repeatCount="indefinite"/></rect><rect x="47.5" y="29.5" rx="2.5" ry="5.5" width="5" height="11" fill="#00afb9" transform="rotate(231.429 50 50)"><animate attributeName="opacity" values="1;0" keyTimes="0;1" dur="0.8695652173913042s" begin="-0.24844720496894407s" repeatCount="indefinite"/></rect><rect x="47.5" y="29.5" rx="2.5" ry="5.5" width="5" height="11" fill="#00afb9" transform="rotate(257.143 50 50)"><animate attributeName="opacity" values="1;0" keyTimes="0;1" dur="0.8695652173913042s" begin="-0.18633540372670807s" repeatCount="indefinite"/></rect><rect x="47.5" y="29.5" rx="2.5" ry="5.5" width="5" height="11" fill="#00afb9" transform="rotate(282.857 50 50)"><animate attributeName="opacity" values="1;0" keyTimes="0;1" dur="0.8695652173913042s" begin="-0.12422360248447203s" repeatCount="indefinite"/></rect><rect x="47.5" y="29.5" rx="2.5" ry="5.5" width="5" height="11" fill="#00afb9" transform="rotate(308.571 50 50)"><animate attributeName="opacity" values="1;0" keyTimes="0;1" dur="0.8695652173913042s" begin="-0.06211180124223602s" repeatCount="indefinite"/></rect><rect x="47.5" y="29.5" rx="2.5" ry="5.5" width="5" height="11" fill="#00afb9" transform="rotate(334.286 50 50)"><animate attributeName="opacity" values="1;0" keyTimes="0;1" dur="0.8695652173913042s" begin="0s" repeatCount="indefinite"/></rect></svg>