<svg xmlns="http://www.w3.org/2000/svg" width="300" height="300" shape-rendering="geometricPrecision" text-rendering="geometricPrecision" image-rendering="optimizeQuality" fill-rule="evenodd" clip-rule="evenodd" viewBox="0 0 300 299.999"><defs><linearGradient id="a" gradientUnits="userSpaceOnUse" x1="72.637" y1="158.799" x2="245.664" y2="158.799"><stop offset="0" stop-color="#40DB80"/><stop offset=".478" stop-color="#7F3488"/><stop offset="1" stop-color="#F28E16"/></linearGradient><linearGradient id="b" gradientUnits="userSpaceOnUse" x1="72.637" y1="158.799" x2="245.664" y2="158.799"><stop offset="0" stop-color="#40DB80"/><stop offset=".478" stop-color="#7F3488"/><stop offset="1" stop-color="#F28E16"/></linearGradient></defs><circle fill="#FEFEFE" cx="150" cy="150" r="150"/><path fill="url(#a)" fill-rule="nonzero" d="M122.282 227.458c-3.081 4.531-8.338 6.706-12.325 6.706-3.806 0-6.706-1.993-6.706-5.8 0-3.625 11.056-10.15 24.287-17.399-1.45 7.793-2.9 13.231-5.256 16.493zm7.069-28.637c-11.057 5.256-14.5 7.069-18.125 8.881-13.231 6.525-27.187 14.5-27.187 21.931 0 8.881 13.412 14.681 27.368 14.681 6.887 0 13.594-1.45 18.85-4.712 10.149-6.525 15.043-23.018 17.399-39.693 9.063-4.713 16.675-9.425 19.756-12.506 3.807-3.988 4.894-7.975 4.894-11.056 0-3.082-1.45-5.981-2.356-6.707-4.169 4.532-12.144 11.057-20.662 16.856l1.087-11.781c.362-3.806.544-7.068.906-9.968 2.356-20.662 4.532-51.293 4.532-66.699 0-5.8-9.425-15.406-16.313-15.406-2.719 0-4.893 1.631-5.619 5.981-2.174 11.056-7.43 29.181-13.412 46.943-5.075 15.044-10.693 29.724-15.587 39.693-3.625 7.431-6.706 12.144-8.881 12.144-3.444 0-7.25-2.9-7.25-11.782 0-10.149 1.088-25.918 1.994-40.961 1.087-17.219 2.175-33.531 2.175-40.056 0-11.6-11.6-22.656-21.206-22.656-9.425 0-13.775 4.169-19.212 7.975-4.531 3.081-8.881 6.887-8.881 6.887.725 2.719 2.356 5.438 6.525 5.438 2.174 0 4.531-1.087 7.25-2.719 4.712-2.9 8.881-6.706 11.055-6.706 1.269 0 1.994.181 2.719.725 1.269 1.088 1.994 4.531 1.994 9.244 0 6.887-1.088 17.037-1.994 28.274-1.268 15.044-2.9 38.062-2.9 52.199 0 6.525.181 11.781 2.357 17.581 3.443 8.881 12.506 14.863 20.48 14.863 2.719 0 5.8 0 9.606-3.988 6.706-7.069 12.325-17.399 17.944-30.449 9.606-22.113 16.312-46.037 16.312-46.037-.362 23.924-2.537 51.655-4.712 67.061l-.906 6.525z"/><path fill="url(#b)" fill-rule="nonzero" d="M211.274 177.072c.544 3.625 2.175 13.593 4.169 17.762 4.35 8.881 12.687 12.325 17.4 12.325 5.618 0 11.056-2.357 15.405-5.982 5.076-4.168 8.701-9.968 10.15-15.768.363-1.087.363-2.356.363-3.263 0-4.531-2.719-6.706-4.894-7.068-.725 3.262-2.719 7.793-5.256 11.237-2.356 3.081-5.075 5.619-8.156 5.619-1.088 0-1.994-.363-3.081-.906-2.9-1.632-4.894-9.788-5.619-22.113-.181-3.987-.362-7.974-.362-11.962 0-8.337.543-16.493 1.087-24.65 2.9-7.974 11.6-32.805 11.6-48.211 0-7.613-3.444-13.412-7.975-17.037-4.169-3.263-9.062-5.075-13.594-5.075-4.531 0-8.337 1.993-9.606 5.8-3.081 8.518-3.806 26.824-3.806 46.761v1.631c-3.444-1.449-7.25-2.174-11.237-2.174-9.244 0-16.493 3.443-21.569 10.693-7.793 11.056-11.237 25.194-11.237 38.606 0 5.437.544 10.875 1.631 15.949 1.813 8.157 4.894 14.319 8.519 18.669 4.712 5.437 10.331 7.975 14.862 7.975 1.269 0 2.538-.181 3.625-.544 6.706-2.537 13.594-18.85 17.581-28.274zm-18.487 11.599c-4.169 0-6.162-9.062-6.162-19.393 0-14.319 3.625-33.531 11.6-40.599 3.081-2.9 6.162-3.806 8.699-3.806.725 0 1.45 0 2.175.181.181 13.231.544 25.374.906 32.262-2.718 7.793-5.618 14.862-8.337 20.481-3.262 6.706-6.162 10.874-8.881 10.874zm32.624-71.955c-.543-5.437-1.449-10.693-1.449-18.487 0-7.975 1.087-15.949 4.349-16.312 3.625 0 3.988 4.169 3.988 6.706 0 4.169-1.45 10.694-3.081 16.312a190.436 190.436 0 01-3.807 11.781z"/></svg>