<svg xmlns="http://www.w3.org/2000/svg" shape-rendering="geometricPrecision" text-rendering="geometricPrecision" image-rendering="optimizeQuality" fill-rule="evenodd" clip-rule="evenodd" viewBox="0 0 200 75"><defs><linearGradient id="a" gradientUnits="userSpaceOnUse" x1="33.77" y1="50.42" x2="174.85" y2="50.42"><stop offset="0" stop-color="#40DB80"/><stop offset=".478" stop-color="#7F3488"/><stop offset="1" stop-color="#F28E16"/></linearGradient><linearGradient id="b" gradientUnits="userSpaceOnUse" x1="33.77" y1="50.42" x2="174.85" y2="50.42"><stop offset="0" stop-color="#40DB80"/><stop offset=".478" stop-color="#7F3488"/><stop offset="1" stop-color="#F28E16"/></linearGradient><linearGradient id="c" gradientUnits="userSpaceOnUse" x1="33.77" y1="50.42" x2="174.85" y2="50.42"><stop offset="0" stop-color="#40DB80"/><stop offset=".478" stop-color="#7F3488"/><stop offset="1" stop-color="#F28E16"/></linearGradient><linearGradient id="d" gradientUnits="userSpaceOnUse" x1="33.77" y1="50.42" x2="174.85" y2="50.42"><stop offset="0" stop-color="#40DB80"/><stop offset=".478" stop-color="#7F3488"/><stop offset="1" stop-color="#F28E16"/></linearGradient><linearGradient id="e" gradientUnits="userSpaceOnUse" x1="33.77" y1="50.42" x2="174.85" y2="50.42"><stop offset="0" stop-color="#40DB80"/><stop offset=".478" stop-color="#7F3488"/><stop offset="1" stop-color="#F28E16"/></linearGradient><linearGradient id="f" gradientUnits="userSpaceOnUse" x1="33.77" y1="50.42" x2="174.85" y2="50.42"><stop offset="0" stop-color="#40DB80"/><stop offset=".478" stop-color="#7F3488"/><stop offset="1" stop-color="#F28E16"/></linearGradient><linearGradient id="g" gradientUnits="userSpaceOnUse" x1="33.77" y1="50.42" x2="174.85" y2="50.42"><stop offset="0" stop-color="#40DB80"/><stop offset=".478" stop-color="#7F3488"/><stop offset="1" stop-color="#F28E16"/></linearGradient><linearGradient id="h" gradientUnits="userSpaceOnUse" x1="33.77" y1="50.42" x2="174.85" y2="50.42"><stop offset="0" stop-color="#40DB80"/><stop offset=".478" stop-color="#7F3488"/><stop offset="1" stop-color="#F28E16"/></linearGradient><linearGradient id="i" gradientUnits="userSpaceOnUse" x1="33.77" y1="50.42" x2="174.85" y2="50.42"><stop offset="0" stop-color="#40DB80"/><stop offset=".478" stop-color="#7F3488"/><stop offset="1" stop-color="#F28E16"/></linearGradient><linearGradient id="j" gradientUnits="userSpaceOnUse" x1="50.68" y1="17.11" x2="180.31" y2="17.11"><stop offset="0" stop-color="#40DB80"/><stop offset=".478" stop-color="#7F3488"/><stop offset="1" stop-color="#F28E16"/></linearGradient></defs><path fill="url(#a)" fill-rule="nonzero" d="M29.76 67.57c-.77 1.13-2.08 1.68-3.08 1.68-.95 0-1.67-.5-1.67-1.45 0-.91 2.76-2.54 6.06-4.35-.36 1.95-.72 3.31-1.31 4.12zm1.77-7.15c-2.77 1.31-3.63 1.76-4.53 2.22-3.31 1.63-6.79 3.62-6.79 5.47 0 2.22 3.35 3.67 6.83 3.67 1.72 0 3.4-.36 4.71-1.17 2.54-1.63 3.76-5.76 4.35-9.92 2.26-1.18 4.17-2.36 4.94-3.13.95-.99 1.22-1.99 1.22-2.76 0-.77-.36-1.49-.59-1.67-1.04 1.13-3.03 2.76-5.16 4.21l.27-2.95c.09-.95.13-1.76.23-2.49.58-5.16 1.13-12.81 1.13-16.66 0-1.45-2.36-3.85-4.08-3.85-.68 0-1.22.41-1.4 1.5-.55 2.76-1.86 7.29-3.35 11.72-1.27 3.76-2.67 7.43-3.9 9.92-.9 1.86-1.67 3.03-2.22 3.03-.86 0-1.81-.72-1.81-2.94 0-2.54.27-6.47.5-10.23.27-4.31.54-8.38.54-10.01 0-2.9-2.89-5.66-5.29-5.66-2.36 0-3.45 1.04-4.8 1.99-1.14.77-2.22 1.72-2.22 1.72.18.68.59 1.36 1.63 1.36.54 0 1.13-.27 1.81-.68 1.18-.72 2.22-1.67 2.76-1.67.32 0 .5.04.68.18.32.27.5 1.13.5 2.31 0 1.72-.27 4.25-.5 7.06-.32 3.76-.72 9.51-.72 13.04 0 1.63.04 2.95.58 4.39.86 2.22 3.13 3.72 5.12 3.72.68 0 1.45 0 2.4-1 1.68-1.76 3.08-4.35 4.48-7.61 2.4-5.52 4.08-11.5 4.08-11.5-.09 5.98-.63 12.91-1.18 16.76l-.22 1.63z"/><path fill="url(#b)" fill-rule="nonzero" d="M59.51 59.1c-.68-.31-.91-1.94-.91-4.07 0-2.63.32-6.11.59-8.7.14-1.35.23-2.49.23-2.94-.05-1.99-2.58-3.62-3.99-3.62-.49 0-.81.22-.86.68-.04.68-.09 1.13-.18 1.63-1.36-1.95-3.53-3.04-5.75-3.04-.81 0-1.63.14-2.4.46-3.76 1.49-5.61 7.06-5.61 11.68v.5c.09 2.9.9 5.66 2.13 7.56 1.08 1.72 2.58 2.76 4.12 2.76.36 0 .77-.04 1.17-.18 2.86-1 5.03-7.38 5.66-9.55 0 .18-.04.36-.04.54-.05.72-.09 1.31-.09 1.9 0 1.13.13 2.27.54 4.08.18.77.77 1.49 1.5 2.03.95.73 2.49 1.32 3.57 1.32 2.81 0 5.07-2.45 5.84-4.71.1-.36.14-.68.14-1 0-1.18-.63-1.76-1.13-1.9-.41 1.54-2.27 4.75-3.9 4.75-.22 0-.4-.09-.63-.18zm-11.77-1.08c-.68 0-1.32-2.18-1.32-4.49 0-3.71 1.09-8.92 2.95-10.86.54-.55 1.08-.77 1.58-.77 1.5 0 2.67 2.03 2.81 3.48-.82 3.67-2.26 7.84-3.71 10.33-.82 1.4-1.63 2.31-2.31 2.31z"/><path fill="url(#c)" fill-rule="nonzero" d="M67.93 56.52c0-1.17.46-2.94 1.09-4.57.5-1.31 1.09-2.58 1.67-3.53 1.23 1.85 3.45 3.08 5.98 3.08 2.58 0 4.71-1.41 4.71-3.72 0-1.08-.5-1.76-1.27-1.85-.36 1.45-1.72 2.71-3.17 2.71-.13 0-.31 0-.45-.04-2.17-.45-2.99-2.81-2.99-2.81s1.86-2.13 1.86-3.35c0-1.81-1.95-3.35-3.4-3.35-.36 0-.68.09-.95.32-.68.54-1.18 1.54-1.49 2.85-.14.59-.18 1.18-.18 1.63 0 .32.04.68.09.99-.46.87-.95 2.13-1.36 3.49v-1.76c0-1.91-.09-3.76-1-5.12-.72-1.18-1.9-1.99-3.21-1.99-.32 0-.64.04-.95.13.09.5.18 1.22.18 2.18 0 1.04-.05 2.35-.09 3.8-.05 1.77-.09 4.26-.09 6.11 0 3.31.18 6.43.72 7.79.45 1.22 1.99 2.45 3.44 2.45.36 0 .73-.05 1.04-.23a68.11 68.11 0 01-.18-5.21z"/><path fill="url(#d)" fill-rule="nonzero" d="M88.9 54.98c.13.91.54 3.4 1.04 4.44 1.09 2.22 3.17 3.08 4.35 3.08 1.4 0 2.76-.59 3.85-1.49 1.26-1.05 2.17-2.5 2.53-3.94.09-.28.09-.59.09-.82 0-1.13-.68-1.67-1.22-1.77-.18.82-.68 1.95-1.31 2.81-.59.77-1.27 1.41-2.04 1.41-.27 0-.5-.09-.77-.23-.73-.41-1.22-2.45-1.4-5.52-.05-1-.1-2-.1-2.99 0-2.09.14-4.12.28-6.16.72-1.99 2.89-8.2 2.89-12.05 0-1.9-.86-3.35-1.99-4.25-1.04-.82-2.26-1.27-3.39-1.27-1.14 0-2.09.5-2.4 1.45-.77 2.13-.96 6.7-.96 11.68v.41c-.86-.36-1.81-.55-2.8-.55-2.31 0-4.12.86-5.39 2.68-1.95 2.76-2.81 6.29-2.81 9.64 0 1.36.14 2.72.41 3.99.45 2.03 1.22 3.57 2.13 4.66 1.17 1.36 2.58 1.99 3.71 1.99.32 0 .63-.04.91-.13 1.67-.64 3.39-4.71 4.39-7.07zm-4.62 2.9c-1.04 0-1.54-2.26-1.54-4.84 0-3.58.91-8.38 2.9-10.15.77-.72 1.54-.95 2.17-.95.18 0 .36 0 .54.05.05 3.3.14 6.34.23 8.06-.68 1.94-1.4 3.71-2.08 5.11-.82 1.68-1.54 2.72-2.22 2.72zm8.15-17.98c-.14-1.35-.36-2.67-.36-4.61 0-2 .27-3.99 1.08-4.08.91 0 1 1.04 1 1.68 0 1.04-.36 2.67-.77 4.07-.45 1.59-.95 2.94-.95 2.94z"/><path fill="url(#e)" fill-rule="nonzero" d="M116.75 59.28c-1.32 0-1.36-1.99-1.36-3.44 0-1.9.27-4.07.32-4.84.13-1.63.31-3.49.31-5.12 0-1.09-.09-2.08-.31-2.85-.59-1.9-2.99-3.58-5.21-3.58-.82 0-1.59.23-2.27.73-.9.63-1.9 2.76-2.85 5.07-1.13 2.76-1.9 5.7-2.13 6.56 0 .09-.04.14-.04.18 0-1.58.45-4.48.45-6.97 0-1.18-.04-2.26-.32-2.85-.72-1.68-2.22-2.58-3.57-2.58-.28 0-.55.04-.77.09.09.63.13 1.4.13 2.35 0 1.95-.22 4.58-.41 7.07-.18 2.03-.36 4.34-.36 5.79 0 .77.05 1.54.18 2.31.5 3.08 2.72 5.07 3.76 5.07.32 0 .55-.18.55-.63v-.32c0-1.36 1.31-6.16 2.85-10.46.81-2.4 1.76-4.66 2.58-6.16.63-1.13 1.22-1.81 1.63-1.81.77 0 1 .95 1 2.27 0 1.17-.19 2.62-.28 3.85-.13 1.72-.31 3.48-.31 5.16 0 1.31.13 2.62.5 3.85 1.17 3.62 4.43 4.25 5.7 4.25.73 0 1.63-.4 2.49-1.08 1.31-1 2.36-2.49 2.81-3.76.13-.36.23-.77.23-1.04 0-1.14-.73-1.77-1.27-1.86-.23 1.4-1.32 3.08-2.45 4.03-.54.45-1.08.72-1.58.72z"/><path fill="url(#f)" fill-rule="nonzero" d="M120.46 58.47c.68 1.99 2.58 3.71 5.39 3.71 1.95 0 3.71-1.31 4.98-3.57.45-.82.77-1.86.77-2.59 0-.77-.68-1.54-1.22-1.54-.14.64-1.04 2.54-2.22 3.63-.45.45-1.09.86-1.54.86-.45 0-.82-.14-1.04-.46-.5-.63-.55-1.85-.55-3.21 0-2.45.28-4.75.46-7.06.09-1.41.22-2.72.22-3.9 0-1.18-.13-2.22-.54-3.12-1-2.13-2.81-2.77-4.08-2.77h-.36c0 2.63-.31 5.26-.54 7.79-.18 2.45-.41 4.85-.41 7.02 0 1.72.05 3.31.68 5.21zm2.08-28.8c-1.04 0-1.81.32-2.22.86-.22.32-.36.68-.36 1.09 0 .63.32 1.36.91 2.03.99 1.09 2.53 1.82 3.89 1.82 1.22 0 2.54-.59 2.54-1.86s-.82-2.31-1.9-2.99c-.91-.59-1.95-.95-2.86-.95z"/><path fill="url(#g)" fill-rule="nonzero" d="M141.34 67.07c-.55.91-1.59 1.27-2.45 1.27-.86 0-1.58-.32-1.58-.81 0-.37.54-.77.81-.95.73-.55 3.49-1.86 4.17-2.13-.23.95-.5 1.81-.95 2.62zm-4.44-9.01c-.91 0-1.59-1.49-1.59-4.62 0-.9.05-1.94.18-3.12.46-3.71 2.09-8.51 4.08-8.51 1.36 0 2.76 1.58 3.03 3.57-.72 2.63-1.49 5.39-2.53 7.7-1.22 2.63-2.31 4.98-3.17 4.98zm5.61 3.4s-2.22 1.18-3.62 1.85c-2.08 1-4.39 2.13-5.34 3.63-.27.5-.46.99-.46 1.49 0 2.49 3.67 2.99 5.3 2.99 2.4 0 5.07-.81 6.52-2.54 1.5-1.76 2.22-4.43 2.54-6.97 2.31-1.22 4.39-2.63 5.52-4.16.46-.64.68-1.27.68-1.73 0-.95-.63-1.58-1.13-1.85-.5.68-1.22 1.45-2.13 2.17-.77.64-1.67 1.31-2.62 1.99 0-.54.22-6.47.36-8.96.18-3.22 0-4.62.27-6.48 0-.31-.05-.54-.18-.81-.68-1.18-2.67-1.95-3.99-1.95-.49 0-.9.09-.95.32-.04.45-.13.99-.27 1.49-1.13-2.08-3.35-3.03-4.89-3.03-2.76 0-5.03 1.63-6.52 3.98-1.4 2.31-2.17 5.26-2.17 8.24 0 1.68.27 3.35.72 4.89.68 2.18 1.68 3.72 2.81 4.71.95.82 1.95 1.23 2.94 1.23 1.31 0 2.27-.77 2.99-1.68 1.68-2.08 3.03-5.89 4.17-9.33 0 .86-.46 3.72-.46 5.89 0 2.35-.09 3.76-.09 4.62z"/><path fill="url(#h)" fill-rule="nonzero" d="M169.41 59.51c-1.18 0-1.36-1.63-1.36-2.99 0-1.49.18-3.3.32-4.84.14-1.77.32-3.53.32-5.12 0-1.22-.14-2.31-.41-3.26-.64-1.95-2.99-3.62-5.21-3.62-.81 0-1.63.22-2.26.72-2.04 1.45-4.3 9.1-4.53 9.96.23-2.89.32-4.98.45-6.65 1.95-3.58 3.99-7.34 3.99-10.73 0-.5-.05-1.05-.14-1.54-.68-3.26-3.03-5.12-5.16-5.12-1.31 0-2.49.68-3.04 2.04-1.04 2.58-1.31 8.96-1.31 15.66 0 6.3.23 12.55.41 14.22.27 2.18 2.35 3.94 3.44 3.94.36 0 .59-.22.63-.68.1-1.76 1.05-5.48 2.5-9.73 1.53-4.49 3.39-8.61 4.43-8.65.73 0 .91 1.04.91 2.44 0 1.18-.14 2.59-.18 3.99-.09 1.63-.23 3.58-.23 5.34 0 1.54.14 2.95.5 3.9.77 1.94 3.08 3.76 5.43 3.76.5 0 1.04-.1 1.54-.28 2.18-.81 3.81-3.35 4.3-5.43.05-.23.09-.41.09-.63 0-.91-.45-1.54-1.13-1.73-.72 2.4-2.76 5.03-4.3 5.03zM155.6 41.13c0 .04-.23-2.81-.23-5.17 0-2.31.23-3.39.41-4.03.18-.58.63-.95 1.09-.95.54 0 1.22.55 1.22 1.72 0 3.17-1.13 5.75-2.49 8.43z"/><path fill="url(#i)" fill-rule="nonzero" d="M178.83 62.18c2.76 0 5.3-1.45 6.43-4.48.23-.59.27-1.04.27-1.4 0-1.27-.77-1.86-1.27-1.91-.45 2.63-2.71 5.08-4.52 5.08-.41 0-.77-.09-1.09-.37-.82-.63-1.18-2.8-1.18-5.75 0-2.58.23-5.7.63-9.33.19-.9.32-1.85.41-2.76 1.04-.04 1.99-.13 2.67-.27 1.54-.27 2.09-.81 2.09-1.54 0-.23-.05-.5-.14-.72-.5.09-1.22.13-2.08.13-.73 0-1.5-.04-2.36-.04.05-.82.05-1.54.05-2.22 0-1.22-.05-2.04-.14-2.4-.72-3.04-2.4-4.3-3.71-4.3-.45 0-.86.13-1.13.4-.45 1.41-.45 2.72-.45 4.89 0 1.5 0 2.5-.05 3.72-1.22.04-2.26.13-2.9.31-.27.1-.36.41-.36.77 0 .55.18 1.14.18 1.14.23 0 1.45.09 3.03.13-.04.59-.09 1.36-.09 1.86-.18 3.62-.31 7.15-.31 9.87 0 2.31.09 3.94.4 4.85.82 2.35 2.36 4.34 5.62 4.34z"/><path fill="url(#j)" d="M185.62 19.08c2.23 0 4.03 1.8 4.03 4.03 0 2.23-1.8 4.04-4.03 4.04-2.23 0-4.03-1.81-4.03-4.04s1.8-4.03 4.03-4.03zm-1.75 8.21C148.14 10.71 98.79 6.2 28.94 24.52c74.4-28.4 118.72-21.28 158.01-5.84 2.68 1.05 3.77 3.61 2.85 6.03-1.04 2.59-3.85 3.55-5.93 2.58z"/><path fill="#fff" stroke="#F28E16" stroke-width=".9" stroke-miterlimit="22.926" d="M182.12 16.5c.09-2.45-.42-6.66.16-6.77.58-.13 2.25 3.84 3.44 5.93 1.2 2.09 1.93 2.3 3.39 1.8 1.47-.5 3.67-1.7 4.07-1.26.39.44-1.03 2.53-1.65 3.94-.61 1.42-.43 2.15.2 3.02.63.86 1.72 1.86 1.53 2.42-.18.57-1.64.69-2.64 1.02-1 .32-1.55.85-1.8 2.21-.25 1.35-.2 3.55-.78 3.67-.58.12-1.79-1.84-2.75-2.92-.97-1.08-1.7-1.29-2.82-1.1-1.12.19-2.62.79-3.02.35-.39-.44.33-1.93.6-3.03.27-1.11.09-1.85-1.35-2.95-1.43-1.1-4.12-2.57-4-3.05.12-.48 3.05.03 4.85-.05 1.81-.09 2.49-.78 2.57-3.23z"/><path fill="#F28E16" d="M185.62 27.15c2.23 0 4.03-1.81 4.03-4.04s-1.8-4.03-4.03-4.03c-2.23 0-4.03 1.8-4.03 4.03 0 2.23 1.8 4.04 4.03 4.04z"/></svg>